<svg width="463" height="444" viewBox="0 0 463 444" fill="none" xmlns="http://www.w3.org/2000/svg">
<g clip-path="url(#clip0_314_579)">
<path d="M67.6776 215.333C-22.5611 267.432 -22.5589 351.903 67.6825 404.002C157.924 456.102 304.232 456.102 394.471 404.002C484.71 351.903 484.707 267.432 394.466 215.333C304.225 163.233 157.916 163.233 67.6776 215.333Z" fill="#F5F5F5"/>
<path d="M260.405 411.73C257.078 411.73 254.029 411.108 251.588 409.931L79.8299 326.998C78.3612 326.295 77.1571 325.373 76.3683 324.339C75.0669 322.632 74.9445 320.303 76.0598 318.469C76.755 317.328 77.9174 316.269 79.4218 315.408L203.467 243.791C205.835 242.411 208.83 241.675 212.107 241.675C215.873 241.675 219.544 242.71 222.18 244.515L364.747 342.492C367.338 344.255 368.759 346.692 368.626 349.164C368.544 351.541 366.988 353.778 364.25 355.362L270.973 409.219C268.206 410.815 264.354 411.73 260.405 411.73Z" fill="#E0E0E0"/>
<path d="M136.778 363.357L96.6519 386.523L24.783 345.018L64.9091 321.851L136.778 363.357Z" fill="#E0E0E0"/>
<path d="M449.983 322.055L409.857 345.222L337.988 303.717L378.115 280.55L449.983 322.055Z" fill="#E0E0E0"/>
<path d="M409.948 228.293C409.478 228.293 409.098 227.912 409.098 227.442V208.097C409.098 196.353 402.94 183.255 395.372 178.898C392.569 177.285 389.936 177.098 387.759 178.358C384.481 180.253 382.525 185.268 382.525 191.774V211.119C382.525 211.589 382.144 211.97 381.674 211.97C381.205 211.97 380.824 211.589 380.824 211.119V191.774C380.824 184.548 383.042 179.122 386.908 176.886C389.603 175.329 392.909 175.519 396.22 177.425C404.259 182.052 410.798 195.811 410.798 208.097V227.442C410.798 227.912 410.418 228.293 409.948 228.293Z" fill="#37474F"/>
<path d="M358.575 199.943L349.992 304.22L410.731 339.291L419.313 235.014L423.778 231.984L431.376 231.265L370.637 196.199L368.156 200.636L358.575 199.943ZM408.28 227.003C408.28 225.93 409.024 225.486 409.953 226.022C410.876 226.553 411.626 227.851 411.626 228.918C411.626 229.986 410.876 230.424 409.953 229.899C409.03 229.374 408.28 228.076 408.28 227.003ZM380.001 210.6C380.001 209.527 380.751 209.083 381.674 209.62C382.597 210.15 383.347 211.448 383.347 212.516C383.347 213.583 382.597 214.021 381.674 213.496C380.751 212.971 380.001 211.673 380.001 210.6Z" fill="#C68F6A"/>
<path opacity="0.4" d="M358.575 199.943L349.992 304.22L410.731 339.291L419.313 235.014L423.778 231.984L431.376 231.265L370.637 196.199L368.156 200.636L358.575 199.943ZM408.28 227.003C408.28 225.93 409.024 225.486 409.953 226.022C410.876 226.553 411.626 227.851 411.626 228.918C411.626 229.986 410.876 230.424 409.953 229.899C409.03 229.374 408.28 228.076 408.28 227.003ZM380.001 210.6C380.001 209.527 380.751 209.083 381.674 209.62C382.597 210.15 383.347 211.448 383.347 212.516C383.347 213.583 382.597 214.021 381.674 213.496C380.751 212.971 380.001 211.673 380.001 210.6Z" fill="white"/>
<path d="M358.575 199.943L349.992 304.22L410.731 339.291L419.313 235.014L358.575 199.943ZM400.826 233.191C400.826 232.118 401.576 231.674 402.499 232.21C403.422 232.741 404.172 234.039 404.172 235.107C404.172 236.174 403.422 236.612 402.499 236.087C401.576 235.562 400.826 234.264 400.826 233.191ZM372.553 216.789C372.553 215.716 373.297 215.271 374.226 215.808C375.149 216.339 375.899 217.637 375.899 218.704C375.899 219.771 375.149 220.21 374.226 219.685C373.297 219.16 372.553 217.862 372.553 216.789Z" fill="#C68F6A"/>
<path opacity="0.6" d="M358.575 199.943L349.992 304.22L410.731 339.291L419.313 235.014L358.575 199.943ZM400.826 233.191C400.826 232.118 401.576 231.674 402.499 232.21C403.422 232.741 404.172 234.039 404.172 235.107C404.172 236.174 403.422 236.612 402.499 236.087C401.576 235.562 400.826 234.264 400.826 233.191ZM372.553 216.789C372.553 215.716 373.297 215.271 374.226 215.808C375.149 216.339 375.899 217.637 375.899 218.704C375.899 219.771 375.149 220.21 374.226 219.685C373.297 219.16 372.553 217.862 372.553 216.789Z" fill="white"/>
<path d="M442.04 321.202L424.662 318.276L410.728 339.29L442.04 321.202Z" fill="#C68F6A"/>
<path opacity="0.05" d="M442.04 321.202L424.662 318.276L410.728 339.29L442.04 321.202Z" fill="white"/>
<path d="M424.662 318.276L423.775 231.981L419.314 235.012L410.728 339.29L424.662 318.276Z" fill="#C68F6A"/>
<path opacity="0.3" d="M424.662 318.276L423.775 231.981L419.314 235.012L410.728 339.29L424.662 318.276Z" fill="white"/>
<path d="M431.378 231.266L423.776 231.981L424.662 318.276L442.041 321.202L431.378 231.266Z" fill="#C68F6A"/>
<path opacity="0.15" d="M431.378 231.266L423.776 231.981L424.662 318.276L442.041 321.202L431.378 231.266Z" fill="white"/>
<path opacity="0.5" d="M370.638 196.199L371.004 207.119L358.576 199.944L368.154 200.634L370.638 196.199Z" fill="#C68F6A"/>
<path opacity="0.4" d="M368.154 200.634L368.382 205.606L358.576 199.944L368.154 200.634Z" fill="white"/>
<path d="M402.498 234.923C402.028 234.923 401.648 234.543 401.648 234.073V214.727C401.648 202.984 395.49 189.886 387.922 185.528C385.12 183.916 382.49 183.729 380.31 184.988C377.032 186.883 375.075 191.898 375.075 198.404V217.749C375.075 218.219 374.695 218.599 374.225 218.599C373.755 218.599 373.375 218.219 373.375 217.749V198.404C373.375 191.178 375.593 185.752 379.459 183.516C382.153 181.96 385.46 182.15 388.771 184.056C396.809 188.683 403.348 202.442 403.348 214.727V234.073C403.348 234.543 402.968 234.923 402.498 234.923Z" fill="#455A64"/>
<path d="M219.324 72.7707L215.215 75.1527L208.466 47.6316C206.538 39.8482 199.046 29.8644 192.081 25.8636L188.317 23.6814C186.407 22.5722 183.043 22.5722 181.134 23.6814L169.666 30.2609C168.575 30.8974 167.193 30.5154 166.556 29.4242C165.938 28.3513 166.302 26.9511 167.393 26.3328L178.86 19.7351C182.152 17.8439 187.298 17.8439 190.572 19.7351L194.354 21.9173C202.356 26.5367 210.667 37.5751 212.885 46.5403L219.324 72.7707Z" fill="#263238"/>
<path d="M84.3483 86.3486L76.957 73.547L169.041 20.3563L169.04 20.3545C169.999 19.594 171.447 19.6127 173.051 20.5394C175.938 22.207 178.278 26.259 178.278 29.5918C178.278 31.4442 177.571 32.7084 176.433 33.1573L176.432 33.1576L84.3483 86.3486Z" fill="#455A64"/>
<path opacity="0.1" d="M80.0006 78.82L176.056 23.377C175.349 22.3941 174.515 21.5328 173.61 20.8989L78.3163 75.9028L80.0006 78.82Z" fill="white"/>
<path d="M76.9562 73.547C78.9 72.4248 82.1301 74.3808 84.1709 77.916C86.2118 81.4509 86.2907 85.2266 84.3475 86.3486C82.4036 87.4708 79.1738 85.5145 77.1327 81.9796C75.0918 78.4447 75.0129 74.6689 76.9562 73.547Z" fill="#37474F"/>
<path d="M101.438 141.67L97.3276 144.035L90.5789 116.513C88.6512 108.73 81.1408 98.7644 74.1942 94.7636L70.411 92.5632C68.4473 91.4359 67.3203 89.7266 67.3203 87.8715C67.3203 86.0164 68.4473 84.3071 70.411 83.1795L78.6037 78.5063C79.2035 78.1607 80.2037 78.7605 80.8223 79.8521C81.4584 80.9431 81.4766 82.107 80.8767 82.4526H80.8583L72.6844 87.1261C72.0301 87.4896 71.8842 87.8167 71.8661 87.8715C71.8842 87.9441 72.0301 88.2531 72.6844 88.6356L76.467 90.8176C84.4682 95.4367 92.7612 106.475 94.9792 115.422L101.438 141.67Z" fill="#263238"/>
<path d="M336.185 312.775C336.227 306.254 331.698 298.293 326.071 294.997C323.118 293.266 320.46 293.182 318.584 294.419L311.662 298.313L326.171 323.329L333.032 319.439L333.023 319.422C334.947 318.396 336.164 316.103 336.185 312.775Z" fill="#37474F"/>
<path d="M318.886 299.077C324.513 302.374 329.041 310.333 328.999 316.855C328.958 323.377 324.362 325.991 318.735 322.694C313.108 319.397 308.58 311.438 308.621 304.915C308.663 298.394 313.259 295.78 318.886 299.077Z" fill="#455A64"/>
<path d="M318.84 306.117C321.112 307.449 322.94 310.663 322.924 313.296C322.907 315.929 321.051 316.985 318.779 315.654C316.507 314.322 314.679 311.109 314.695 308.475C314.712 305.842 316.568 304.786 318.84 306.117Z" fill="#FAFAFA"/>
<path d="M281.943 268.03C281.985 261.508 277.456 253.548 271.829 250.252C268.875 248.521 266.218 248.437 264.342 249.674L257.42 253.567L271.929 278.584L278.786 274.686C280.71 273.659 281.922 271.358 281.943 268.03Z" fill="#37474F"/>
<path d="M264.643 254.332C270.271 257.628 274.799 265.588 274.757 272.11C274.716 278.632 270.12 281.246 264.493 277.949C258.866 274.652 254.337 266.692 254.379 260.17C254.421 253.649 259.016 251.035 264.643 254.332Z" fill="#455A64"/>
<path d="M264.598 261.372C266.87 262.703 268.698 265.917 268.681 268.551C268.665 271.184 266.809 272.24 264.537 270.908C262.265 269.577 260.436 266.363 260.453 263.73C260.47 261.097 262.326 260.041 264.598 261.372Z" fill="#FAFAFA"/>
<path d="M260.36 371.874C255.921 371.874 251.532 371.037 248.004 369.333L125.574 310.214C113.076 304.179 104.646 291.834 103.575 277.995L91.3359 119.911L96.8691 119.483L109.108 277.567C110.028 289.443 117.262 300.037 127.988 305.217L250.418 364.336C256.471 367.26 266.506 366.889 272.332 363.528L340.313 324.275C342.654 322.923 343.984 321.178 344.055 319.361C344.126 317.545 342.938 315.7 340.71 314.169L237.557 243.277C227.764 236.547 221.622 225.893 220.704 214.047L208.231 52.9295L213.764 52.5014L226.237 213.618C227.024 223.784 232.296 232.928 240.7 238.703L343.853 309.595C347.652 312.207 349.747 315.845 349.6 319.579C349.453 323.312 347.08 326.776 343.088 329.08L275.106 368.333C271.048 370.676 265.668 371.874 260.36 371.874Z" fill="#455A64"/>
<path d="M166.045 333.749C166.086 327.227 161.558 319.267 155.93 315.971C152.977 314.24 150.319 314.155 148.444 315.393L141.521 319.286L156.03 344.303L162.892 340.413L162.883 340.396C164.807 339.369 166.023 337.076 166.045 333.749Z" fill="#37474F"/>
<path d="M148.745 320.05C154.372 323.347 158.9 331.307 158.858 337.829C158.817 344.35 154.222 346.965 148.594 343.668C142.967 340.371 138.439 332.411 138.481 325.889C138.522 319.368 143.118 316.754 148.745 320.05Z" fill="#455A64"/>
<path d="M148.699 327.091C150.972 328.422 152.8 331.636 152.783 334.27C152.766 336.903 150.911 337.959 148.638 336.627C146.366 335.296 144.538 332.082 144.555 329.449C144.572 326.816 146.427 325.76 148.699 327.091Z" fill="#FAFAFA"/>
<path d="M237.476 368.735C237.518 362.214 232.989 354.254 227.362 350.958C224.408 349.227 221.751 349.142 219.876 350.379L212.953 354.273L227.462 379.29L234.324 375.4L234.314 375.383C236.238 374.356 237.455 372.064 237.476 368.735Z" fill="#37474F"/>
<path d="M220.177 355.037C225.804 358.334 230.332 366.294 230.29 372.816C230.249 379.337 225.654 381.952 220.026 378.655C214.399 375.358 209.871 367.398 209.912 360.877C209.954 354.355 214.55 351.741 220.177 355.037Z" fill="#455A64"/>
<path d="M220.131 362.078C222.403 363.409 224.231 366.623 224.215 369.257C224.198 371.89 222.342 372.945 220.07 371.614C217.798 370.283 215.97 367.069 215.986 364.436C216.003 361.802 217.859 360.747 220.131 362.078Z" fill="#FAFAFA"/>
<path d="M350.924 260.323L224.414 173.381C222.86 172.317 220.492 171.67 218.087 171.67C216.034 171.67 214.129 172.114 212.732 172.928L102.638 236.488C101.815 236.96 101.436 237.385 101.307 237.598C101.455 237.792 101.862 238.19 102.713 238.597L255.13 312.193C256.647 312.924 258.71 313.331 260.948 313.331C263.621 313.331 266.267 312.729 268.015 311.721L350.786 263.931C351.729 263.385 352.349 262.7 352.367 262.183C352.395 261.665 351.822 260.934 350.924 260.323ZM309.673 281.097L294.43 289.902C292.22 291.179 288.613 291.216 286.374 289.995L247.814 268.851C247.601 268.731 247.407 268.611 247.232 268.472C247.389 268.342 247.574 268.222 247.768 268.111L265.009 258.15C267.219 256.873 270.789 256.901 272.981 258.215L309.71 280.209C309.941 280.348 310.145 280.487 310.32 280.644C310.135 280.81 309.914 280.958 309.673 281.097ZM280.603 297.884L265.332 306.699C263.122 307.975 259.478 308.096 257.184 306.967L216.404 286.869C216.21 286.776 216.034 286.665 215.868 286.554C215.988 286.462 216.127 286.378 216.265 286.295L233.441 276.38C235.652 275.104 239.268 275.048 241.525 276.251L280.538 297.182C280.751 297.292 280.936 297.413 281.111 297.542C280.954 297.662 280.788 297.773 280.603 297.884ZM118.112 237.913L139.136 225.778C141.347 224.492 144.963 224.436 147.22 225.648L180.332 243.416C180.545 243.527 180.73 243.647 180.905 243.777C180.748 243.897 180.582 244.008 180.397 244.119L161.057 255.292C158.846 256.568 155.193 256.688 152.899 255.56L118.261 238.477C118.066 238.384 117.881 238.273 117.715 238.162C117.835 238.079 117.974 237.996 118.112 237.913ZM154.434 216.945L175.68 204.68C177.89 203.404 181.461 203.431 183.652 204.745L214.804 223.391C215.035 223.53 215.238 223.669 215.414 223.835C215.229 224.002 215.007 224.15 214.767 224.288L195.27 235.536C193.059 236.812 189.442 236.858 187.204 235.628L154.48 217.684C154.268 217.564 154.073 217.444 153.898 217.305C154.055 217.176 154.24 217.056 154.434 216.945ZM259.422 251.019L241.932 261.119C239.721 262.395 236.114 262.441 233.876 261.211L201.152 243.268C200.939 243.148 200.745 243.027 200.569 242.889C200.726 242.759 200.902 242.639 201.097 242.528L220.344 231.42C222.555 230.143 226.125 230.171 228.317 231.475L259.459 250.121C259.69 250.26 259.894 250.399 260.069 250.565C259.884 250.732 259.662 250.88 259.422 251.019ZM291.387 232.566L273.823 242.713C271.612 243.989 268.052 243.943 265.869 242.611L235.124 223.78C234.893 223.641 234.68 223.484 234.505 223.327C234.699 223.151 234.93 222.994 235.189 222.846L254.575 211.654C256.786 210.378 260.301 210.498 262.419 211.913L291.554 231.466C291.794 231.623 291.998 231.799 292.183 231.984C291.961 232.197 291.693 232.391 291.387 232.566ZM249.313 204.329L229.667 215.677C227.457 216.954 223.896 216.908 221.713 215.576L190.969 196.753C190.728 196.606 190.525 196.458 190.34 196.3C190.543 196.125 190.774 195.958 191.033 195.81L212.51 183.416C214.721 182.14 218.235 182.26 220.353 183.684L249.479 203.237C249.72 203.394 249.923 203.561 250.108 203.746C249.886 203.959 249.618 204.153 249.313 204.329ZM167.189 262.108L186.298 251.074C188.508 249.798 192.125 249.742 194.372 250.945L227.494 268.712C227.707 268.823 227.892 268.944 228.067 269.082C227.91 269.203 227.743 269.314 227.558 269.415L210.115 279.488C207.904 280.764 204.25 280.884 201.957 279.756L167.327 262.673C167.133 262.58 166.958 262.478 166.791 262.358C166.911 262.275 167.05 262.192 167.189 262.108ZM278.651 250.362C278.845 250.186 279.077 250.029 279.336 249.881L296.641 239.892C298.861 238.615 302.366 238.726 304.493 240.151L338.882 263.237C339.123 263.394 339.326 263.57 339.511 263.755C339.289 263.968 339.021 264.162 338.715 264.338L323.491 273.124C321.281 274.401 317.729 274.354 315.546 273.023L279.28 250.815C279.04 250.667 278.836 250.519 278.651 250.362Z" fill="#C68F6A"/>
<g opacity="0.7">
<path d="M350.924 260.323L224.414 173.381C222.86 172.317 220.492 171.67 218.087 171.67C216.034 171.67 214.129 172.114 212.732 172.928L102.638 236.488C101.815 236.96 101.436 237.385 101.307 237.598C101.455 237.792 101.862 238.19 102.713 238.597L255.13 312.193C256.647 312.924 258.71 313.331 260.948 313.331C263.621 313.331 266.267 312.729 268.015 311.721L350.786 263.931C351.729 263.385 352.349 262.7 352.367 262.183C352.395 261.665 351.822 260.934 350.924 260.323ZM309.673 281.097L294.43 289.902C292.22 291.179 288.613 291.216 286.374 289.995L247.814 268.851C247.601 268.731 247.407 268.611 247.232 268.472C247.389 268.342 247.574 268.222 247.768 268.111L265.009 258.15C267.219 256.873 270.789 256.901 272.981 258.215L309.71 280.209C309.941 280.348 310.145 280.487 310.32 280.644C310.135 280.81 309.914 280.958 309.673 281.097ZM280.603 297.884L265.332 306.699C263.122 307.975 259.478 308.096 257.184 306.967L216.404 286.869C216.21 286.776 216.034 286.665 215.868 286.554C215.988 286.462 216.127 286.378 216.265 286.295L233.441 276.38C235.652 275.104 239.268 275.048 241.525 276.251L280.538 297.182C280.751 297.292 280.936 297.413 281.111 297.542C280.954 297.662 280.788 297.773 280.603 297.884ZM118.112 237.913L139.136 225.778C141.347 224.492 144.963 224.436 147.22 225.648L180.332 243.416C180.545 243.527 180.73 243.647 180.905 243.777C180.748 243.897 180.582 244.008 180.397 244.119L161.057 255.292C158.846 256.568 155.193 256.688 152.899 255.56L118.261 238.477C118.066 238.384 117.881 238.273 117.715 238.162C117.835 238.079 117.974 237.996 118.112 237.913ZM154.434 216.945L175.68 204.68C177.89 203.404 181.461 203.431 183.652 204.745L214.804 223.391C215.035 223.53 215.238 223.669 215.414 223.835C215.229 224.002 215.007 224.15 214.767 224.288L195.27 235.536C193.059 236.812 189.442 236.858 187.204 235.628L154.48 217.684C154.268 217.564 154.073 217.444 153.898 217.305C154.055 217.176 154.24 217.056 154.434 216.945ZM259.422 251.019L241.932 261.119C239.721 262.395 236.114 262.441 233.876 261.211L201.152 243.268C200.939 243.148 200.745 243.027 200.569 242.889C200.726 242.759 200.902 242.639 201.097 242.528L220.344 231.42C222.555 230.143 226.125 230.171 228.317 231.475L259.459 250.121C259.69 250.26 259.894 250.399 260.069 250.565C259.884 250.732 259.662 250.88 259.422 251.019ZM291.387 232.566L273.823 242.713C271.612 243.989 268.052 243.943 265.869 242.611L235.124 223.78C234.893 223.641 234.68 223.484 234.505 223.327C234.699 223.151 234.93 222.994 235.189 222.846L254.575 211.654C256.786 210.378 260.301 210.498 262.419 211.913L291.554 231.466C291.794 231.623 291.998 231.799 292.183 231.984C291.961 232.197 291.693 232.391 291.387 232.566ZM249.313 204.329L229.667 215.677C227.457 216.954 223.896 216.908 221.713 215.576L190.969 196.753C190.728 196.606 190.525 196.458 190.34 196.3C190.543 196.125 190.774 195.958 191.033 195.81L212.51 183.416C214.721 182.14 218.235 182.26 220.353 183.684L249.479 203.237C249.72 203.394 249.923 203.561 250.108 203.746C249.886 203.959 249.618 204.153 249.313 204.329ZM167.189 262.108L186.298 251.074C188.508 249.798 192.125 249.742 194.372 250.945L227.494 268.712C227.707 268.823 227.892 268.944 228.067 269.082C227.91 269.203 227.743 269.314 227.558 269.415L210.115 279.488C207.904 280.764 204.25 280.884 201.957 279.756L167.327 262.673C167.133 262.58 166.958 262.478 166.791 262.358C166.911 262.275 167.05 262.192 167.189 262.108ZM278.651 250.362C278.845 250.186 279.077 250.029 279.336 249.881L296.641 239.892C298.861 238.615 302.366 238.726 304.493 240.151L338.882 263.237C339.123 263.394 339.326 263.57 339.511 263.755C339.289 263.968 339.021 264.162 338.715 264.338L323.491 273.124C321.281 274.401 317.729 274.354 315.546 273.023L279.28 250.815C279.04 250.667 278.836 250.519 278.651 250.362Z" fill="white"/>
</g>
<path d="M227.493 264.92L194.372 247.152C192.124 245.95 188.508 246.005 186.297 247.282L167.188 258.316C165.163 259.482 165.051 261.211 166.79 262.358C166.911 262.275 167.049 262.192 167.188 262.108L186.297 251.074C188.508 249.798 192.124 249.742 194.372 250.945L227.493 268.712C227.706 268.823 227.891 268.944 228.067 269.082C229.759 267.806 229.556 266.021 227.493 264.92ZM338.881 259.445L304.493 236.359C302.365 234.943 298.86 234.823 296.64 236.1L279.335 246.089C277.365 247.226 277.124 249.03 278.65 250.362C278.845 250.186 279.076 250.029 279.335 249.881L296.64 239.892C298.86 238.615 302.365 238.726 304.493 240.151L338.881 263.237C339.122 263.394 339.325 263.57 339.51 263.755C340.907 262.469 340.703 260.675 338.881 259.445ZM180.331 239.624L147.219 221.856C144.962 220.644 141.346 220.709 139.135 221.985L118.112 234.12C116.095 235.286 115.975 237.015 117.714 238.162C117.834 238.079 117.973 237.996 118.112 237.912L139.135 225.777C141.346 224.492 144.962 224.436 147.219 225.648L180.331 243.416C180.544 243.527 180.729 243.647 180.905 243.776C182.588 242.509 182.394 240.724 180.331 239.624ZM280.537 293.389L241.524 272.468C239.267 271.256 235.651 271.311 233.44 272.588L216.265 282.503C214.239 283.678 214.119 285.407 215.867 286.554C215.987 286.462 216.126 286.378 216.265 286.295L233.44 276.38C235.651 275.104 239.267 275.048 241.524 276.25L280.537 297.181C280.75 297.292 280.935 297.413 281.111 297.542C282.794 296.275 282.6 294.49 280.537 293.389ZM309.709 276.417L272.981 254.422C270.789 253.118 267.218 253.081 265.008 254.367L247.767 264.319C245.769 265.475 245.594 267.251 247.231 268.472C247.388 268.342 247.573 268.222 247.767 268.111L265.008 258.15C267.218 256.873 270.789 256.901 272.981 258.214L309.709 280.209C309.941 280.348 310.144 280.487 310.32 280.644C311.864 279.367 311.661 277.573 309.709 276.417ZM214.803 219.599L183.652 200.953C181.46 199.639 177.89 199.611 175.679 200.888L154.433 213.152C152.436 214.308 152.26 216.075 153.897 217.305C154.054 217.176 154.239 217.055 154.433 216.944L175.679 204.68C177.89 203.404 181.46 203.431 183.652 204.745L214.803 223.391C215.034 223.53 215.238 223.669 215.414 223.835C216.958 222.559 216.755 220.764 214.803 219.599ZM249.478 199.445L220.353 179.892C218.234 178.468 214.72 178.347 212.509 179.624L191.033 192.027C189.053 193.165 188.813 194.968 190.339 196.3C190.542 196.124 190.774 195.958 191.033 195.81L212.509 183.416C214.72 182.14 218.234 182.26 220.353 183.684L249.478 203.237C249.719 203.394 249.922 203.561 250.107 203.746C251.513 202.46 251.31 200.666 249.478 199.445ZM259.458 246.329L228.316 227.692C226.124 226.379 222.554 226.351 220.343 227.627L201.096 238.736C199.098 239.892 198.931 241.668 200.569 242.888C200.726 242.759 200.901 242.639 201.096 242.528L220.343 231.42C222.554 230.143 226.124 230.171 228.316 231.475L259.458 250.121C259.69 250.26 259.893 250.399 260.069 250.565C261.613 249.298 261.41 247.504 259.458 246.329ZM291.553 227.683L262.418 208.13C260.3 206.706 256.785 206.585 254.575 207.862L235.188 219.053C233.209 220.191 232.969 222.004 234.504 223.326C234.698 223.151 234.929 222.993 235.188 222.845L254.575 211.654C256.785 210.378 260.3 210.498 262.418 211.913L291.553 231.466C291.794 231.623 291.997 231.799 292.182 231.984C293.579 230.698 293.375 228.904 291.553 227.683Z" fill="#C68F6A"/>
<path opacity="0.3" d="M153.897 217.305C154.054 217.176 154.239 217.055 154.433 216.944L175.679 204.68C177.889 203.404 181.46 203.431 183.652 204.745L214.803 223.391C215.034 223.53 215.238 223.669 215.414 223.835C216.958 222.559 216.755 220.764 214.803 219.599L183.652 200.953C181.46 199.639 177.889 199.611 175.679 200.888L154.433 213.152C152.436 214.308 152.26 216.075 153.897 217.305ZM228.316 227.692C226.124 226.379 222.554 226.351 220.343 227.627L201.096 238.736C199.098 239.892 198.931 241.668 200.569 242.889C200.726 242.759 200.901 242.639 201.096 242.528L220.343 231.42C222.554 230.143 226.124 230.171 228.316 231.475L259.458 250.121C259.689 250.26 259.893 250.399 260.069 250.565C261.614 249.298 261.41 247.504 259.458 246.329L228.316 227.692ZM191.032 195.81L212.509 183.416C214.72 182.14 218.234 182.26 220.353 183.684L249.478 203.237C249.719 203.394 249.922 203.561 250.107 203.746C251.513 202.46 251.31 200.666 249.478 199.445L220.353 179.892C218.234 178.468 214.72 178.347 212.509 179.624L191.032 192.027C189.053 193.165 188.813 194.968 190.339 196.3C190.542 196.124 190.774 195.958 191.032 195.81ZM234.504 223.326C234.698 223.151 234.929 222.993 235.188 222.845L254.575 211.654C256.785 210.378 260.3 210.498 262.418 211.913L291.553 231.466C291.793 231.623 291.997 231.799 292.182 231.984C293.579 230.698 293.375 228.904 291.553 227.683L262.418 208.13C260.3 206.706 256.785 206.585 254.575 207.862L235.188 219.053C233.209 220.191 232.969 222.004 234.504 223.326ZM309.709 276.417L272.981 254.422C270.789 253.118 267.218 253.081 265.008 254.367L247.767 264.319C245.769 265.475 245.594 267.251 247.231 268.472C247.388 268.342 247.573 268.222 247.767 268.111L265.008 258.15C267.218 256.873 270.789 256.901 272.981 258.214L309.709 280.209C309.941 280.348 310.144 280.487 310.32 280.644C311.864 279.367 311.661 277.573 309.709 276.417ZM338.881 259.445L304.493 236.359C302.365 234.943 298.86 234.823 296.64 236.1L279.335 246.089C277.365 247.226 277.124 249.03 278.65 250.362C278.845 250.186 279.076 250.029 279.335 249.881L296.64 239.892C298.86 238.615 302.365 238.726 304.493 240.151L338.881 263.237C339.122 263.394 339.325 263.57 339.51 263.755C340.907 262.469 340.703 260.675 338.881 259.445ZM180.905 243.776C182.588 242.509 182.394 240.724 180.331 239.624L147.219 221.856C144.962 220.644 141.346 220.709 139.135 221.985L118.112 234.12C116.095 235.286 115.975 237.015 117.714 238.162C117.834 238.079 117.973 237.996 118.112 237.912L139.135 225.777C141.346 224.492 144.962 224.436 147.219 225.648L180.331 243.416C180.544 243.527 180.729 243.647 180.905 243.776ZM280.537 293.389L241.524 272.467C239.267 271.256 235.651 271.311 233.44 272.588L216.264 282.503C214.239 283.678 214.119 285.407 215.867 286.554C215.987 286.462 216.126 286.378 216.264 286.295L233.44 276.38C235.651 275.104 239.267 275.048 241.524 276.25L280.537 297.181C280.75 297.292 280.935 297.413 281.111 297.542C282.794 296.275 282.6 294.49 280.537 293.389ZM228.066 269.082C229.759 267.806 229.556 266.021 227.493 264.92L194.372 247.152C192.124 245.95 188.508 246.005 186.297 247.282L167.188 258.316C165.163 259.482 165.052 261.211 166.79 262.358C166.911 262.275 167.05 262.192 167.188 262.108L186.297 251.074C188.508 249.798 192.124 249.742 194.372 250.945L227.493 268.712C227.706 268.823 227.891 268.944 228.066 269.082Z" fill="white"/>
<path d="M219.095 169.773L219.021 167.998L214.054 51.5316C213.536 51.4668 213.009 51.4298 212.482 51.4298C210.632 51.4298 208.893 51.8367 207.598 52.5859L93.5739 118.422C92.4177 119.078 92.1402 119.661 92.131 119.763L100.844 233.26L101.306 237.598C101.436 237.385 101.815 236.96 102.638 236.488L212.731 172.927C214.128 172.114 216.033 171.67 218.087 171.67C218.457 171.67 218.817 171.688 219.178 171.716L219.095 169.773ZM202.641 128.892L180.822 141.499C180.452 141.711 180.091 141.859 179.749 141.943C179.684 141.674 179.638 141.369 179.619 141.045L178.491 120.392C178.361 117.839 180.036 114.741 182.246 113.464L204.333 100.71C204.694 100.506 205.036 100.358 205.369 100.275C205.443 100.543 205.48 100.839 205.498 101.163L206.442 121.964C206.553 124.517 204.851 127.616 202.641 128.892ZM203.815 63.6018L204.749 84.4032C204.86 86.956 203.159 90.0638 200.948 91.3402L178.796 104.132C178.426 104.345 178.065 104.492 177.723 104.576C177.658 104.308 177.612 104.002 177.594 103.679L176.465 83.0251C176.336 80.4816 178.01 77.3739 180.221 76.0975L202.65 63.1486C203.001 62.9451 203.353 62.7971 203.686 62.7138C203.76 62.9821 203.797 63.278 203.815 63.6018ZM144.63 135.181L166.717 122.427C167.087 122.214 167.457 122.066 167.799 121.983C167.873 122.251 167.919 122.556 167.938 122.88L169.094 143.496C169.242 146.049 167.568 149.148 165.348 150.424L143.51 163.031C143.131 163.253 142.752 163.401 142.4 163.484C142.327 163.216 142.271 162.911 142.252 162.587L140.93 142.109C140.763 139.556 142.419 136.458 144.63 135.181ZM165.829 85.5594L166.994 106.176C167.133 108.729 165.459 111.836 163.248 113.113L141.106 125.895C140.726 126.117 140.356 126.265 139.996 126.339C139.922 126.071 139.866 125.775 139.848 125.451L138.516 104.964C138.349 102.421 140.005 99.313 142.225 98.0366L164.608 85.1155C164.978 84.9027 165.348 84.7547 165.69 84.6715C165.764 84.9397 165.81 85.2357 165.829 85.5594ZM107.022 156.899L129.1 144.144C129.479 143.922 129.859 143.774 130.219 143.691C130.293 143.968 130.349 144.264 130.367 144.597L131.736 165.038C131.903 167.591 130.247 170.689 128.036 171.966L106.181 184.591C105.792 184.813 105.413 184.97 105.043 185.044C104.96 184.766 104.913 184.47 104.886 184.147L103.359 163.817C103.165 161.273 104.812 158.175 107.022 156.899ZM127.879 107.498L129.248 127.949C129.424 130.492 127.768 133.591 125.558 134.876L103.415 147.649C103.027 147.871 102.638 148.029 102.277 148.103C102.194 147.834 102.148 147.529 102.12 147.205L100.594 126.885C100.4 124.341 102.046 121.243 104.257 119.957L126.612 107.055C127.001 106.833 127.37 106.675 127.731 106.592C127.805 106.87 127.861 107.166 127.879 107.498ZM107.642 221.079L106.125 200.758C105.931 198.206 107.577 195.107 109.788 193.831L131.588 181.243C131.967 181.021 132.337 180.873 132.698 180.799C132.772 181.067 132.828 181.363 132.846 181.686L134.215 202.136C134.391 204.689 132.735 207.788 130.525 209.064L108.946 221.523C108.548 221.745 108.169 221.902 107.799 221.976C107.716 221.699 107.67 221.403 107.642 221.079ZM144.666 199.732L143.335 179.245C143.168 176.701 144.833 173.593 147.043 172.317L168.825 159.747C169.195 159.535 169.556 159.387 169.898 159.313C169.972 159.581 170.019 159.877 170.037 160.191L171.203 180.817C171.341 183.361 169.667 186.468 167.457 187.745L145.924 200.176C145.545 200.398 145.175 200.546 144.815 200.629C144.74 200.351 144.685 200.055 144.666 199.732ZM181.645 178.412L180.517 157.749C180.387 155.206 182.061 152.098 184.272 150.822L206.026 138.261C206.377 138.058 206.729 137.91 207.062 137.827C207.136 138.095 207.173 138.391 207.191 138.715L208.135 159.516C208.246 162.069 206.544 165.177 204.333 166.453L182.847 178.856C182.477 179.069 182.117 179.217 181.774 179.291C181.7 179.023 181.663 178.727 181.645 178.412Z" fill="#C68F6A"/>
<path opacity="0.3" d="M219.095 169.773L219.021 167.998L214.054 51.5316C213.536 51.4668 213.009 51.4298 212.482 51.4298C210.632 51.4298 208.893 51.8367 207.598 52.5859L93.5739 118.422C92.4177 119.078 92.1402 119.661 92.131 119.763L100.844 233.26L101.306 237.598C101.436 237.385 101.815 236.96 102.638 236.488L212.731 172.927C214.128 172.114 216.033 171.67 218.087 171.67C218.457 171.67 218.817 171.688 219.178 171.716L219.095 169.773ZM202.641 128.892L180.822 141.499C180.452 141.711 180.091 141.859 179.749 141.943C179.684 141.674 179.638 141.369 179.619 141.045L178.491 120.392C178.361 117.839 180.036 114.741 182.246 113.464L204.333 100.71C204.694 100.506 205.036 100.358 205.369 100.275C205.443 100.543 205.48 100.839 205.498 101.163L206.442 121.964C206.553 124.517 204.851 127.616 202.641 128.892ZM203.815 63.6018L204.749 84.4032C204.86 86.956 203.159 90.0638 200.948 91.3402L178.796 104.132C178.426 104.345 178.065 104.492 177.723 104.576C177.658 104.308 177.612 104.002 177.594 103.679L176.465 83.0251C176.336 80.4816 178.01 77.3739 180.221 76.0975L202.65 63.1486C203.001 62.9451 203.353 62.7971 203.686 62.7138C203.76 62.9821 203.797 63.278 203.815 63.6018ZM144.63 135.181L166.717 122.427C167.087 122.214 167.457 122.066 167.799 121.983C167.873 122.251 167.919 122.556 167.938 122.88L169.094 143.496C169.242 146.049 167.568 149.148 165.348 150.424L143.51 163.031C143.131 163.253 142.752 163.401 142.4 163.484C142.327 163.216 142.271 162.911 142.252 162.587L140.93 142.109C140.763 139.556 142.419 136.458 144.63 135.181ZM165.829 85.5594L166.994 106.176C167.133 108.729 165.459 111.836 163.248 113.113L141.106 125.895C140.726 126.117 140.356 126.265 139.996 126.339C139.922 126.071 139.866 125.775 139.848 125.451L138.516 104.964C138.349 102.421 140.005 99.313 142.225 98.0366L164.608 85.1155C164.978 84.9027 165.348 84.7547 165.69 84.6715C165.764 84.9397 165.81 85.2357 165.829 85.5594ZM107.022 156.899L129.1 144.144C129.479 143.922 129.859 143.774 130.219 143.691C130.293 143.968 130.349 144.264 130.367 144.597L131.736 165.038C131.903 167.591 130.247 170.689 128.036 171.966L106.181 184.591C105.792 184.813 105.413 184.97 105.043 185.044C104.96 184.766 104.913 184.47 104.886 184.147L103.359 163.817C103.165 161.273 104.812 158.175 107.022 156.899ZM127.879 107.498L129.248 127.949C129.424 130.492 127.768 133.591 125.558 134.876L103.415 147.649C103.027 147.871 102.638 148.029 102.277 148.103C102.194 147.834 102.148 147.529 102.12 147.205L100.594 126.885C100.4 124.341 102.046 121.243 104.257 119.957L126.612 107.055C127.001 106.833 127.37 106.675 127.731 106.592C127.805 106.87 127.861 107.166 127.879 107.498ZM107.642 221.079L106.125 200.758C105.931 198.206 107.577 195.107 109.788 193.831L131.588 181.243C131.967 181.021 132.337 180.873 132.698 180.799C132.772 181.067 132.828 181.363 132.846 181.686L134.215 202.136C134.391 204.689 132.735 207.788 130.525 209.064L108.946 221.523C108.548 221.745 108.169 221.902 107.799 221.976C107.716 221.699 107.67 221.403 107.642 221.079ZM144.666 199.732L143.335 179.245C143.168 176.701 144.833 173.593 147.043 172.317L168.825 159.747C169.195 159.535 169.556 159.387 169.898 159.313C169.972 159.581 170.019 159.877 170.037 160.191L171.203 180.817C171.341 183.361 169.667 186.468 167.457 187.745L145.924 200.176C145.545 200.398 145.175 200.546 144.815 200.629C144.74 200.351 144.685 200.055 144.666 199.732ZM181.645 178.412L180.517 157.749C180.387 155.206 182.061 152.098 184.272 150.822L206.026 138.261C206.377 138.058 206.729 137.91 207.062 137.827C207.136 138.095 207.173 138.391 207.191 138.715L208.135 159.516C208.246 162.069 206.544 165.177 204.333 166.453L182.847 178.856C182.477 179.069 182.117 179.217 181.774 179.291C181.7 179.023 181.663 178.727 181.645 178.412Z" fill="white"/>
<path d="M173.089 162.05C172.969 159.923 171.619 158.859 169.898 159.313C169.972 159.581 170.019 159.877 170.037 160.191L171.203 180.817C171.341 183.361 169.667 186.468 167.457 187.745L145.924 200.176C145.545 200.398 145.175 200.546 144.815 200.629C145.333 202.497 147.043 203.145 148.977 202.035L170.509 189.604C172.719 188.318 174.393 185.22 174.246 182.667L173.089 162.05ZM208.551 103.013C208.458 100.867 207.117 99.8032 205.369 100.275C205.443 100.543 205.48 100.839 205.498 101.163L206.442 121.964C206.553 124.517 204.851 127.616 202.641 128.892L180.822 141.499C180.452 141.711 180.091 141.859 179.749 141.943C180.239 143.82 181.941 144.458 183.874 143.348L205.693 130.751C207.903 129.475 209.605 126.376 209.485 123.823L208.551 103.013ZM170.981 124.73C170.869 122.612 169.528 121.548 167.799 121.983C167.873 122.251 167.919 122.556 167.938 122.88L169.094 143.496C169.242 146.049 167.568 149.148 165.348 150.424L143.51 163.031C143.131 163.253 142.752 163.401 142.4 163.484C142.918 165.362 144.63 166 146.563 164.89L168.4 152.283C170.61 151.007 172.285 147.899 172.146 145.356L170.981 124.73ZM206.858 65.4609C206.766 63.3243 205.425 62.2421 203.686 62.7138C203.76 62.9821 203.797 63.278 203.815 63.6018L204.749 84.4032C204.86 86.956 203.159 90.0638 200.948 91.3402L178.796 104.132C178.426 104.345 178.065 104.492 177.723 104.576C178.213 106.453 179.915 107.101 181.848 105.991L204 93.1993C206.211 91.9229 207.913 88.8151 207.792 86.2623L206.858 65.4609ZM168.872 87.4185C168.761 85.2912 167.41 84.2275 165.69 84.6715C165.764 84.9397 165.81 85.2357 165.829 85.5594L166.994 106.176C167.133 108.729 165.459 111.836 163.248 113.113L141.106 125.895C140.726 126.117 140.356 126.265 139.996 126.339C140.504 128.217 142.215 128.873 144.149 127.754L166.291 114.963C168.511 113.686 170.185 110.588 170.037 108.035L168.872 87.4185ZM130.931 109.348C130.784 107.249 129.442 106.176 127.731 106.592C127.805 106.87 127.861 107.166 127.879 107.498L129.248 127.949C129.424 130.492 127.768 133.591 125.558 134.876L103.415 147.649C103.027 147.871 102.638 148.029 102.277 148.103C102.805 149.98 104.534 150.618 106.467 149.508L128.601 136.726C130.811 135.45 132.467 132.351 132.3 129.798L130.931 109.348ZM210.243 140.574C210.142 138.437 208.801 137.355 207.062 137.827C207.136 138.095 207.173 138.391 207.191 138.715L208.135 159.516C208.246 162.069 206.544 165.177 204.333 166.453L182.847 178.856C182.477 179.069 182.117 179.217 181.774 179.291C182.255 181.178 183.957 181.834 185.899 180.715L207.385 168.312C209.596 167.036 211.298 163.928 211.178 161.375L210.243 140.574ZM135.898 183.546C135.759 181.437 134.409 180.373 132.698 180.799C132.772 181.067 132.828 181.363 132.846 181.686L134.215 202.136C134.391 204.689 132.735 207.788 130.525 209.064L108.946 221.523C108.548 221.745 108.169 221.902 107.799 221.976C108.336 223.844 110.065 224.492 111.998 223.382L133.567 210.923C135.787 209.647 137.434 206.548 137.267 203.996L135.898 183.546ZM133.41 146.447C133.272 144.347 131.93 143.274 130.219 143.691C130.293 143.968 130.349 144.264 130.367 144.597L131.736 165.038C131.903 167.591 130.247 170.689 128.036 171.966L106.181 184.591C105.792 184.813 105.413 184.97 105.043 185.044C105.57 186.912 107.3 187.55 109.233 186.441L131.089 173.825C133.299 172.548 134.955 169.45 134.779 166.897L133.41 146.447Z" fill="#C68F6A"/>
<path d="M362.597 163.965L218.837 53.3259C217.634 52.401 215.914 51.7628 214.055 51.5316L219.096 169.718L219.179 171.716C221.084 171.892 222.869 172.354 224.414 173.381L352.525 261.424L364.003 166.129V166.065C364.003 165.426 363.494 164.64 362.597 163.965ZM306.778 184.359C306.769 184.48 306.76 184.6 306.741 184.711C306.593 184.628 306.445 184.535 306.297 184.424L275.738 162.439C273.666 160.95 272.038 157.666 272.103 155.113L272.584 136.846C272.584 136.782 272.584 136.717 272.593 136.661C272.676 136.717 272.75 136.772 272.833 136.828L304.558 160.312C306.612 161.838 308.129 165.13 307.953 167.683L306.778 184.359ZM351.054 216.565C350.851 216.463 350.647 216.334 350.434 216.186L320.125 194.376C318.053 192.878 316.527 189.604 316.73 187.06L317.988 170.615C317.997 170.513 318.007 170.412 318.025 170.319C318.173 170.402 318.321 170.504 318.469 170.615L349.658 193.701C351.711 195.227 353.144 198.511 352.848 201.054L351.119 216.149C351.1 216.297 351.082 216.436 351.054 216.565ZM320.883 138.622L353.172 163.318C355.198 164.871 356.604 168.183 356.317 170.726L354.597 185.793C354.587 185.913 354.569 186.034 354.541 186.145C354.347 186.043 354.153 185.923 353.958 185.775L322.539 162.356C320.495 160.829 318.996 157.527 319.191 154.984L320.448 138.576C320.458 138.493 320.458 138.419 320.467 138.345C320.606 138.419 320.744 138.52 320.883 138.622ZM273.685 102.522L306.861 127.902C308.896 129.456 310.395 132.777 310.21 135.329L309.044 151.978C309.035 152.07 309.026 152.163 309.016 152.255C308.878 152.172 308.748 152.08 308.609 151.978L276.589 128.115C274.545 126.589 272.935 123.278 273.009 120.725L273.481 102.485C273.481 102.448 273.481 102.411 273.49 102.384C273.555 102.43 273.62 102.476 273.685 102.522ZM262.104 152.366C262.104 152.45 262.104 152.524 262.095 152.598C262.012 152.551 261.938 152.496 261.864 152.44L230.953 130.196C228.881 128.698 227.133 125.423 227.05 122.871L226.365 102.43L258.812 126.45C260.865 127.967 262.493 131.269 262.447 133.822L262.104 152.366ZM259.487 91.6731C261.522 93.2177 263.122 96.5475 263.076 99.1003L262.743 117.636V117.774C262.678 117.737 262.604 117.682 262.539 117.636L229.677 93.1438C227.623 91.6176 225.894 88.3064 225.811 85.7537L225.135 65.3869L259.487 91.6731ZM261.18 187.264L232.239 167.211C230.139 165.759 228.363 162.513 228.28 159.96L227.605 139.529V139.445C227.614 139.445 227.614 139.455 227.623 139.455L258.137 161.255C260.218 162.744 261.864 166.018 261.818 168.571L261.475 187.125C261.475 187.236 261.466 187.338 261.457 187.439C261.364 187.384 261.272 187.328 261.18 187.264ZM303.985 216.917L274.887 196.763C272.787 195.311 271.141 192.055 271.206 189.502L271.687 171.226C271.687 171.133 271.696 171.05 271.705 170.957C271.798 171.022 271.881 171.078 271.973 171.142L302.246 192.767C304.318 194.256 305.863 197.521 305.687 200.074L304.512 216.787C304.503 216.935 304.484 217.074 304.466 217.203C304.309 217.129 304.142 217.028 303.985 216.917ZM346.901 246.653L317.711 226.425C315.611 224.973 314.067 221.726 314.261 219.183L315.509 202.691C315.519 202.562 315.537 202.432 315.556 202.312C315.713 202.405 315.87 202.506 316.027 202.617L346.133 224.131C348.215 225.611 349.667 228.876 349.371 231.41L347.641 246.542C347.623 246.718 347.595 246.875 347.558 247.032C347.345 246.93 347.123 246.81 346.901 246.653Z" fill="#C68F6A"/>
<path opacity="0.5" d="M362.597 163.965L218.837 53.3259C217.634 52.401 215.914 51.7628 214.055 51.5316L219.096 169.718L219.179 171.716C221.084 171.892 222.869 172.354 224.414 173.381L352.525 261.424L364.003 166.129V166.065C364.003 165.426 363.494 164.64 362.597 163.965ZM306.778 184.359C306.769 184.48 306.76 184.6 306.741 184.711C306.593 184.628 306.445 184.535 306.297 184.424L275.738 162.439C273.666 160.95 272.038 157.666 272.103 155.113L272.584 136.846C272.584 136.782 272.584 136.717 272.593 136.661C272.676 136.717 272.75 136.772 272.833 136.828L304.558 160.312C306.612 161.838 308.129 165.13 307.953 167.683L306.778 184.359ZM351.054 216.565C350.851 216.463 350.647 216.334 350.434 216.186L320.125 194.376C318.053 192.878 316.527 189.604 316.73 187.06L317.988 170.615C317.997 170.513 318.007 170.412 318.025 170.319C318.173 170.402 318.321 170.504 318.469 170.615L349.658 193.701C351.711 195.227 353.144 198.511 352.848 201.054L351.119 216.149C351.1 216.297 351.082 216.436 351.054 216.565ZM320.883 138.622L353.172 163.318C355.198 164.871 356.604 168.183 356.317 170.726L354.597 185.793C354.587 185.913 354.569 186.034 354.541 186.145C354.347 186.043 354.153 185.923 353.958 185.775L322.539 162.356C320.495 160.829 318.996 157.527 319.191 154.984L320.448 138.576C320.458 138.493 320.458 138.419 320.467 138.345C320.606 138.419 320.744 138.52 320.883 138.622ZM273.685 102.522L306.861 127.902C308.896 129.456 310.395 132.777 310.21 135.329L309.044 151.978C309.035 152.07 309.026 152.163 309.016 152.255C308.878 152.172 308.748 152.08 308.609 151.978L276.589 128.115C274.545 126.589 272.935 123.278 273.009 120.725L273.481 102.485C273.481 102.448 273.481 102.411 273.49 102.384C273.555 102.43 273.62 102.476 273.685 102.522ZM262.104 152.366C262.104 152.45 262.104 152.524 262.095 152.598C262.012 152.551 261.938 152.496 261.864 152.44L230.953 130.196C228.881 128.698 227.133 125.423 227.05 122.871L226.365 102.43L258.812 126.45C260.865 127.967 262.493 131.269 262.447 133.822L262.104 152.366ZM259.487 91.6731C261.522 93.2177 263.122 96.5475 263.076 99.1003L262.743 117.636V117.774C262.678 117.737 262.604 117.682 262.539 117.636L229.677 93.1438C227.623 91.6176 225.894 88.3064 225.811 85.7537L225.135 65.3869L259.487 91.6731ZM261.18 187.264L232.239 167.211C230.139 165.759 228.363 162.513 228.28 159.96L227.605 139.529V139.445C227.614 139.445 227.614 139.455 227.623 139.455L258.137 161.255C260.218 162.744 261.864 166.018 261.818 168.571L261.475 187.125C261.475 187.236 261.466 187.338 261.457 187.439C261.364 187.384 261.272 187.328 261.18 187.264ZM303.985 216.917L274.887 196.763C272.787 195.311 271.141 192.055 271.206 189.502L271.687 171.226C271.687 171.133 271.696 171.05 271.705 170.957C271.798 171.022 271.881 171.078 271.973 171.142L302.246 192.767C304.318 194.256 305.863 197.521 305.687 200.074L304.512 216.787C304.503 216.935 304.484 217.074 304.466 217.203C304.309 217.129 304.142 217.028 303.985 216.917ZM346.901 246.653L317.711 226.425C315.611 224.973 314.067 221.726 314.261 219.183L315.509 202.691C315.519 202.562 315.537 202.432 315.556 202.312C315.713 202.405 315.87 202.506 316.027 202.617L346.133 224.131C348.215 225.611 349.667 228.876 349.371 231.41L347.641 246.542C347.623 246.718 347.595 246.875 347.558 247.032C347.345 246.93 347.123 246.81 346.901 246.653Z" fill="white"/>
<path d="M229.678 93.1437C227.624 91.6175 225.895 88.3063 225.812 85.7536L225.136 65.3868L225.062 65.3313C223.028 63.7867 221.455 64.5913 221.538 67.1441L222.223 87.6126C222.306 90.1654 224.036 93.4674 226.08 94.9935L258.951 119.495C260.959 120.993 262.633 120.216 262.744 117.774C262.679 117.737 262.605 117.682 262.54 117.636L229.678 93.1437ZM230.954 130.196C228.882 128.698 227.134 125.423 227.051 122.871L226.366 102.43L226.339 102.411C224.285 100.885 222.694 101.727 222.778 104.28L223.453 124.721C223.546 127.273 225.294 130.557 227.365 132.046L258.276 154.29C260.283 155.742 261.957 154.975 262.096 152.598C262.013 152.551 261.939 152.496 261.865 152.44L230.954 130.196ZM274.888 196.763C272.788 195.311 271.142 192.055 271.207 189.502L271.688 171.226C271.688 171.133 271.697 171.05 271.706 170.957C269.755 169.736 268.164 170.634 268.099 173.085L267.618 191.361C267.553 193.914 269.2 197.16 271.299 198.613L300.388 218.767C302.367 220.145 304.125 219.432 304.467 217.203C304.31 217.129 304.143 217.028 303.986 216.917L274.888 196.763ZM232.24 167.211C230.14 165.759 228.364 162.513 228.281 159.96L227.606 139.529V139.445C225.534 137.975 223.925 138.844 224.008 141.388L224.692 161.81C224.776 164.363 226.542 167.609 228.642 169.061L257.592 189.114C259.599 190.51 261.282 189.752 261.458 187.439C261.365 187.384 261.273 187.328 261.181 187.264L232.24 167.211ZM353.959 185.775L322.54 162.356C320.496 160.829 318.997 157.527 319.192 154.984L320.449 138.576C320.459 138.493 320.459 138.419 320.468 138.345C318.618 137.198 317.046 138.058 316.861 140.426L315.594 156.834C315.399 159.387 316.907 162.689 318.951 164.215L350.361 187.624C352.313 189.077 354.126 188.411 354.542 186.145C354.348 186.043 354.154 185.923 353.959 185.775ZM275.739 162.439C273.667 160.95 272.039 157.666 272.104 155.113L272.585 136.846C272.585 136.782 272.585 136.717 272.594 136.661C270.652 135.376 269.061 136.245 268.996 138.696L268.515 156.973C268.45 159.525 270.078 162.8 272.15 164.289L302.709 186.274C304.679 187.689 306.428 186.986 306.742 184.711C306.594 184.628 306.446 184.535 306.298 184.424L275.739 162.439ZM320.126 194.376C318.054 192.878 316.528 189.604 316.731 187.06L317.989 170.615C317.998 170.513 318.008 170.412 318.026 170.319C316.158 169.219 314.576 170.106 314.401 172.474L313.133 188.91C312.939 191.463 314.465 194.737 316.537 196.226L346.847 218.045C348.798 219.451 350.611 218.776 351.055 216.565C350.852 216.463 350.648 216.334 350.435 216.186L320.126 194.376ZM317.712 226.425C315.612 224.973 314.068 221.726 314.262 219.183L315.51 202.691C315.52 202.562 315.538 202.432 315.557 202.312C313.679 201.276 312.097 202.192 311.922 204.541L310.664 221.033C310.47 223.585 312.014 226.823 314.114 228.284L343.313 248.503C345.274 249.862 347.087 249.196 347.559 247.032C347.346 246.93 347.124 246.81 346.902 246.653L317.712 226.425ZM276.59 128.115C274.546 126.589 272.936 123.278 273.01 120.725L273.482 102.485C273.482 102.448 273.482 102.411 273.491 102.384C271.549 101.033 269.958 101.866 269.893 104.335L269.412 122.575C269.347 125.127 270.957 128.439 273.001 129.965L305.022 153.828C306.992 155.298 308.731 154.586 309.017 152.255C308.879 152.172 308.749 152.08 308.61 151.978L276.59 128.115Z" fill="#C68F6A"/>
<path opacity="0.2" d="M229.678 93.1437C227.624 91.6175 225.895 88.3063 225.812 85.7536L225.136 65.3868L225.062 65.3313C223.028 63.7867 221.455 64.5913 221.538 67.1441L222.223 87.6126C222.306 90.1654 224.036 93.4674 226.08 94.9935L258.951 119.495C260.959 120.993 262.633 120.216 262.744 117.774C262.679 117.737 262.605 117.682 262.54 117.636L229.678 93.1437ZM230.954 130.196C228.882 128.698 227.134 125.423 227.051 122.871L226.366 102.43L226.339 102.411C224.285 100.885 222.694 101.727 222.778 104.28L223.453 124.721C223.546 127.273 225.294 130.557 227.365 132.046L258.276 154.29C260.283 155.742 261.957 154.975 262.096 152.598C262.013 152.551 261.939 152.496 261.865 152.44L230.954 130.196ZM274.888 196.763C272.788 195.311 271.142 192.055 271.207 189.502L271.688 171.226C271.688 171.133 271.697 171.05 271.706 170.957C269.755 169.736 268.164 170.634 268.099 173.085L267.618 191.361C267.553 193.914 269.2 197.16 271.299 198.613L300.388 218.767C302.367 220.145 304.125 219.432 304.467 217.203C304.31 217.129 304.143 217.028 303.986 216.917L274.888 196.763ZM232.24 167.211C230.14 165.759 228.364 162.513 228.281 159.96L227.606 139.529V139.445C225.534 137.975 223.925 138.844 224.008 141.388L224.692 161.81C224.776 164.363 226.542 167.609 228.642 169.061L257.592 189.114C259.599 190.51 261.282 189.752 261.458 187.439C261.365 187.384 261.273 187.328 261.181 187.264L232.24 167.211ZM353.959 185.775L322.54 162.356C320.496 160.829 318.997 157.527 319.192 154.984L320.449 138.576C320.459 138.493 320.459 138.419 320.468 138.345C318.618 137.198 317.046 138.058 316.861 140.426L315.594 156.834C315.399 159.387 316.907 162.689 318.951 164.215L350.361 187.624C352.313 189.077 354.126 188.411 354.542 186.145C354.348 186.043 354.154 185.923 353.959 185.775ZM275.739 162.439C273.667 160.95 272.039 157.666 272.104 155.113L272.585 136.846C272.585 136.782 272.585 136.717 272.594 136.661C270.652 135.376 269.061 136.245 268.996 138.696L268.515 156.973C268.45 159.525 270.078 162.8 272.15 164.289L302.709 186.274C304.679 187.689 306.428 186.986 306.742 184.711C306.594 184.628 306.446 184.535 306.298 184.424L275.739 162.439ZM320.126 194.376C318.054 192.878 316.528 189.604 316.731 187.06L317.989 170.615C317.998 170.513 318.008 170.412 318.026 170.319C316.158 169.219 314.576 170.106 314.401 172.474L313.133 188.91C312.939 191.463 314.465 194.737 316.537 196.226L346.847 218.045C348.798 219.451 350.611 218.776 351.055 216.565C350.852 216.463 350.648 216.334 350.435 216.186L320.126 194.376ZM317.712 226.425C315.612 224.973 314.068 221.726 314.262 219.183L315.51 202.691C315.52 202.562 315.538 202.432 315.557 202.312C313.679 201.276 312.097 202.192 311.922 204.541L310.664 221.033C310.47 223.585 312.014 226.823 314.114 228.284L343.313 248.503C345.274 249.862 347.087 249.196 347.559 247.032C347.346 246.93 347.124 246.81 346.902 246.653L317.712 226.425ZM276.59 128.115C274.546 126.589 272.936 123.278 273.01 120.725L273.482 102.485C273.482 102.448 273.482 102.411 273.491 102.384C271.549 101.033 269.958 101.866 269.893 104.335L269.412 122.575C269.347 125.127 270.957 128.439 273.001 129.965L305.022 153.828C306.992 155.298 308.731 154.586 309.017 152.255C308.879 152.172 308.749 152.08 308.61 151.978L276.59 128.115Z" fill="white"/>
<path d="M364.853 161.033L221.093 50.3939C217.041 47.2769 210.179 46.8237 205.748 49.3765L91.7241 115.212C89.528 116.48 88.4296 118.125 88.4277 119.763H92.131C92.1403 119.661 92.4177 119.079 93.5739 118.422L207.598 52.5859C208.893 51.8367 210.632 51.4298 212.482 51.4298C214.914 51.4298 217.291 52.142 218.836 53.3259L362.597 163.965C363.521 164.668 364.04 165.482 364.002 166.129H367.703C367.733 164.348 366.791 162.52 364.853 161.033Z" fill="#C68F6A"/>
<path opacity="0.7" d="M364.853 161.033L221.093 50.3939C217.041 47.2769 210.179 46.8237 205.748 49.3765L91.7241 115.212C89.528 116.48 88.4296 118.125 88.4277 119.763H92.131C92.1403 119.661 92.4177 119.079 93.5739 118.422L207.598 52.5859C208.893 51.8367 210.632 51.4298 212.482 51.4298C214.914 51.4298 217.291 52.142 218.836 53.3259L362.597 163.965C363.521 164.668 364.04 165.482 364.002 166.129H367.703C367.733 164.348 366.791 162.52 364.853 161.033Z" fill="white"/>
<path d="M223.058 272.852L146.502 206.805L163.439 117.666L161.824 116.275L166.641 90.924L244.821 158.309L223.058 272.852Z" fill="#C68F6A"/>
<path opacity="0.1" d="M223.058 272.852L146.502 206.805L163.439 117.666L161.824 116.275L166.641 90.924L244.821 158.309L223.058 272.852Z" fill="#C68F6A"/>
<path opacity="0.15" d="M240.001 183.66L210.692 158.396L163.439 117.666L162.746 121.311L239.311 187.295L240.001 183.66Z" fill="black"/>
<path opacity="0.1" d="M240.001 183.66L163.439 117.666L146.502 206.805L223.056 272.852L240.001 183.66Z" fill="black"/>
<path d="M223.057 272.852L317.961 239.759L334.916 150.523L337.45 149.644L342.267 124.293L244.821 158.309L223.057 272.852Z" fill="#C68F6A"/>
<path opacity="0.25" d="M223.057 272.852L317.961 239.759L334.916 150.523L337.45 149.644L342.267 124.293L244.821 158.309L223.057 272.852Z" fill="black"/>
<path opacity="0.2" d="M334.927 150.525L240.001 183.66L239.311 187.295L334.227 154.213L334.927 150.525Z" fill="black"/>
<path d="M342.266 124.293L264.087 56.9107L166.641 90.924L244.82 158.309L342.266 124.293Z" fill="#C68F6A"/>
<path d="M262.629 259.053L284.395 144.494L300.226 138.968L278.458 253.534L262.629 259.053Z" fill="#EBEBEB"/>
<path d="M191.303 245.501L213.07 130.942L200.369 119.995L178.602 234.561L191.303 245.501Z" fill="#E0E0E0"/>
<path opacity="0.1" d="M191.303 245.501L213.07 130.942L200.369 119.995L178.602 234.561L191.303 245.501Z" fill="black"/>
<path d="M300.226 138.969L222.045 71.5853L206.215 77.111L284.396 144.494L300.226 138.969Z" fill="#FAFAFA"/>
<path opacity="0.25" d="M253.685 118.025L269.516 112.499L256.814 101.552L240.984 107.078L253.685 118.025Z" fill="black"/>
<path d="M213.07 130.942L310.516 96.9269L297.815 85.9802L200.369 119.995L213.07 130.942Z" fill="#FAFAFA"/>
<path d="M252.805 116.871L252.085 155.773L241.828 209.756L258.942 195.89L267.593 150.36L256.897 111.655L252.805 116.871Z" fill="#FAFAFA"/>
<path d="M256.852 114.283L311.967 128.375L324.421 117.604L257.914 108.931L256.852 114.283Z" fill="#EBEBEB"/>
<path d="M208.625 77.2415C208.625 77.2415 209.028 91.3953 223.425 100.096C237.823 108.796 255.675 114.029 255.675 114.029L229.666 63.8216L208.625 77.2415Z" fill="#E0E0E0"/>
<path opacity="0.1" d="M208.625 77.2415C208.625 77.2415 209.028 91.3953 223.425 100.096C237.823 108.796 255.675 114.029 255.675 114.029L229.666 63.8216L208.625 77.2415Z" fill="black"/>
<path d="M255.675 114.029C255.675 114.029 259.014 100.866 254.407 89.3266C249.799 77.7874 229.666 63.8216 229.666 63.8216C221.804 67.4457 214.919 72.0481 208.625 77.2415C208.625 77.2415 238.107 83.5723 252.803 112.902L255.675 114.029Z" fill="#EBEBEB"/>
<path d="M226.338 84.763C230.833 87.4313 235.679 90.9606 240.305 95.5956L253.468 87.3477C250.813 82.3504 245.737 77.0978 240.939 72.8163L226.338 84.763Z" fill="#FAFAFA"/>
<path d="M255.674 114.029C255.674 114.029 249.87 121.596 238.073 124.387C226.276 127.178 208.529 122.933 208.529 122.933L211.836 100.12C211.836 100.12 215.293 111.22 228.346 114.351C241.507 117.507 251.93 111.183 251.93 111.183L255.674 114.029Z" fill="#E0E0E0"/>
<path opacity="0.1" d="M255.674 114.029C255.674 114.029 249.87 121.596 238.073 124.387C226.276 127.178 208.529 122.933 208.529 122.933L211.836 100.12C211.836 100.12 215.293 111.22 228.346 114.351C241.507 117.507 251.93 111.183 251.93 111.183L255.674 114.029Z" fill="black"/>
<path d="M255.674 114.029C247.069 100.182 236.887 96.7567 226.878 96.8573C215.807 96.9691 211.836 100.12 211.836 100.12L208.529 122.933C208.529 122.933 216.615 113.233 232.877 111.696C249.139 110.159 255.674 114.029 255.674 114.029Z" fill="#EBEBEB"/>
<path d="M217.826 97.8233C219.585 102.12 222.345 109.114 224.083 113.541C226.709 112.707 229.58 112.008 232.877 111.696C236.13 111.389 238.891 111.338 241.392 111.389L234.319 97.5405C231.846 97.0281 229.357 96.8327 226.879 96.8574C223.031 96.896 220.09 97.3103 217.826 97.8233Z" fill="#FAFAFA"/>
<path d="M255.609 111.391C255.609 111.391 271.758 112.642 285.206 103.442C298.654 94.2428 304.59 78.5286 304.59 78.5286L287.613 61.7621C287.613 61.7621 290.211 77.5969 277.292 91.4595C267.59 101.87 257.303 102.155 257.303 102.155L255.609 111.391Z" fill="#E0E0E0"/>
<path opacity="0.1" d="M255.609 111.391C255.609 111.391 271.758 112.642 285.206 103.442C298.654 94.2428 304.59 78.5286 304.59 78.5286L287.613 61.7621C287.613 61.7621 290.211 77.5969 277.292 91.4595C267.59 101.87 257.303 102.155 257.303 102.155L255.609 111.391Z" fill="black"/>
<path d="M255.609 111.391L258.633 111.436C258.633 111.436 264.035 94.8596 280.692 85.2763C298.009 75.3129 304.59 78.5286 304.59 78.5286C300.107 71.4417 294.073 66.3313 287.613 61.7621C287.613 61.7621 273.794 66.1784 266.13 75.0949C256.943 85.7831 255.065 104.199 255.609 111.391Z" fill="#EBEBEB"/>
<path d="M293.289 79.502L278.917 65.5352C277.979 66.0233 277.028 66.5354 276.043 67.1199L290.09 80.6575C291.23 80.2027 292.297 79.8184 293.289 79.502Z" fill="#FAFAFA"/>
<path d="M287.218 81.8917L273.203 68.9405C271.344 70.2123 269.521 71.646 267.874 73.2523C267.825 73.3 267.772 73.3442 267.724 73.3923C267.17 73.9397 266.636 74.5063 266.13 75.0951C265.833 75.4407 265.606 75.8552 265.324 76.2165L276.912 87.7043C278.104 86.8596 279.358 86.0437 280.692 85.2763C283.073 83.9064 285.232 82.8057 287.218 81.8917Z" fill="#FAFAFA"/>
<path d="M255.594 113.981C255.594 113.981 259.53 120.17 270.838 125.393C282.145 130.615 297.497 131.682 305.313 125.788L307.985 104.535C307.985 104.535 295.438 116.084 280.478 115.61C269.085 115.248 256.693 108.348 256.693 108.348L255.594 113.981Z" fill="#E0E0E0"/>
<path opacity="0.1" d="M255.594 113.981C255.594 113.981 259.53 120.17 270.838 125.393C282.145 130.615 297.497 131.682 305.313 125.788L307.985 104.535C307.985 104.535 295.438 116.084 280.478 115.61C269.085 115.248 256.693 108.348 256.693 108.348L255.594 113.981Z" fill="black"/>
<path d="M255.765 109.016C255.765 109.016 269.574 99.1851 282.332 99.6604C299.623 100.305 307.985 104.535 307.985 104.535C309.514 112.673 308.528 119.717 305.313 125.788C305.313 125.788 299.543 116.598 282.647 112.735C269.291 109.68 255.594 113.981 255.594 113.981L255.765 109.016Z" fill="#EBEBEB"/>
<path d="M302.28 122.433C300.066 120.422 296.551 117.823 291.373 115.606L291.987 100.5C297.639 101.249 301.783 102.328 304.446 103.175C305.151 109.46 303.958 117.705 302.28 122.433Z" fill="#FAFAFA"/>
<path d="M267.593 150.36L252.085 155.773L241.828 209.756L258.942 195.89L267.593 150.36Z" fill="#EBEBEB"/>
<path d="M264.13 219.895L91.7984 124.323C89.7821 123.204 88.6814 121.77 88.4688 120.281L97.5699 237.838C97.5699 237.875 97.5699 237.922 97.5791 237.959C97.7365 239.439 98.9111 240.872 101.103 241.927L253.521 315.523C255.917 316.679 259.043 317.16 262.123 316.993L272.51 221.708C269.494 221.782 266.442 221.181 264.13 219.895ZM216.765 198.603L261.753 223.41C263.991 224.649 265.591 227.711 265.342 230.245L263.51 248.457C263.473 248.817 263.399 249.15 263.297 249.446C263.029 249.372 262.742 249.252 262.465 249.104L219.179 226.055C216.922 224.853 215.174 221.819 215.275 219.266L216.043 199.204C216.052 198.89 216.099 198.594 216.163 198.326C216.358 198.4 216.561 198.492 216.765 198.603ZM204.158 253.164L162.879 232.169C160.603 231.013 158.707 228.007 158.661 225.454L158.189 203.33C158.18 203.015 158.208 202.719 158.254 202.451C158.393 202.516 158.532 202.58 158.679 202.654L201.633 225.38C203.89 226.573 205.656 229.616 205.573 232.169L204.926 252.424C204.916 252.785 204.861 253.118 204.778 253.423C204.574 253.359 204.371 253.266 204.158 253.164ZM262.114 262.229L260.273 280.422C260.236 280.81 260.153 281.162 260.032 281.476C259.755 281.402 259.468 281.291 259.181 281.143L217.902 260.157C215.627 259.001 213.86 255.985 213.962 253.442L214.73 233.39C214.739 233.047 214.785 232.733 214.868 232.446C215.072 232.511 215.275 232.603 215.488 232.714L258.488 255.467C260.754 256.661 262.373 259.685 262.114 262.229ZM157.838 166.102L202.77 190.889C205.009 192.12 206.757 195.19 206.674 197.743L206.026 217.999C206.017 218.332 205.971 218.646 205.906 218.933C205.703 218.868 205.499 218.776 205.295 218.665L162.055 195.644C159.799 194.45 157.93 191.407 157.875 188.855L157.394 166.712C157.384 166.425 157.403 166.157 157.44 165.907C157.57 165.963 157.699 166.028 157.838 166.102ZM149.134 225.186L107.855 204.19C105.58 203.034 103.582 200.028 103.397 197.484L101.64 173.27C101.621 172.992 101.621 172.733 101.64 172.493C101.713 172.52 101.797 172.557 101.88 172.604L144.843 195.338C147.099 196.531 148.986 199.565 149.051 202.118L149.634 224.436C149.643 224.779 149.615 225.093 149.56 225.38C149.421 225.324 149.282 225.259 149.134 225.186ZM99.0127 133.665L143.862 158.397C146.1 159.627 147.969 162.698 148.034 165.251L148.635 187.597C148.644 187.902 148.626 188.189 148.579 188.448C148.45 188.401 148.32 188.337 148.182 188.263L104.978 165.26C102.722 164.057 100.742 161.024 100.557 158.471L98.8 134.256C98.7815 134.007 98.7816 133.776 98.7909 133.554C98.8649 133.581 98.9387 133.627 99.0127 133.665ZM149.939 256.827L110.315 237.542C108.022 236.423 106.005 233.454 105.82 230.911L104.47 212.283C104.451 211.968 104.451 211.682 104.488 211.413C104.572 211.441 104.664 211.487 104.757 211.534L145.758 232.243C148.043 233.39 149.948 236.396 150.013 238.948L150.476 256.013C150.485 256.374 150.457 256.707 150.383 257.012C150.235 256.966 150.087 256.901 149.939 256.827ZM203.178 282.734L163.582 263.468C161.288 262.349 159.382 259.371 159.327 256.818L158.966 239.929C158.957 239.587 158.985 239.263 159.04 238.976C159.188 239.041 159.345 239.106 159.494 239.18L200.486 259.879C202.77 261.026 204.555 264.032 204.472 266.585L203.982 281.92C203.973 282.309 203.917 282.669 203.816 282.984C203.603 282.928 203.39 282.836 203.178 282.734ZM256.37 308.623L216.811 289.366C214.517 288.256 212.732 285.278 212.834 282.725L213.416 267.565C213.435 267.195 213.481 266.853 213.573 266.548C213.786 266.603 213.999 266.696 214.221 266.807L255.213 287.507C257.489 288.663 259.135 291.65 258.876 294.194L257.489 307.827C257.452 308.234 257.359 308.604 257.23 308.937C256.943 308.872 256.656 308.761 256.37 308.623Z" fill="#946B4F"/>
<path opacity="0.5" d="M264.13 219.895L91.7984 124.323C89.7821 123.204 88.6814 121.77 88.4688 120.281L97.5699 237.838C97.5699 237.875 97.5699 237.922 97.5791 237.959C97.7365 239.439 98.9111 240.872 101.103 241.927L253.521 315.523C255.917 316.679 259.043 317.16 262.123 316.993L272.51 221.708C269.494 221.782 266.442 221.181 264.13 219.895ZM216.765 198.603L261.753 223.41C263.991 224.649 265.591 227.711 265.342 230.245L263.51 248.457C263.473 248.817 263.399 249.15 263.297 249.446C263.029 249.372 262.742 249.252 262.465 249.104L219.179 226.055C216.922 224.853 215.174 221.819 215.275 219.266L216.043 199.204C216.052 198.89 216.099 198.594 216.163 198.326C216.358 198.4 216.561 198.492 216.765 198.603ZM204.158 253.164L162.879 232.169C160.603 231.013 158.707 228.007 158.661 225.454L158.189 203.33C158.18 203.015 158.208 202.719 158.254 202.451C158.393 202.516 158.532 202.58 158.679 202.654L201.633 225.38C203.89 226.573 205.656 229.616 205.573 232.169L204.926 252.424C204.916 252.785 204.861 253.118 204.778 253.423C204.574 253.359 204.371 253.266 204.158 253.164ZM262.114 262.229L260.273 280.422C260.236 280.81 260.153 281.162 260.032 281.476C259.755 281.402 259.468 281.291 259.181 281.143L217.902 260.157C215.627 259.001 213.86 255.985 213.962 253.442L214.73 233.39C214.739 233.047 214.785 232.733 214.868 232.446C215.072 232.511 215.275 232.603 215.488 232.714L258.488 255.467C260.754 256.661 262.373 259.685 262.114 262.229ZM157.838 166.102L202.77 190.889C205.009 192.12 206.757 195.19 206.674 197.743L206.026 217.999C206.017 218.332 205.971 218.646 205.906 218.933C205.703 218.868 205.499 218.776 205.295 218.665L162.055 195.644C159.799 194.45 157.93 191.407 157.875 188.855L157.394 166.712C157.384 166.425 157.403 166.157 157.44 165.907C157.57 165.963 157.699 166.028 157.838 166.102ZM149.134 225.186L107.855 204.19C105.58 203.034 103.582 200.028 103.397 197.484L101.64 173.27C101.621 172.992 101.621 172.733 101.64 172.493C101.713 172.52 101.797 172.557 101.88 172.604L144.843 195.338C147.099 196.531 148.986 199.565 149.051 202.118L149.634 224.436C149.643 224.779 149.615 225.093 149.56 225.38C149.421 225.324 149.282 225.259 149.134 225.186ZM99.0127 133.665L143.862 158.397C146.1 159.627 147.969 162.698 148.034 165.251L148.635 187.597C148.644 187.902 148.626 188.189 148.579 188.448C148.45 188.401 148.32 188.337 148.182 188.263L104.978 165.26C102.722 164.057 100.742 161.024 100.557 158.471L98.8 134.256C98.7815 134.007 98.7816 133.776 98.7909 133.554C98.8649 133.581 98.9387 133.627 99.0127 133.665ZM149.939 256.827L110.315 237.542C108.022 236.423 106.005 233.454 105.82 230.911L104.47 212.283C104.451 211.968 104.451 211.682 104.488 211.413C104.572 211.441 104.664 211.487 104.757 211.534L145.758 232.243C148.043 233.39 149.948 236.396 150.013 238.948L150.476 256.013C150.485 256.374 150.457 256.707 150.383 257.012C150.235 256.966 150.087 256.901 149.939 256.827ZM203.178 282.734L163.582 263.468C161.288 262.349 159.382 259.371 159.327 256.818L158.966 239.929C158.957 239.587 158.985 239.263 159.04 238.976C159.188 239.041 159.345 239.106 159.494 239.18L200.486 259.879C202.77 261.026 204.555 264.032 204.472 266.585L203.982 281.92C203.973 282.309 203.917 282.669 203.816 282.984C203.603 282.928 203.39 282.836 203.178 282.734ZM256.37 308.623L216.811 289.366C214.517 288.256 212.732 285.278 212.834 282.725L213.416 267.565C213.435 267.195 213.481 266.853 213.573 266.548C213.786 266.603 213.999 266.696 214.221 266.807L255.213 287.507C257.489 288.663 259.135 291.65 258.876 294.194L257.489 307.827C257.452 308.234 257.359 308.604 257.23 308.937C256.943 308.872 256.656 308.761 256.37 308.623Z" fill="#946B4F"/>
<path d="M256.37 308.623L216.811 289.366C214.517 288.256 212.732 285.278 212.834 282.725L213.417 267.565C213.435 267.195 213.481 266.853 213.574 266.548C211.585 265.891 210.004 267.038 209.911 269.341L209.328 284.51C209.236 287.063 211.012 290.032 213.315 291.151L252.865 310.408C254.798 311.342 256.574 310.676 257.23 308.937C256.943 308.872 256.657 308.761 256.37 308.623ZM262.465 249.104L219.179 226.055C216.922 224.852 215.174 221.819 215.276 219.266L216.043 199.204C216.053 198.89 216.099 198.594 216.164 198.326C214.203 197.576 212.631 198.668 212.538 200.989L211.77 221.051C211.669 223.595 213.417 226.638 215.673 227.84L258.96 250.889C260.893 251.916 262.669 251.259 263.298 249.446C263.029 249.372 262.743 249.252 262.465 249.104ZM259.182 281.143L217.903 260.157C215.627 259.001 213.861 255.985 213.962 253.442L214.73 233.389C214.739 233.047 214.785 232.733 214.869 232.446C212.89 231.734 211.317 232.862 211.225 235.175L210.457 255.218C210.355 257.77 212.122 260.776 214.397 261.942L255.686 282.928C257.619 283.909 259.385 283.252 260.033 281.476C259.755 281.402 259.468 281.291 259.182 281.143ZM204.158 253.164L162.879 232.169C160.604 231.012 158.708 228.006 158.661 225.454L158.19 203.33C158.18 203.015 158.208 202.719 158.254 202.451C156.201 201.609 154.638 202.728 154.684 205.115L155.156 227.239C155.211 229.792 157.098 232.798 159.373 233.954L200.653 254.949C202.604 255.939 204.288 255.255 204.778 253.423C204.574 253.359 204.371 253.266 204.158 253.164ZM205.296 218.665L162.056 195.643C159.799 194.45 157.931 191.407 157.875 188.854L157.394 166.712C157.385 166.425 157.403 166.157 157.44 165.907C155.396 165.01 153.833 166.101 153.889 168.497L154.37 190.63C154.425 193.183 156.303 196.226 158.55 197.429L201.8 220.45C203.751 221.495 205.435 220.801 205.906 218.933C205.703 218.868 205.499 218.776 205.296 218.665ZM149.135 225.185L107.855 204.19C105.58 203.034 103.582 200.028 103.397 197.484L101.64 173.27C101.621 172.992 101.621 172.733 101.64 172.493C99.5034 171.494 97.9586 172.604 98.1345 175.055L99.8918 199.269C100.077 201.813 102.075 204.819 104.35 205.975L145.629 226.961C147.599 227.969 149.209 227.248 149.56 225.38C149.421 225.324 149.283 225.259 149.135 225.185ZM203.178 282.734L163.582 263.468C161.288 262.349 159.383 259.371 159.327 256.818L158.967 239.929C158.957 239.586 158.985 239.263 159.04 238.976C156.978 238.181 155.406 239.327 155.461 241.714L155.822 258.603C155.877 261.156 157.783 264.134 160.076 265.253L199.672 284.519C201.615 285.472 203.298 284.778 203.816 282.984C203.603 282.928 203.391 282.836 203.178 282.734ZM148.182 188.263L104.979 165.26C102.722 164.057 100.743 161.024 100.558 158.471L98.8004 134.256C98.7819 134.007 98.7819 133.775 98.7912 133.553C96.6638 132.499 95.1192 133.572 95.2949 136.041L97.0522 160.256C97.2373 162.809 99.2166 165.842 101.473 167.045L144.677 190.048C146.665 191.102 148.274 190.381 148.58 188.448C148.45 188.401 148.321 188.337 148.182 188.263ZM149.939 256.827L110.316 237.542C108.022 236.423 106.006 233.454 105.82 230.911L104.47 212.283C104.452 211.968 104.452 211.682 104.489 211.413C102.352 210.479 100.789 211.617 100.965 214.059L102.324 232.696C102.509 235.239 104.516 238.208 106.81 239.327L146.434 258.612C148.413 259.574 150.022 258.853 150.383 257.012C150.235 256.966 150.087 256.901 149.939 256.827Z" fill="#946B4F"/>
<path opacity="0.2" d="M256.37 308.623L216.811 289.366C214.517 288.256 212.732 285.278 212.834 282.725L213.417 267.565C213.435 267.195 213.481 266.853 213.574 266.548C211.585 265.891 210.004 267.038 209.911 269.341L209.328 284.51C209.236 287.063 211.012 290.032 213.315 291.151L252.865 310.408C254.798 311.342 256.574 310.676 257.23 308.937C256.943 308.872 256.657 308.761 256.37 308.623ZM262.465 249.104L219.179 226.055C216.922 224.852 215.174 221.819 215.276 219.266L216.043 199.204C216.053 198.89 216.099 198.594 216.164 198.326C214.203 197.576 212.631 198.668 212.538 200.989L211.77 221.051C211.669 223.595 213.417 226.638 215.673 227.84L258.96 250.889C260.893 251.916 262.669 251.259 263.298 249.446C263.029 249.372 262.743 249.252 262.465 249.104ZM259.182 281.143L217.903 260.157C215.627 259.001 213.861 255.985 213.962 253.442L214.73 233.389C214.739 233.047 214.785 232.733 214.869 232.446C212.89 231.734 211.317 232.862 211.225 235.175L210.457 255.218C210.355 257.77 212.122 260.776 214.397 261.942L255.686 282.928C257.619 283.909 259.385 283.252 260.033 281.476C259.755 281.402 259.468 281.291 259.182 281.143ZM204.158 253.164L162.879 232.169C160.604 231.012 158.708 228.006 158.661 225.454L158.19 203.33C158.18 203.015 158.208 202.719 158.254 202.451C156.201 201.609 154.638 202.728 154.684 205.115L155.156 227.239C155.211 229.792 157.098 232.798 159.373 233.954L200.653 254.949C202.604 255.939 204.288 255.255 204.778 253.423C204.574 253.359 204.371 253.266 204.158 253.164ZM205.296 218.665L162.056 195.643C159.799 194.45 157.931 191.407 157.875 188.854L157.394 166.712C157.385 166.425 157.403 166.157 157.44 165.907C155.396 165.01 153.833 166.101 153.889 168.497L154.37 190.63C154.425 193.183 156.303 196.226 158.55 197.429L201.8 220.45C203.751 221.495 205.435 220.801 205.906 218.933C205.703 218.868 205.499 218.776 205.296 218.665ZM149.135 225.185L107.855 204.19C105.58 203.034 103.582 200.028 103.397 197.484L101.64 173.27C101.621 172.992 101.621 172.733 101.64 172.493C99.5034 171.494 97.9586 172.604 98.1345 175.055L99.8918 199.269C100.077 201.813 102.075 204.819 104.35 205.975L145.629 226.961C147.599 227.969 149.209 227.248 149.56 225.38C149.421 225.324 149.283 225.259 149.135 225.185ZM203.178 282.734L163.582 263.468C161.288 262.349 159.383 259.371 159.327 256.818L158.967 239.929C158.957 239.586 158.985 239.263 159.04 238.976C156.978 238.181 155.406 239.327 155.461 241.714L155.822 258.603C155.877 261.156 157.783 264.134 160.076 265.253L199.672 284.519C201.615 285.472 203.298 284.778 203.816 282.984C203.603 282.928 203.391 282.836 203.178 282.734ZM148.182 188.263L104.979 165.26C102.722 164.057 100.743 161.024 100.558 158.471L98.8004 134.256C98.7819 134.007 98.7819 133.775 98.7912 133.553C96.6638 132.499 95.1192 133.572 95.2949 136.041L97.0522 160.256C97.2373 162.809 99.2166 165.842 101.473 167.045L144.677 190.048C146.665 191.102 148.274 190.381 148.58 188.448C148.45 188.401 148.321 188.337 148.182 188.263ZM149.939 256.827L110.316 237.542C108.022 236.423 106.006 233.454 105.82 230.911L104.47 212.283C104.452 211.968 104.452 211.682 104.489 211.413C102.352 210.479 100.789 211.617 100.965 214.059L102.324 232.696C102.509 235.239 104.516 238.208 106.81 239.327L146.434 258.612C148.413 259.574 150.022 258.853 150.383 257.012C150.235 256.966 150.087 256.901 149.939 256.827Z" fill="#946B4F"/>
<path d="M364.179 171.29L280.233 219.756C278.097 220.986 275.322 221.643 272.51 221.708L262.123 316.993C264.953 316.845 267.746 316.152 269.865 314.921L352.636 267.131C354.68 265.947 355.808 264.375 356.03 262.737L356.058 262.497L367.601 167.027C367.277 168.645 366.13 170.162 364.179 171.29ZM353.82 212.246L351.628 230.448C351.322 232.983 349.288 236.072 347.077 237.348L316.962 254.737C316.638 254.922 316.333 255.051 316.046 255.144C316.018 254.857 316.018 254.543 316.055 254.21L317.979 236.34C318.247 233.797 320.264 230.698 322.474 229.422L352.978 211.737C353.283 211.562 353.57 211.432 353.847 211.34C353.866 211.617 353.857 211.913 353.82 212.246ZM309.627 237.802L307.657 255.801C307.379 258.344 305.363 261.433 303.152 262.71L272.593 280.348C272.279 280.524 271.983 280.662 271.696 280.755C271.668 280.468 271.668 280.163 271.705 279.83L273.675 261.822C273.962 259.278 275.978 256.189 278.189 254.913L308.73 237.274C309.044 237.089 309.349 236.96 309.636 236.877C309.664 237.163 309.664 237.469 309.627 237.802ZM357.658 180.308L355.475 198.502C355.17 201.036 353.126 204.125 350.916 205.411L320.347 223.058C320.042 223.234 319.746 223.364 319.468 223.456C319.45 223.179 319.459 222.873 319.496 222.54L321.688 204.347C321.993 201.804 324.028 198.714 326.238 197.438L356.816 179.79C357.122 179.615 357.409 179.485 357.686 179.393C357.704 179.67 357.695 179.975 357.658 180.308ZM313.419 205.836L311.19 224.076C310.876 226.61 308.832 229.699 306.621 230.976L276.08 248.614C275.766 248.799 275.46 248.928 275.174 249.012C275.146 248.725 275.146 248.42 275.183 248.087L277.162 230.078C277.44 227.544 279.465 224.446 281.676 223.169L312.587 205.328C312.883 205.152 313.179 205.022 313.447 204.939C313.465 205.217 313.456 205.513 313.419 205.836ZM268.718 307.032L270.198 293.556C270.475 291.022 272.491 287.923 274.702 286.647L305.326 268.971C305.65 268.777 305.964 268.638 306.26 268.555C306.297 268.842 306.297 269.147 306.26 269.489L304.919 282.836C304.66 285.37 302.662 288.469 300.452 289.745L269.615 307.55C269.3 307.735 268.995 307.864 268.708 307.957C268.681 307.67 268.681 307.365 268.718 307.032ZM312.938 281.476L314.381 268.056C314.649 265.512 316.666 262.423 318.876 261.147L349.13 243.675C349.436 243.499 349.732 243.37 350.009 243.277C350.028 243.555 350.018 243.86 349.981 244.193L348.335 257.826C348.03 260.36 345.995 263.45 343.784 264.726L313.845 281.994C313.521 282.179 313.216 282.318 312.929 282.411C312.901 282.124 312.901 281.819 312.938 281.476Z" fill="#C68F6A"/>
<path opacity="0.3" d="M364.179 171.29L280.233 219.756C278.097 220.986 275.322 221.643 272.51 221.708L262.123 316.993C264.953 316.845 267.746 316.152 269.865 314.921L352.636 267.131C354.68 265.947 355.808 264.375 356.03 262.737L356.058 262.497L367.601 167.027C367.277 168.645 366.13 170.162 364.179 171.29ZM353.82 212.246L351.628 230.448C351.322 232.983 349.288 236.072 347.077 237.348L316.962 254.737C316.638 254.922 316.333 255.051 316.046 255.144C316.018 254.857 316.018 254.543 316.055 254.21L317.979 236.34C318.247 233.797 320.264 230.698 322.474 229.422L352.978 211.737C353.283 211.562 353.57 211.432 353.847 211.34C353.866 211.617 353.857 211.913 353.82 212.246ZM309.627 237.802L307.657 255.801C307.379 258.344 305.363 261.433 303.152 262.71L272.593 280.348C272.279 280.524 271.983 280.662 271.696 280.755C271.668 280.468 271.668 280.163 271.705 279.83L273.675 261.822C273.962 259.278 275.978 256.189 278.189 254.913L308.73 237.274C309.044 237.089 309.349 236.96 309.636 236.877C309.664 237.163 309.664 237.469 309.627 237.802ZM357.658 180.308L355.475 198.502C355.17 201.036 353.126 204.125 350.916 205.411L320.347 223.058C320.042 223.234 319.746 223.364 319.468 223.456C319.45 223.179 319.459 222.873 319.496 222.54L321.688 204.347C321.993 201.804 324.028 198.714 326.238 197.438L356.816 179.79C357.122 179.615 357.409 179.485 357.686 179.393C357.704 179.67 357.695 179.975 357.658 180.308ZM313.419 205.836L311.19 224.076C310.876 226.61 308.832 229.699 306.621 230.976L276.08 248.614C275.766 248.799 275.46 248.928 275.174 249.012C275.146 248.725 275.146 248.42 275.183 248.087L277.162 230.078C277.44 227.544 279.465 224.446 281.676 223.169L312.587 205.328C312.883 205.152 313.179 205.022 313.447 204.939C313.465 205.217 313.456 205.513 313.419 205.836ZM268.718 307.032L270.198 293.556C270.475 291.022 272.491 287.923 274.702 286.647L305.326 268.971C305.65 268.777 305.964 268.638 306.26 268.555C306.297 268.842 306.297 269.147 306.26 269.489L304.919 282.836C304.66 285.37 302.662 288.469 300.452 289.745L269.615 307.55C269.3 307.735 268.995 307.864 268.708 307.957C268.681 307.67 268.681 307.365 268.718 307.032ZM312.938 281.476L314.381 268.056C314.649 265.512 316.666 262.423 318.876 261.147L349.13 243.675C349.436 243.499 349.732 243.37 350.009 243.277C350.028 243.555 350.018 243.86 349.981 244.193L348.335 257.826C348.03 260.36 345.995 263.45 343.784 264.726L313.845 281.994C313.521 282.179 313.216 282.318 312.929 282.411C312.901 282.124 312.901 281.819 312.938 281.476Z" fill="white"/>
<path d="M313.448 204.939C313.466 205.217 313.457 205.513 313.42 205.836L311.191 224.076C310.876 226.61 308.832 229.699 306.621 230.976L276.081 248.614C275.766 248.799 275.461 248.928 275.174 249.012C275.331 250.861 276.765 251.481 278.689 250.371L309.23 232.742C311.44 231.466 313.484 228.377 313.799 225.842L316.028 207.603C316.296 205.411 315.177 204.356 313.448 204.939ZM357.686 179.393C357.705 179.67 357.696 179.975 357.659 180.308L355.476 198.502C355.171 201.036 353.127 204.125 350.916 205.411L320.347 223.058C320.042 223.234 319.746 223.364 319.469 223.456C319.607 225.306 321.023 225.926 322.956 224.816L353.524 207.168C355.735 205.892 357.77 202.803 358.075 200.268L360.267 182.066C360.526 179.883 359.416 178.819 357.686 179.393ZM309.637 236.877C309.664 237.163 309.665 237.469 309.628 237.802L307.658 255.801C307.38 258.344 305.364 261.433 303.153 262.71L272.594 280.348C272.279 280.524 271.983 280.662 271.696 280.755C271.854 282.595 273.287 283.224 275.202 282.115L305.752 264.476C307.963 263.2 309.988 260.101 310.266 257.567L312.236 239.559C312.476 237.385 311.357 236.322 309.637 236.877ZM353.848 211.34C353.867 211.617 353.857 211.913 353.82 212.246L351.628 230.448C351.323 232.983 349.288 236.072 347.078 237.348L316.962 254.737C316.639 254.922 316.333 255.051 316.046 255.144C316.204 256.984 317.646 257.613 319.561 256.503L349.677 239.115C351.887 237.839 353.931 234.749 354.236 232.206L356.429 214.013C356.688 211.83 355.578 210.766 353.848 211.34ZM306.261 268.555C306.298 268.842 306.298 269.147 306.261 269.489L304.92 282.836C304.661 285.37 302.663 288.469 300.452 289.745L269.615 307.55C269.301 307.735 268.996 307.864 268.709 307.957C268.866 309.797 270.3 310.426 272.224 309.316L303.06 291.512C305.271 290.235 307.269 287.137 307.528 284.593L308.869 271.256C309.091 269.092 307.972 268.019 306.261 268.555ZM350.01 243.277C350.028 243.555 350.019 243.86 349.982 244.193L348.336 257.826C348.03 260.36 345.996 263.45 343.785 264.726L313.845 281.994C313.521 282.179 313.216 282.318 312.93 282.411C313.096 284.242 314.53 284.871 316.444 283.761L346.384 266.493C348.595 265.216 350.639 262.127 350.944 259.593L352.581 245.959C352.84 243.767 351.739 242.713 350.01 243.277Z" fill="#C68F6A"/>
<path d="M364.002 166.129C363.956 166.777 363.336 167.507 362.328 168.09L278.382 216.556C276.773 217.481 274.451 218.017 272.019 218.017C269.697 218.017 267.478 217.527 265.924 216.667L93.5925 121.086C92.4362 120.447 92.1403 119.874 92.131 119.763H88.4277C88.426 121.423 89.5497 123.075 91.7978 124.323L264.129 219.895C268.597 222.374 275.811 222.318 280.232 219.756L364.178 171.29C366.484 169.959 367.67 168.071 367.703 166.129H364.002Z" fill="#C68F6A"/>
<path opacity="0.7" d="M364.002 166.129C363.956 166.777 363.336 167.507 362.328 168.09L278.382 216.556C276.773 217.481 274.451 218.017 272.019 218.017C269.697 218.017 267.478 217.527 265.924 216.667L93.5925 121.086C92.4362 120.447 92.1403 119.874 92.131 119.763H88.4277C88.426 121.423 89.5497 123.075 91.7978 124.323L264.129 219.895C268.597 222.374 275.811 222.318 280.232 219.756L364.178 171.29C366.484 169.959 367.67 168.071 367.703 166.129H364.002Z" fill="white"/>
<path d="M96.7425 269.594C96.2727 269.594 95.8924 269.214 95.8924 268.744V249.398C95.8924 237.654 89.735 224.557 82.1662 220.2C79.3635 218.586 76.731 218.399 74.5535 219.659C71.2759 221.555 69.3192 226.57 69.3192 233.075V252.421C69.3192 252.891 68.939 253.271 68.4691 253.271C67.9992 253.271 67.619 252.891 67.619 252.421V233.075C67.619 225.849 69.8364 220.423 73.7025 218.187C76.3973 216.63 79.7039 216.821 83.0147 218.726C91.0533 223.353 97.5927 237.112 97.5927 249.398V268.744C97.5927 269.214 97.2124 269.594 96.7425 269.594Z" fill="#37474F"/>
<path d="M45.3691 241.244L36.787 345.521L97.5256 380.592L106.108 276.315L110.572 273.285L118.171 272.566L57.4321 237.501L54.9502 241.938L45.3691 241.244ZM95.0745 268.304C95.0745 267.231 95.8187 266.787 96.7476 267.324C97.6706 267.854 98.4207 269.152 98.4207 270.22C98.4207 271.287 97.6706 271.726 96.7476 271.2C95.8245 270.676 95.0745 269.377 95.0745 268.304ZM66.7958 251.902C66.7958 250.829 67.5458 250.384 68.4689 250.921C69.3919 251.452 70.142 252.75 70.142 253.817C70.142 254.884 69.3919 255.323 68.4689 254.798C67.5458 254.273 66.7958 252.975 66.7958 251.902Z" fill="#C68F6A"/>
<path opacity="0.2" d="M45.3691 241.244L36.787 345.521L97.5256 380.592L106.108 276.315L110.572 273.285L118.171 272.566L57.4321 237.501L54.9502 241.938L45.3691 241.244ZM95.0745 268.304C95.0745 267.231 95.8187 266.787 96.7476 267.324C97.6706 267.854 98.4207 269.152 98.4207 270.22C98.4207 271.287 97.6706 271.726 96.7476 271.2C95.8245 270.676 95.0745 269.377 95.0745 268.304ZM66.7958 251.902C66.7958 250.829 67.5458 250.384 68.4689 250.921C69.3919 251.452 70.142 252.75 70.142 253.817C70.142 254.884 69.3919 255.323 68.4689 254.798C67.5458 254.273 66.7958 252.975 66.7958 251.902Z" fill="black"/>
<path d="M45.3691 241.244L36.787 345.521L97.5256 380.592L106.108 276.315L45.3691 241.244ZM87.6202 274.493C87.6202 273.42 88.3703 272.975 89.2933 273.512C90.2164 274.043 90.9664 275.341 90.9664 276.408C90.9664 277.475 90.2164 277.914 89.2933 277.389C88.3703 276.864 87.6202 275.566 87.6202 274.493ZM59.3473 258.09C59.3473 257.017 60.0915 256.573 61.0204 257.109C61.9435 257.64 62.6935 258.938 62.6935 260.005C62.6935 261.073 61.9435 261.511 61.0204 260.986C60.0915 260.461 59.3473 259.163 59.3473 258.09Z" fill="#C68F6A"/>
<path d="M128.835 362.503L111.457 359.577L97.5231 380.591L128.835 362.503Z" fill="#C68F6A"/>
<path opacity="0.4" d="M128.835 362.503L111.457 359.577L97.5231 380.591L128.835 362.503Z" fill="black"/>
<path d="M111.457 359.577L110.57 273.283L106.109 276.314L97.5231 380.591L111.457 359.577Z" fill="#C68F6A"/>
<path opacity="0.15" d="M111.457 359.577L110.57 273.283L106.109 276.314L97.5231 380.591L111.457 359.577Z" fill="black"/>
<path d="M118.173 272.567L110.57 273.283L111.457 359.577L128.835 362.503L118.173 272.567Z" fill="#C68F6A"/>
<path opacity="0.25" d="M118.173 272.567L110.57 273.283L111.457 359.577L128.835 362.503L118.173 272.567Z" fill="black"/>
<path opacity="0.2" d="M57.4327 237.5L57.7984 248.42L45.371 241.245L54.9485 241.935L57.4327 237.5Z" fill="black"/>
<path opacity="0.2" d="M54.9485 241.935L55.1767 246.907L45.371 241.246L54.9485 241.935Z" fill="black"/>
<path d="M89.2925 276.225C88.8226 276.225 88.4424 275.844 88.4424 275.375V256.028C88.4424 244.285 82.285 231.187 74.717 226.83C71.9143 225.217 69.2843 225.03 67.1043 226.289C63.8267 228.185 61.87 233.2 61.87 239.705V259.051C61.87 259.521 61.4898 259.901 61.0199 259.901C60.55 259.901 60.1698 259.521 60.1698 259.051V239.705C60.1698 232.479 62.3872 227.053 66.2533 224.817C68.9473 223.261 72.2547 223.451 75.5655 225.357C83.6033 229.984 90.1426 243.743 90.1426 256.028V275.375C90.1426 275.844 89.7624 276.225 89.2925 276.225Z" fill="#455A64"/>
<path d="M70.0121 165.186L61.988 164.298C61.2143 164.214 60.6027 163.589 60.5329 162.813L59.6097 152.579C59.5857 152.298 59.3505 152.084 59.0695 152.084C58.7885 152.084 58.5533 152.298 58.5296 152.579L57.6062 162.815C57.5347 163.589 56.9247 164.214 56.151 164.298L48.1291 165.186C47.8542 165.217 47.6471 165.449 47.6471 165.726C47.6471 166.003 47.8542 166.234 48.1291 166.266L56.151 167.153C56.9247 167.237 57.5366 167.863 57.6062 168.638L58.5296 178.873C58.5533 179.154 58.7885 179.367 59.0695 179.367C59.3505 179.367 59.5857 179.154 59.6097 178.873L60.5329 168.636C60.6027 167.863 61.2143 167.237 61.988 167.153L70.0121 166.266C70.287 166.234 70.4944 166.003 70.4944 165.726C70.4944 165.449 70.287 165.217 70.0121 165.186ZM61.8683 166.072C60.5846 166.214 59.5678 167.251 59.4523 168.539L59.0695 172.779L58.687 168.54C58.5713 167.251 57.5544 166.214 56.2707 166.072L53.1292 165.726L56.2707 165.379C57.5544 165.237 58.5713 164.201 58.687 162.913V162.911L59.0695 158.673L59.4523 162.911C59.5678 164.201 60.5846 165.237 61.8683 165.379L65.0101 165.726L61.8683 166.072ZM337.131 46.0125L325.635 44.742C324.411 44.6072 323.441 43.6178 323.332 42.3911L322.01 27.7244C321.985 27.4509 321.757 27.2414 321.482 27.2414C321.208 27.2414 320.979 27.4509 320.954 27.7244L319.633 42.3911C319.523 43.6178 318.552 44.6072 317.328 44.742L305.833 46.0125C305.564 46.0422 305.361 46.2694 305.361 46.5392C305.361 46.8089 305.564 47.0361 305.833 47.0658L317.328 48.3353C318.552 48.4714 319.523 49.4605 319.633 50.6865L320.954 65.3545C320.979 65.6277 321.208 65.8369 321.482 65.8369C321.757 65.8369 321.985 65.6277 322.01 65.3545L323.332 50.6865C323.441 49.4605 324.411 48.4714 325.635 48.3353L337.131 47.0658C337.4 47.0361 337.603 46.8089 337.603 46.5392C337.603 46.2694 337.4 46.0422 337.131 46.0125ZM325.519 47.2823C323.795 47.4739 322.432 48.8655 322.276 50.5916L321.482 59.4052L320.688 50.5916C320.532 48.8655 319.168 47.4739 317.444 47.2823L310.713 46.5392L317.444 45.7951C319.168 45.6045 320.532 44.2131 320.688 42.4856L321.482 33.6721L322.276 42.4856C322.432 44.2131 323.795 45.6045 325.519 45.7951L332.25 46.5392L325.519 47.2823ZM16.4461 92.947L21.5608 93.5127C22.0542 93.5661 22.4444 93.9652 22.4888 94.4595L23.0774 100.985C23.0926 101.165 23.2425 101.3 23.4217 101.3C23.6011 101.3 23.751 101.165 23.7662 100.985L24.3548 94.4583C24.3995 93.9652 24.7893 93.5661 25.2828 93.5127L30.399 92.947C30.5743 92.9268 30.7063 92.7792 30.7063 92.6025C30.7063 92.4258 30.5743 92.2784 30.399 92.2582L25.2828 91.6924C24.7893 91.6391 24.3995 91.24 24.3548 90.7455L23.7662 84.2198C23.751 84.0406 23.6011 83.9046 23.4217 83.9046C23.2425 83.9046 23.0926 84.0406 23.0774 84.2198L22.4888 90.7468C22.4432 91.24 22.0542 91.6391 21.5608 91.6924L16.4461 92.2582C16.2708 92.2784 16.1385 92.4258 16.1385 92.6025C16.1385 92.7792 16.2708 92.9268 16.4461 92.947ZM21.6372 92.3813C22.4556 92.2912 23.104 91.6302 23.1778 90.8091V90.8077L23.4217 88.1056L23.6658 90.8077C23.7395 91.6302 24.3877 92.2912 25.2063 92.3813L27.2095 92.6025L25.2063 92.8237C24.3877 92.914 23.7395 93.575 23.6658 94.3961L23.4217 97.0996L23.1778 94.3973C23.104 93.575 22.4556 92.914 21.6372 92.8237L19.6341 92.6025L21.6372 92.3813ZM110.041 18.1873L115.156 18.753C115.649 18.8064 116.039 19.2055 116.084 19.6998L116.672 26.2256C116.687 26.4049 116.837 26.5407 117.017 26.5407C117.196 26.5407 117.346 26.4049 117.361 26.2256L117.95 19.6986C117.994 19.2055 118.384 18.8064 118.878 18.753L123.994 18.1873C124.169 18.1671 124.301 18.0195 124.301 17.8428C124.301 17.6661 124.169 17.5187 123.994 17.4985L118.878 16.9327C118.384 16.8794 117.994 16.4803 117.95 15.9858L117.361 9.46013C117.346 9.28093 117.196 9.14493 117.017 9.14493C116.837 9.14493 116.687 9.28093 116.672 9.46013L116.084 15.9871C116.038 16.4803 115.649 16.8794 115.156 16.9327L110.041 17.4985C109.866 17.5187 109.733 17.6661 109.733 17.8428C109.733 18.0195 109.866 18.1671 110.041 18.1873ZM115.232 17.6216C116.05 17.5315 116.699 16.8705 116.773 16.0494V16.048L117.017 13.3459L117.261 16.048C117.334 16.8705 117.983 17.5315 118.801 17.6216L120.804 17.8428L118.801 18.064C117.983 18.1543 117.334 18.8153 117.261 19.6365L117.017 22.3399L116.773 19.6376C116.699 18.8153 116.05 18.1543 115.232 18.064L113.229 17.8428L115.232 17.6216ZM36.2 109.371L41.3147 109.936C41.8082 109.99 42.1983 110.389 42.2427 110.883L42.8313 117.409C42.8465 117.588 42.9964 117.724 43.1756 117.724C43.355 117.724 43.5049 117.588 43.5201 117.409L44.1087 110.882C44.1534 110.389 44.5433 109.99 45.0367 109.936L50.1529 109.371C50.3282 109.35 50.4603 109.203 50.4603 109.026C50.4603 108.849 50.3282 108.702 50.1529 108.682L45.0367 108.116C44.5433 108.063 44.1534 107.664 44.1087 107.169L43.5201 100.643C43.5049 100.464 43.355 100.328 43.1756 100.328C42.9964 100.328 42.8465 100.464 42.8313 100.643L42.2427 107.17C42.1971 107.664 41.8082 108.063 41.3147 108.116L36.2 108.682C36.0247 108.702 35.8924 108.849 35.8924 109.026C35.8924 109.203 36.0247 109.35 36.2 109.371ZM41.3912 108.805C42.2095 108.715 42.858 108.054 42.9317 107.233V107.231L43.1756 104.529L43.4197 107.231C43.4935 108.054 44.1416 108.715 44.9603 108.805L46.9634 109.026L44.9603 109.247C44.1416 109.338 43.4935 109.999 43.4197 110.82L43.1756 113.523L42.9317 110.821C42.858 109.999 42.2095 109.338 41.3912 109.247L39.388 109.026L41.3912 108.805ZM383.56 93.9316L389.011 94.5344C389.536 94.5914 389.952 95.0166 389.999 95.5434L390.627 102.497C390.643 102.689 390.803 102.833 390.994 102.833C391.185 102.833 391.345 102.689 391.361 102.497L391.988 95.5421C392.035 95.0166 392.451 94.5914 392.977 94.5344L398.429 93.9316C398.615 93.9101 398.756 93.7528 398.756 93.5645C398.756 93.3762 398.615 93.2192 398.429 93.1976L392.977 92.5947C392.451 92.5379 392.035 92.1126 391.988 91.5857L391.361 84.6317C391.345 84.4408 391.185 84.2959 390.994 84.2959C390.803 84.2959 390.643 84.4408 390.627 84.6317L389.999 91.5871C389.951 92.1126 389.536 92.5379 389.011 92.5947L383.56 93.1976C383.373 93.2192 383.232 93.3762 383.232 93.5645C383.232 93.7528 383.373 93.9101 383.56 93.9316ZM389.092 93.3288C389.964 93.2328 390.655 92.5284 390.734 91.6534V91.6519L390.994 88.7725L391.254 91.6519C391.332 92.5284 392.023 93.2328 392.895 93.3288L395.03 93.5645L392.895 93.8002C392.023 93.8965 391.332 94.6008 391.254 95.4758L390.994 98.3567L390.734 95.4771C390.655 94.6008 389.964 93.8965 389.092 93.8002L386.957 93.5645L389.092 93.3288ZM263.172 13.6337L267.911 14.1582C268.368 14.2084 268.729 14.5774 268.77 15.0345L269.315 21.082C269.33 21.2476 269.468 21.3745 269.635 21.3745C269.801 21.3745 269.939 21.2476 269.954 21.082L270.5 15.0345C270.54 14.5774 270.902 14.2084 271.359 14.1582L276.098 13.6337C276.26 13.6158 276.384 13.4781 276.384 13.3148C276.384 13.1514 276.26 13.0139 276.098 12.9959L271.359 12.4721C270.902 12.4219 270.54 12.0529 270.5 11.5957L269.954 5.54833C269.939 5.38283 269.801 5.25593 269.635 5.25593C269.468 5.25593 269.33 5.38283 269.315 5.54833L268.77 11.5957C268.729 12.0529 268.368 12.4219 267.911 12.4721L263.172 12.9959C263.009 13.0139 262.886 13.1514 262.886 13.3148C262.886 13.4781 263.009 13.6158 263.172 13.6337ZM267.982 13.1098C268.74 13.0261 269.34 12.4134 269.409 11.6531L269.635 9.14853L269.861 11.6531C269.929 12.4134 270.53 13.0261 271.289 13.1098L273.146 13.3148L271.289 13.5205C270.53 13.6044 269.929 14.2169 269.861 14.9773L269.635 17.4818L269.409 14.9773C269.34 14.2169 268.74 13.6044 267.982 13.5205L266.125 13.3148L267.982 13.1098ZM355.736 10.7584L361.3 11.3741C361.836 11.433 362.26 11.8662 362.308 12.4028L362.949 19.5024C362.966 19.6968 363.128 19.8457 363.324 19.8457C363.519 19.8457 363.681 19.6968 363.699 19.5024L364.339 12.4028C364.387 11.8662 364.812 11.433 365.348 11.3741L370.911 10.7584C371.102 10.7373 371.246 10.5758 371.246 10.3839C371.246 10.1922 371.102 10.0306 370.911 10.0096L365.348 9.39463C364.812 9.33573 364.387 8.90243 364.339 8.36563L363.699 1.26613C363.681 1.07183 363.519 0.923035 363.324 0.923035C363.128 0.923035 362.966 1.07183 362.949 1.26613L362.308 8.36563C362.26 8.90243 361.836 9.33573 361.3 9.39463L355.736 10.0096C355.545 10.0306 355.4 10.1922 355.4 10.3839C355.4 10.5758 355.545 10.7373 355.736 10.7584ZM361.383 10.1433C362.273 10.045 362.978 9.32573 363.059 8.43313L363.324 5.49283L363.589 8.43313C363.669 9.32573 364.374 10.045 365.265 10.1433L367.445 10.3839L365.265 10.6254C364.374 10.7238 363.669 11.443 363.589 12.3357L363.324 15.2758L363.059 12.3357C362.978 11.443 362.273 10.7238 361.383 10.6254L359.203 10.3839L361.383 10.1433ZM452.427 174.467L448.101 173.988C447.684 173.943 447.354 173.606 447.316 173.188L446.819 167.67C446.806 167.518 446.679 167.403 446.528 167.403C446.376 167.403 446.249 167.518 446.236 167.67L445.74 173.189C445.702 173.606 445.371 173.943 444.954 173.988L440.629 174.467C440.481 174.484 440.369 174.609 440.369 174.758C440.369 174.907 440.481 175.032 440.629 175.049L444.954 175.528C445.371 175.573 445.702 175.91 445.74 176.328L446.236 181.846C446.249 181.998 446.376 182.113 446.528 182.113C446.679 182.113 446.806 181.998 446.819 181.846L447.316 176.327C447.354 175.91 447.684 175.573 448.101 175.528L452.427 175.049C452.575 175.032 452.687 174.907 452.687 174.758C452.687 174.609 452.575 174.484 452.427 174.467ZM448.037 174.945C447.344 175.021 446.796 175.58 446.734 176.275L446.528 178.557L446.322 176.276C446.26 175.58 445.711 175.021 445.018 174.945L443.325 174.758L445.018 174.571C445.711 174.495 446.26 173.936 446.322 173.241L446.528 170.959L446.734 173.24C446.796 173.936 447.344 174.495 448.037 174.571L449.73 174.758L448.037 174.945ZM33.0684 191.558L27.9522 190.992C27.4588 190.939 27.0689 190.54 27.0242 190.045L26.4358 183.52C26.4205 183.34 26.2706 183.204 26.0914 183.204C25.9119 183.204 25.762 183.34 25.7469 183.52L25.1583 190.047C25.1126 190.54 24.7237 190.939 24.2303 190.992L19.1155 191.558C18.9402 191.578 18.8082 191.726 18.8082 191.902C18.8082 192.079 18.9402 192.227 19.1155 192.247L24.2303 192.813C24.7237 192.866 25.1138 193.265 25.1583 193.759L25.7469 200.285C25.762 200.465 25.9119 200.6 26.0914 200.6C26.2706 200.6 26.4205 200.465 26.4358 200.285L27.0242 193.758C27.0689 193.265 27.4588 192.866 27.9522 192.813L33.0684 192.247C33.2437 192.227 33.3758 192.079 33.3758 191.902C33.3758 191.726 33.2437 191.578 33.0684 191.558ZM27.8758 192.124C27.0572 192.214 26.409 192.875 26.3353 193.696L26.0914 196.399L25.8472 193.697C25.7735 192.875 25.1253 192.214 24.3067 192.124L22.3035 191.902L24.3067 191.681C25.1253 191.591 25.7735 190.93 25.8472 190.109V190.108L26.0914 187.405L26.3353 190.108C26.409 190.93 27.0572 191.591 27.8758 191.681L29.879 191.902L27.8758 192.124ZM425.053 147.644L417.045 146.76C416.272 146.674 415.66 146.051 415.592 145.278L414.67 135.057C414.644 134.777 414.41 134.565 414.13 134.565C413.85 134.565 413.616 134.777 413.59 135.057L412.668 145.278C412.6 146.051 411.988 146.674 411.217 146.76L403.207 147.644C402.932 147.674 402.725 147.907 402.725 148.183C402.725 148.459 402.932 148.692 403.207 148.722L411.217 149.607C411.988 149.693 412.6 150.316 412.668 151.089L413.59 161.309C413.616 161.59 413.85 161.803 414.13 161.803C414.41 161.803 414.644 161.59 414.67 161.309L415.592 151.089C415.66 150.316 416.272 149.693 417.045 149.607L425.053 148.722C425.328 148.692 425.535 148.459 425.535 148.183C425.535 147.907 425.328 147.674 425.053 147.644ZM416.925 148.53C415.642 148.672 414.627 149.708 414.512 150.992L414.13 155.226L413.749 150.992C413.633 149.708 412.618 148.673 411.337 148.53L408.202 148.183L411.337 147.837C412.618 147.696 413.633 146.66 413.749 145.375L414.13 141.141L414.512 145.375C414.627 146.66 415.642 147.696 416.925 147.837L420.06 148.183L416.925 148.53ZM47.9968 11.7768L42.8806 11.2112C42.3872 11.1577 41.9973 10.7586 41.9526 10.2642L41.3643 3.73863C41.3489 3.55943 41.1987 3.42333 41.0195 3.42333C40.8403 3.42333 40.6904 3.55943 40.6753 3.73863L40.0867 10.2655C40.041 10.7586 39.6521 11.1577 39.1587 11.2112L34.0439 11.7768C33.8687 11.7971 33.7363 11.9445 33.7363 12.1212C33.7363 12.2978 33.8687 12.4454 34.0439 12.4657L39.1587 13.0314C39.6521 13.0848 40.0422 13.4839 40.0867 13.9782L40.6753 20.5041C40.6904 20.6833 40.8403 20.8191 41.0195 20.8191C41.1987 20.8191 41.3489 20.6833 41.3643 20.5041L41.9526 13.977C41.9973 13.4839 42.3872 13.0848 42.8806 13.0314L47.9968 12.4657C48.1721 12.4454 48.3042 12.2978 48.3042 12.1212C48.3042 11.9445 48.1721 11.7971 47.9968 11.7768ZM42.8042 12.3424C41.9856 12.4327 41.3374 13.0937 41.2637 13.9148L41.0195 16.6183L40.7756 13.916C40.7022 13.0937 40.0537 12.4327 39.2351 12.3424L37.2319 12.1212L39.2351 11.9001C40.0537 11.8098 40.7022 11.149 40.7756 10.3278V10.3264L41.0195 7.62443L41.2637 10.3264C41.3374 11.149 41.9856 11.8098 42.8042 11.9001L44.8074 12.1212L42.8042 12.3424ZM446.374 65.0921L435.219 63.8594C434.031 63.728 433.089 62.7687 432.982 61.5781L431.699 47.345C431.675 47.0794 431.453 46.8778 431.188 46.8778C430.922 46.8778 430.699 47.0794 430.675 47.345L429.392 61.5781C429.286 62.7687 428.344 63.728 427.156 63.8594L416.002 65.0921C415.742 65.1202 415.546 65.3413 415.546 65.6029C415.546 65.864 415.742 66.085 416.002 66.1134L427.156 67.3475C428.344 67.4788 429.286 68.4378 429.392 69.6287L430.675 83.8615C430.699 84.1272 430.922 84.3292 431.188 84.3292C431.453 84.3292 431.675 84.1272 431.699 83.8615L432.982 69.6287C433.089 68.4378 434.031 67.4788 435.219 67.3475L446.374 66.1134C446.634 66.085 446.831 65.864 446.831 65.6029C446.831 65.3413 446.634 65.1202 446.374 65.0921ZM435.105 66.3262C433.433 66.5103 432.11 67.8609 431.958 69.5365L431.188 78.091L430.416 69.5365C430.265 67.8609 428.941 66.5103 427.27 66.3262L420.735 65.6029L427.27 64.8807C428.941 64.6965 430.265 63.346 430.416 61.6701L431.188 53.1157L431.958 61.6701C432.11 63.346 433.433 64.6965 435.105 64.8807L441.641 65.6029L435.105 66.3262ZM79.8754 36.9479L71.0157 35.9681C70.1612 35.8757 69.4857 35.1845 69.4086 34.3282L68.3895 23.0275C68.3628 22.7172 68.1032 22.4816 67.7928 22.4816C67.4825 22.4816 67.2226 22.7172 67.1964 23.0275L66.1772 34.3306C66.0982 35.1845 65.4246 35.8757 64.5704 35.9681L55.7126 36.9479C55.4092 36.983 55.1805 37.2382 55.1805 37.5442C55.1805 37.85 55.4092 38.1056 55.7126 38.1408L64.5704 39.1204C65.4246 39.2129 66.1002 39.9041 66.1772 40.76L67.1964 52.061C67.2226 52.3714 67.4825 52.6067 67.7928 52.6067C68.1032 52.6067 68.3628 52.3714 68.3895 52.061L69.4086 40.7579C69.4857 39.9041 70.1612 39.2129 71.0157 39.1204L79.8754 38.1408C80.179 38.1056 80.4079 37.85 80.4079 37.5442C80.4079 37.2382 80.179 36.983 79.8754 36.9479ZM70.8832 37.9272C69.4657 38.0836 68.343 39.2281 68.2155 40.6501L67.7928 45.3318L67.3701 40.6521C67.2427 39.2281 66.1199 38.0836 64.7026 37.9272L61.2335 37.5442L64.7026 37.1609C66.1199 37.005 67.2427 35.8605 67.3701 34.4383V34.4361L67.7928 29.7567L68.2155 34.4361C68.343 35.8605 69.4657 37.005 70.8832 37.1609L74.3524 37.5442L70.8832 37.9272Z" fill="#F0F0F0"/>
</g>
<defs>
<clipPath id="clip0_314_579">
<rect width="462.149" height="442.154" fill="white" transform="translate(0 0.923035)"/>
</clipPath>
</defs>
</svg>
