<svg width="397" height="395" viewBox="0 0 397 395" fill="none" xmlns="http://www.w3.org/2000/svg">
<g clip-path="url(#clip0_2_243)">
<g filter="url(#filter0_d_2_243)">
<path d="M198.5 395C308.129 395 397 306.577 397 197.5C397 88.4244 308.129 0.000732422 198.5 0.000732422C88.8715 0.000732422 0 88.4244 0 197.5C0 306.577 88.8715 395 198.5 395Z" fill="#F5D483"/>
<path d="M396.999 197.5C396.999 186.577 396.069 175.873 394.355 165.432L177.26 393.861C184.24 394.6 191.322 395 198.499 395C207.742 395 216.821 394.32 225.727 393.104L395.71 219.763C396.535 212.451 396.999 205.031 396.999 197.5Z" fill="#FFE7B3"/>
<path d="M198.5 0C184.642 0 171.119 1.42313 158.062 4.11201L1.85558 170.802C0.668205 179.539 0 188.439 0 197.5C0 219.582 3.69714 240.792 10.4167 260.619L221.754 1.39392C214.121 0.507144 206.372 0 198.5 0Z" fill="#FFE7B3"/>
<path d="M356.557 78.0565C350.486 70.1161 343.816 62.6627 336.629 55.7297L71.3166 349.109C78.5462 355.119 86.2135 360.621 94.2619 365.573L356.557 78.0565Z" fill="#FFE7B3"/>
<path d="M202.356 367.791C294.752 367.791 369.653 293.267 369.653 201.337C369.653 109.407 294.752 34.8826 202.356 34.8826C109.96 34.8826 35.0588 109.407 35.0588 201.337C35.0588 293.267 109.96 367.791 202.356 367.791Z" fill="#FFE7B3"/>
<path d="M198.5 360.118C288.766 360.118 361.941 287.311 361.941 197.5C361.941 107.689 288.766 34.8826 198.5 34.8826C108.234 34.8826 35.0588 107.689 35.0588 197.5C35.0588 287.311 108.234 360.118 198.5 360.118Z" fill="#DEA82A"/>
<path d="M202.356 338.473C278.477 338.473 340.186 277.075 340.186 201.337C340.186 125.599 278.477 64.2009 202.356 64.2009C126.234 64.2009 64.5254 125.599 64.5254 201.337C64.5254 277.075 126.234 338.473 202.356 338.473Z" fill="#CE9729"/>
<path d="M198.5 334.636C274.622 334.636 336.33 273.238 336.33 197.5C336.33 121.762 274.622 60.3643 198.5 60.3643C122.378 60.3643 60.6697 121.762 60.6697 197.5C60.6697 273.238 122.378 334.636 198.5 334.636Z" fill="#F5D483"/>
<path d="M68.9804 204.115C68.9804 128.377 130.689 66.9793 206.811 66.9793C237.361 66.9793 265.577 76.8854 288.428 93.6225C264.286 72.9139 232.876 60.364 198.5 60.364C122.378 60.364 60.6697 121.762 60.6697 197.5C60.6697 242.842 82.7991 283.028 116.884 307.994C87.5659 282.846 68.9804 245.651 68.9804 204.115Z" fill="#FFE7B3"/>
<path d="M121.236 311.073L313.598 122.078C307.171 112.389 299.56 103.548 290.94 95.7881L90.9532 283.225C99.5893 293.936 109.787 303.347 121.236 311.073Z" fill="#FFE7B3"/>
</g>
<path d="M263.57 286.801C251.876 290.977 228.787 297.841 201.499 297.841C170.913 297.841 145.725 290.084 125.936 271.287C108.544 254.579 97.748 227.728 97.748 196.403C98.049 136.436 139.429 92.5786 207.196 92.5786C230.586 92.5786 248.878 97.6485 257.574 101.825L251.276 123.01C240.481 118.235 226.988 114.357 206.598 114.357C157.42 114.357 125.335 144.788 125.335 195.208C125.335 246.227 156.221 276.36 203.298 276.36C220.391 276.36 232.085 273.974 238.082 270.99V211.023H197.002V190.138H263.57V286.801Z" fill="#CE9729"/>
<path d="M267.373 286.801C255.679 290.977 232.59 297.841 205.302 297.841C174.716 297.841 149.528 290.084 129.739 271.287C112.347 254.579 101.551 227.728 101.551 196.403C101.852 136.436 143.232 92.5786 210.999 92.5786C234.389 92.5786 252.681 97.6485 261.376 101.825L255.079 123.01C244.284 118.235 230.791 114.357 210.401 114.357C161.222 114.357 129.138 144.788 129.138 195.208C129.138 246.227 160.023 276.36 207.101 276.36C224.193 276.36 235.888 273.974 241.884 270.99V211.023H200.805V190.138H267.373L267.373 286.801Z" fill="#FFE7B3"/>
<path d="M265.647 286.874C253.952 291.05 230.863 297.913 203.575 297.913C172.989 297.913 147.802 290.157 128.012 271.36C110.62 254.652 99.8242 227.801 99.8242 196.475C100.125 136.509 141.506 92.6514 209.273 92.6514C232.663 92.6514 250.954 97.7212 259.65 101.897L253.352 123.083C242.557 118.308 229.064 114.43 208.674 114.43C159.496 114.43 127.412 144.861 127.412 195.281C127.412 246.299 158.297 276.433 205.375 276.433C222.467 276.433 234.161 274.047 240.158 271.062V211.096H199.078V190.211H265.647V286.874Z" fill="#DEA82A"/>
</g>
<defs>
<filter id="filter0_d_2_243" x="0" y="0" width="398" height="401" filterUnits="userSpaceOnUse" color-interpolation-filters="sRGB">
<feFlood flood-opacity="0" result="BackgroundImageFix"/>
<feColorMatrix in="SourceAlpha" type="matrix" values="0 0 0 0 0 0 0 0 0 0 0 0 0 0 0 0 0 0 127 0" result="hardAlpha"/>
<feOffset dx="1" dy="6"/>
<feColorMatrix type="matrix" values="0 0 0 0 0 0 0 0 0 0 0 0 0 0 0 0 0 0 0.15 0"/>
<feBlend mode="normal" in2="BackgroundImageFix" result="effect1_dropShadow_2_243"/>
<feBlend mode="normal" in="SourceGraphic" in2="effect1_dropShadow_2_243" result="shape"/>
</filter>
<clipPath id="clip0_2_243">
<rect width="397" height="395" fill="white"/>
</clipPath>
</defs>
</svg>
