<svg width="559" height="628" viewBox="0 0 559 628" fill="none" xmlns="http://www.w3.org/2000/svg">
<g clip-path="url(#clip0_314_759)">
<g filter="url(#filter0_d_314_759)">
<path d="M197.5 395.319C306.576 395.319 395 306.895 395 197.819C395 88.7431 306.576 0.319458 197.5 0.319458C88.4238 0.319458 0 88.7431 0 197.819C0 306.895 88.4238 395.319 197.5 395.319Z" fill="#F5D483"/>
<path d="M395 197.819C395 186.895 394.074 176.192 392.368 165.751L176.367 394.18C183.312 394.919 190.358 395.319 197.5 395.319C206.695 395.319 215.729 394.639 224.59 393.423L393.717 220.082C394.538 212.77 395 205.35 395 197.819Z" fill="#FFE7B3"/>
<path d="M197.5 0.318848C183.712 0.318848 170.257 1.74197 157.266 4.43086L1.84623 171.12C0.664838 179.857 0 188.758 0 197.819C0 219.901 3.67852 241.111 10.3642 260.938L220.637 1.71277C213.042 0.825992 205.332 0.318848 197.5 0.318848Z" fill="#FFE7B3"/>
<path d="M354.76 78.3754C348.72 70.4349 342.083 62.9815 334.933 56.0486L70.957 349.428C78.1502 355.438 85.7788 360.94 93.7867 365.891L354.76 78.3754Z" fill="#FFE7B3"/>
<path d="M201.337 368.11C293.267 368.11 367.792 293.586 367.792 201.656C367.792 109.726 293.267 35.2014 201.337 35.2014C109.407 35.2014 34.8828 109.726 34.8828 201.656C34.8828 293.586 109.407 368.11 201.337 368.11Z" fill="#FFE7B3"/>
<path d="M197.501 360.437C287.312 360.437 360.118 287.63 360.118 197.819C360.118 108.008 287.312 35.2014 197.501 35.2014C107.689 35.2014 34.8828 108.008 34.8828 197.819C34.8828 287.63 107.689 360.437 197.501 360.437Z" fill="#DEA82A"/>
<path d="M201.337 338.792C277.075 338.792 338.473 277.394 338.473 201.656C338.473 125.918 277.075 64.5198 201.337 64.5198C125.599 64.5198 64.2012 125.918 64.2012 201.656C64.2012 277.394 125.599 338.792 201.337 338.792Z" fill="#CE9729"/>
<path d="M197.499 334.955C273.237 334.955 334.635 273.557 334.635 197.819C334.635 122.081 273.237 60.6831 197.499 60.6831C121.761 60.6831 60.3633 122.081 60.3633 197.819C60.3633 273.557 121.761 334.955 197.499 334.955Z" fill="#F5D483"/>
<path d="M68.6321 204.434C68.6321 128.696 130.03 67.2982 205.768 67.2982C236.165 67.2982 264.239 77.2042 286.974 93.9414C262.954 73.2327 231.702 60.6829 197.499 60.6829C121.761 60.6829 60.3633 122.081 60.3633 197.819C60.3633 243.161 82.3812 283.346 116.294 308.312C87.1239 283.164 68.6321 245.97 68.6321 204.434Z" fill="#FFE7B3"/>
<path d="M120.624 311.391L312.017 122.396C305.623 112.707 298.05 103.867 289.474 96.1069L90.4941 283.544C99.0868 294.255 109.233 303.666 120.624 311.391Z" fill="#FFE7B3"/>
</g>
<path d="M262.243 287.12C250.608 291.296 227.635 298.16 200.484 298.16C170.052 298.16 144.992 290.403 125.302 271.606C107.998 254.898 97.2559 228.047 97.2559 196.722C97.5553 136.755 138.727 92.8975 206.153 92.8975C229.425 92.8975 247.624 97.9673 256.276 102.144L250.01 123.329C239.27 118.554 225.845 114.676 205.557 114.676C156.627 114.676 124.704 145.107 124.704 195.527C124.704 246.545 155.434 276.679 202.274 276.679C219.281 276.679 230.916 274.293 236.883 271.308V211.342H196.01V190.457H262.243V287.12Z" fill="#CE9729"/>
<path d="M266.026 287.12C254.391 291.296 231.418 298.16 204.268 298.16C173.836 298.16 148.775 290.403 129.085 271.606C111.781 254.898 101.039 228.047 101.039 196.722C101.339 136.755 142.511 92.8975 209.936 92.8975C233.208 92.8975 251.408 97.9673 260.06 102.144L253.794 123.329C243.053 118.554 229.628 114.676 209.341 114.676C160.41 114.676 128.488 145.107 128.488 195.527C128.488 246.545 159.217 276.679 206.058 276.679C223.064 276.679 234.699 274.293 240.666 271.308V211.342H199.793V190.457H266.026L266.026 287.12Z" fill="#FFE7B3"/>
<path d="M264.309 287.193C252.674 291.369 229.701 298.232 202.551 298.232C172.119 298.232 147.058 290.475 127.368 271.679C110.064 254.971 99.3223 228.12 99.3223 196.794C99.6217 136.828 140.794 92.9702 208.219 92.9702C231.491 92.9702 249.691 98.0401 258.343 102.216L252.077 123.402C241.336 118.627 227.911 114.748 207.624 114.748C158.693 114.748 126.771 145.18 126.771 195.6C126.771 246.618 157.5 276.752 204.341 276.752C221.347 276.752 232.982 274.366 238.949 271.381V211.414H198.076V190.53H264.309V287.193Z" fill="#DEA82A"/>
</g>
<g clip-path="url(#clip1_314_759)">
<g filter="url(#filter1_d_314_759)">
<path d="M360.139 621.819C469.767 621.819 558.639 533.395 558.639 424.319C558.639 315.243 469.767 226.819 360.139 226.819C250.51 226.819 161.639 315.243 161.639 424.319C161.639 533.395 250.51 621.819 360.139 621.819Z" fill="#F5D483"/>
<path d="M558.638 424.319C558.638 413.396 557.707 402.692 555.993 392.251L338.898 620.68C345.879 621.419 352.96 621.819 360.138 621.819C369.38 621.819 378.459 621.139 387.366 619.923L557.349 446.583C558.173 439.271 558.638 431.85 558.638 424.319Z" fill="#FFE7B3"/>
<path d="M360.139 226.819C346.281 226.819 332.758 228.242 319.701 230.931L163.494 397.62C162.307 406.357 161.639 415.258 161.639 424.319C161.639 446.401 165.336 467.611 172.055 487.438L383.393 228.213C375.76 227.326 368.011 226.819 360.139 226.819Z" fill="#FFE7B3"/>
<path d="M518.195 304.875C512.125 296.935 505.454 289.481 498.268 282.548L232.955 575.928C240.185 581.938 247.852 587.44 255.901 592.391L518.195 304.875Z" fill="#FFE7B3"/>
<path d="M363.995 594.61C456.39 594.61 531.292 520.086 531.292 428.156C531.292 336.225 456.39 261.701 363.995 261.701C271.599 261.701 196.697 336.225 196.697 428.156C196.697 520.086 271.599 594.61 363.995 594.61Z" fill="#FFE7B3"/>
<path d="M360.139 586.937C450.405 586.937 523.58 514.13 523.58 424.319C523.58 334.508 450.405 261.701 360.139 261.701C269.873 261.701 196.697 334.508 196.697 424.319C196.697 514.13 269.873 586.937 360.139 586.937Z" fill="#DEA82A"/>
<path d="M363.994 565.291C440.116 565.291 501.825 503.894 501.825 428.155C501.825 352.417 440.116 291.02 363.994 291.02C287.873 291.02 226.164 352.417 226.164 428.155C226.164 503.894 287.873 565.291 363.994 565.291Z" fill="#CE9729"/>
<path d="M360.139 561.455C436.26 561.455 497.969 500.057 497.969 424.319C497.969 348.581 436.26 287.183 360.139 287.183C284.017 287.183 222.308 348.581 222.308 424.319C222.308 500.057 284.017 561.455 360.139 561.455Z" fill="#F5D483"/>
<path d="M230.619 430.934C230.619 355.196 292.328 293.798 368.45 293.798C399 293.798 427.216 303.704 450.066 320.441C425.925 299.733 394.515 287.183 360.139 287.183C284.017 287.183 222.308 348.581 222.308 424.319C222.308 469.661 244.438 509.846 278.523 534.812C249.205 509.664 230.619 472.47 230.619 430.934Z" fill="#FFE7B3"/>
<path d="M282.874 537.891L475.236 348.896C468.81 339.207 461.199 330.367 452.579 322.607L252.592 510.044C261.228 520.755 271.426 530.166 282.874 537.891Z" fill="#FFE7B3"/>
</g>
<path d="M341.304 459.004C343.028 456.997 342.86 454.047 341.71 448.406C338.932 417.27 300.272 374.693 270.1 405.137C254.838 422.186 262.987 446.847 279.23 456.372C292.631 463.734 308.019 463.064 332.852 461.3C337.058 461.045 339.648 460.933 341.304 459.004Z" fill="#CE9729"/>
<path d="M377.878 458.194C376.154 456.187 376.322 453.237 377.472 447.596C380.251 416.46 418.91 373.883 449.082 404.327C464.345 421.376 456.196 446.037 439.953 455.562C426.551 462.924 411.163 462.254 386.331 460.49C382.124 460.235 379.534 460.123 377.878 458.194Z" fill="#CE9729"/>
<path d="M258.12 447.175C257.47 444.913 255.909 443.117 254.217 441.509C253.594 440.902 253.118 440.14 252.697 439.408C250.316 435.065 249.162 430.209 248.174 425.406C247.112 420.582 247.055 415.604 247.347 410.702C249.816 380.417 264.448 350.786 287.442 330.788C298.251 321.47 311.158 314.582 324.93 310.777C330.682 309.124 336.584 307.54 342.537 306.827C344.194 306.611 345.87 306.54 347.54 306.651C351.936 306.75 356.333 307.497 360.618 308.319C360.618 308.319 360.238 308.324 360.238 308.324C363.343 307.679 366.497 307.356 369.654 307.266C370.369 307.216 371.317 307.242 372.022 307.244C373.597 307.231 375.199 307.187 376.768 307.351C390.079 308.864 402.765 313.724 414.516 319.963C419.357 322.574 424.125 325.365 428.548 328.66C429.228 329.154 429.864 329.699 430.502 330.272C450.901 344.045 466.845 372.179 471.137 397.519C473.17 410.022 472.687 423.434 467.203 435.038C466.325 436.803 465.312 438.634 464.367 440.341C463.687 441.491 462.912 442.577 462.184 443.695C462.184 443.695 462.244 443.553 462.244 443.553C462.043 444.655 462.261 445.808 462.754 446.83C462.815 446.955 462.886 447.101 462.948 447.265L463.042 447.504L463.112 447.744C463.68 449.91 463.329 452.197 462.94 454.348C462.079 457.942 460.53 461.352 458.797 464.596C457.611 466.77 456.285 468.87 454.803 470.867C449.925 475.915 444.633 480.632 439.008 484.835C430.06 491.827 420.545 497.847 411.831 505.082C406.603 509.46 401.396 514.449 396.447 519.153C392.053 523.389 387.525 527.475 382.962 531.53C380.633 533.552 378.353 535.622 375.859 537.459C374.365 538.396 372.747 539.365 371.115 540.044C370.267 540.454 369.146 540.82 368.265 541.137C366.633 541.61 364.965 542.02 363.27 542.185C359.678 542.602 355.971 542.209 352.505 541.228C346.077 539.437 340.264 535.871 334.944 531.967C329.281 527.777 324.088 523.075 318.902 518.408C316.129 515.453 313.305 512.537 310.357 509.751C304.44 504.21 298.339 498.847 291.992 493.81C290.02 492.256 287.993 490.701 285.957 489.229C283.929 487.757 281.722 486.373 279.704 484.889C278.182 483.854 276.248 482.459 274.708 481.446C273.845 480.865 272.947 480.25 272.155 479.55C265.789 473.67 257.867 465.18 257.647 456.07C257.616 455.019 257.808 453.888 258.037 452.868C258.505 450.959 258.709 449.057 258.12 447.175ZM259.361 446.802C259.999 448.831 259.999 451.095 259.689 453.157C259.564 454.097 259.512 455.068 259.587 456.01C260.118 463.576 266.383 470.562 271.572 475.695C272.212 476.326 273.097 477.161 273.738 477.74C275.238 479.007 276.982 480.098 278.551 481.278C280.196 482.47 281.805 483.721 283.43 484.925C285.917 486.656 288.401 488.581 290.742 490.506C297.823 496.336 304.54 502.583 311.075 509.007C313.98 511.856 316.914 514.677 319.753 517.597C324.818 521.942 330.367 526.645 335.994 530.498C341.276 534.123 346.913 537.318 353.116 538.977C358.362 540.4 364 540.41 369.121 538.563C369.772 538.34 370.52 538.005 371.162 537.75C372.356 537.193 373.632 536.499 374.766 535.815C375.803 535.1 376.811 534.308 377.808 533.512C383.206 529.153 388.459 524.593 393.631 519.965C398.657 515.334 404.086 510.553 409.256 506.094C413.208 502.664 417.1 499.167 421.058 495.742C428.916 488.865 437.99 483.564 445.781 476.627C446.952 475.645 448.486 474.179 449.605 473.14C450.683 472.17 452.555 470.182 453.211 469.604C456.727 464.87 459.472 459.523 461.192 453.885C461.778 452.113 462.295 450.26 462.15 448.396C462.115 448.141 462.087 447.851 461.999 447.606C461.481 446.265 461.175 444.773 461.508 443.327C462.625 441.722 463.594 439.884 464.532 438.17C465.413 436.463 466.082 434.515 466.7 432.699C472.376 416.547 469.836 398.775 464.096 383.001C457.408 364.588 444.398 344.491 428.065 333.338C428.065 333.338 427.954 333.265 427.954 333.265L427.782 333.114C425.572 331.166 423.059 329.561 420.574 327.965C407.67 320.074 393.565 313.515 378.635 310.706C377.098 310.431 375.117 310.199 373.598 309.897C373.598 309.897 373.036 309.819 373.036 309.819C368.862 309.295 364.562 309.432 360.447 310.277C355.352 309.263 350.326 308.574 345.29 309.55C344.083 309.728 342.604 309.924 341.394 310.142C336.186 311.071 330.994 312.613 325.917 314.124C312.68 318.005 300.258 324.586 289.645 333.39C266.878 352.467 252.018 381.334 249.132 410.829C248.772 415.584 248.732 420.424 249.667 425.107C250.542 429.779 251.587 434.555 253.848 438.762C254.221 439.417 254.614 440.079 255.144 440.593C256.953 442.318 258.655 444.334 259.361 446.802Z" fill="#CE9729"/>
<path d="M258.34 447.152C249.2 424.073 254.335 394.385 271.734 376.418C281.265 366.503 294.812 361.096 308.426 360.321C309.768 360.223 311.461 360.177 312.815 360.15C315.266 360.195 317.75 360.549 320.119 361.102C327.731 362.872 334.944 366.386 341.022 371.289C342.889 372.834 344.707 374.549 346.274 376.404C346.856 377.054 347.584 377.994 348.104 378.701C348.104 378.701 348.54 379.292 348.54 379.292L348.942 379.908L349.745 381.138L350.47 382.417C350.665 382.76 350.995 383.347 351.155 383.716C351.519 384.466 352.06 385.616 352.335 386.403C353.765 390.019 354.499 393.939 354.514 397.824C354.514 397.824 354.515 399.278 354.515 399.278C354.508 400.154 354.356 401.296 354.306 402.172C354.306 402.172 354.131 402.159 354.131 402.159C354.149 400.777 354.144 399.229 354.035 397.844C353.342 387.515 348.155 378.774 340.193 372.303C334.271 367.54 327.229 364.122 319.821 362.408C317.523 361.877 315.153 361.537 312.802 361.5C311.484 361.531 309.826 361.574 308.517 361.674C295.184 362.453 282.059 367.738 272.699 377.365C257.962 392.499 252.592 415.279 256.048 435.809C256.72 439.57 257.712 443.281 259.14 446.824L258.34 447.152Z" fill="#CE9729"/>
<path d="M282.465 484.927C291.003 484.141 302.334 489.26 306.842 496.647C313.431 505.428 323.743 518.497 330.76 527.454C330.76 527.454 330.076 527.993 330.076 527.993C322.86 518.907 312.756 506.341 305.847 497.237C302.265 491.608 295.61 488.2 289.239 486.721C287.052 486.251 284.799 486.028 282.621 486.275L282.465 484.927Z" fill="#CE9729"/>
<path d="M346.105 459.409C335.082 479.33 308.322 487.869 286.627 486.092C284.213 485.858 281.851 485.448 279.512 484.706C279.512 484.706 280.163 482.825 280.163 482.825C282.288 483.562 284.576 484.025 286.83 484.3C308.186 486.599 334.713 478.792 346.105 459.409Z" fill="#CE9729"/>
<path d="M345.861 459.27C346.42 458.162 346.584 456.83 346.696 455.587C346.803 454.3 346.808 452.999 346.773 451.7C346.697 449.1 346.451 446.502 346.118 443.918C345.685 440.693 345.165 437.476 344.326 434.336C344.004 433.158 343.117 429.882 342.779 428.657C340.004 418.736 337.239 408.339 330.308 400.415C328.844 398.762 327.339 396.913 325.679 395.457C314.113 384.911 296.404 380.287 281.847 387.137C279.519 388.206 277.3 389.509 275.195 390.982C273.193 392.69 270.745 394.988 268.908 397.189C258.997 408.401 255.769 424.636 260.705 438.766C262.505 444.302 265.792 449.881 269.5 454.02C273.822 457.951 279.163 460.699 284.704 462.523C301.084 467.828 320.633 466.915 337.455 464.012C340.636 463.357 344.106 462.196 345.861 459.27ZM346.35 459.549C344.517 462.636 340.936 463.943 337.594 464.66C320.624 467.784 300.944 468.901 284.315 463.715C278.562 461.89 273.067 459.121 268.536 455.078C264.374 450.531 261.199 445.102 259.189 439.278C255.108 427.656 256.187 414.331 262.291 403.598C265.306 398.196 269.477 393.513 274.205 389.591C277.471 387.298 281.096 385.417 284.886 384.132C299.324 379.271 315.657 384.364 326.587 394.477C328.28 395.979 329.788 397.9 331.276 399.607C338.23 407.731 340.966 418.322 343.659 428.42C343.972 429.65 344.841 432.92 345.143 434.117C345.958 437.307 346.449 440.57 346.849 443.827C347.282 448.005 348.16 455.858 346.35 459.549Z" fill="#CE9729"/>
<path d="M436.655 485.6C428.566 484.815 417.249 489.489 412.774 496.407C405.709 505.342 395.25 517.824 387.891 526.718C387.892 526.718 387.219 526.165 387.219 526.165C394.476 517.282 404.987 504.5 411.791 495.8C415.68 489.823 422.857 486.304 429.636 484.751C431.967 484.258 434.377 484.001 436.809 484.252L436.655 485.6Z" fill="#CE9729"/>
<path d="M373.17 458.734C379.275 469.667 390.16 477.177 401.883 481.072C412.09 484.445 423.148 485.839 433.783 484.036C435.272 483.737 436.741 483.373 438.142 482.872L438.804 484.749C437.253 485.258 435.681 485.601 434.106 485.874C411.918 488.904 383.967 479.381 373.17 458.734Z" fill="#CE9729"/>
<path d="M372.926 458.873C371.115 455.192 371.997 447.304 372.427 443.152C372.827 439.895 373.319 436.631 374.133 433.442C374.442 432.262 375.293 428.972 375.617 427.745C378.31 417.648 381.046 407.055 388.001 398.932C389.495 397.231 390.994 395.305 392.689 393.802C403.618 383.689 419.953 378.595 434.391 383.457C438.178 384.746 441.805 386.621 445.072 388.916C449.8 392.837 453.97 397.521 456.985 402.923C463.089 413.656 464.169 426.98 460.087 438.603C458.077 444.427 454.902 449.855 450.741 454.403C446.209 458.445 440.715 461.215 434.962 463.039C418.335 468.225 398.653 467.109 381.682 463.985C378.341 463.268 374.757 461.962 372.926 458.873ZM373.415 458.595C375.171 461.52 378.64 462.68 381.821 463.337C398.642 466.239 418.19 467.153 434.572 461.848C440.113 460.023 445.454 457.276 449.777 453.345C453.48 449.201 456.771 443.629 458.571 438.09C463.505 423.961 460.281 407.725 450.368 396.514C448.533 394.314 446.089 392.006 444.081 390.306C441.977 388.834 439.758 387.53 437.429 386.462C422.871 379.613 405.164 384.234 393.597 394.781C391.931 396.227 390.438 398.091 388.968 399.739C382.037 407.664 379.273 418.06 376.497 427.982C376.17 429.209 375.267 432.465 374.951 433.66C374.112 436.8 373.592 440.017 373.159 443.242C372.691 447.299 371.75 454.996 373.415 458.595Z" fill="#CE9729"/>
<path d="M317.102 488.302C317.225 488.257 317.379 488.087 317.403 487.922C317.426 487.789 317.411 487.794 317.407 487.727C317.383 487.65 317.378 487.642 317.358 487.616C317.331 487.596 317.333 487.615 317.344 487.651C317.423 487.954 317.657 488.218 317.922 488.389C317.922 488.389 318.99 489.186 318.99 489.186C320.425 490.243 321.864 491.301 323.235 492.443C325.749 494.59 328.169 496.872 330.851 498.794C334.573 501.437 338.685 503.577 342.965 505.119C359.266 511.005 378.68 507.913 391.571 496.043C392.417 495.368 393.235 494.668 394.047 493.926C396.049 492.086 398.119 490.274 400.431 488.824C400.874 488.528 401.179 488.317 401.536 488.003C401.536 488.003 401.784 488.14 401.784 488.14C400.295 488.413 398.05 489.049 396.548 489.426C387.829 491.59 379.005 493.63 370.067 494.628C368.288 494.848 365.788 494.974 363.991 495.117C362.784 495.156 360.482 495.22 359.248 495.257C357.472 495.218 355.603 495.192 353.828 495.099C346.629 494.712 339.454 493.551 332.43 491.97C328.157 491.003 323.678 489.956 319.471 488.75C319.471 488.75 318.213 488.389 318.213 488.389L317.898 488.298C317.607 488.165 317.392 488.394 317.102 488.302ZM316.504 487.22C316.888 487.301 317.274 487.662 317.661 487.725C317.661 487.725 317.996 487.799 317.996 487.799L319.346 488.1C320.965 488.466 323.181 488.995 324.74 489.326C337.347 492.162 350.321 493.744 363.25 493.406C375.319 493.057 387.343 491.242 399.074 488.416C400.011 488.203 400.942 487.964 401.861 487.679L401.936 487.877C402.013 488.126 401.869 488.304 401.741 488.458C401.604 488.619 401.024 489.174 400.847 489.338C400.847 489.338 399.679 490.471 399.679 490.471C398.9 491.218 398.124 491.965 397.301 492.662C395.763 494.055 394.035 495.889 392.591 497.107C390.342 499.305 387.873 501.343 385.248 503.077C368.818 513.991 347.276 512.921 331.576 501.188C329.072 499.343 326.686 497.191 324.499 495.003C322.608 493.151 320.672 491.353 318.576 489.734C318.576 489.734 317.508 488.947 317.508 488.947C317.234 488.68 316.863 488.638 316.528 488.444C316.459 488.403 316.389 488.336 316.305 488.223C316.261 488.147 316.224 488.092 316.195 487.959C316.189 487.929 316.184 487.899 316.181 487.869C316.178 487.858 316.172 487.782 316.191 487.682C316.219 487.49 316.376 487.292 316.504 487.22Z" fill="#CE9729"/>
<path d="M358.442 368.224C337.684 342.114 300.767 350.927 278.525 370.315C275.286 373.133 272.334 376.249 269.84 379.76C271.247 376.889 273.277 374.191 275.426 371.773C277.602 369.338 280.021 367.108 282.591 365.091C299.42 352.117 324.274 345.01 344.083 355.247C349.884 358.267 354.846 362.805 358.653 368.063C358.653 368.063 358.442 368.224 358.442 368.224Z" fill="#CE9729"/>
<path d="M360.127 352.813C355.29 349.771 350.008 347.454 344.46 346.137C342.902 345.735 341.179 345.452 339.589 345.178C338.492 345.066 337.16 344.856 336.065 344.795C319.067 343.545 301.841 349.533 288.535 360.014C284.857 363.002 281.523 366.412 278.891 370.384C278.891 370.384 278.619 370.225 278.619 370.225C289.074 351.783 315.562 341.129 336.19 343.458C337.308 343.551 338.67 343.806 339.786 343.953C341.405 344.274 343.155 344.629 344.732 345.106C345.575 345.302 346.674 345.694 347.496 345.976C347.496 345.976 348.866 346.447 348.866 346.447L350.2 347.01C353.761 348.496 357.133 350.407 360.211 352.693L360.127 352.813Z" fill="#CE9729"/>
<path d="M462.838 441.181C470.35 420.332 467.095 400.904 453.601 383.41C451.332 380.477 449.013 377.51 446.506 374.78C442.736 370.71 438.053 367.537 432.962 365.348C416.223 358.281 394.556 360.607 380.748 372.772C375.244 377.693 371.219 384.184 369.054 391.228C367.937 394.774 367.287 398.455 367.02 402.168L366.844 402.163C366.775 396.043 368.039 389.885 370.628 384.325C379.442 364.992 402.627 357.334 422.558 361.019C431.859 362.697 440.835 367.068 447.228 374.113C450.954 378.353 454.441 382.783 457.561 387.486C468.566 404.114 470.299 422.797 463.68 441.485L462.838 441.181Z" fill="#CE9729"/>
<path d="M362.5 368.063C379.595 344.498 410.753 347.271 433.119 361.474C438.165 364.681 442.833 368.529 446.722 373.074C448.448 375.139 450.119 377.395 451.313 379.759C448.88 376.207 445.942 373.052 442.725 370.21C426.969 356.572 404.16 347.605 383.453 353.758C375.225 356.249 368.039 361.51 362.711 368.224C362.711 368.224 362.5 368.063 362.5 368.063Z" fill="#CE9729"/>
<path d="M360.939 352.692C365.162 349.547 369.994 347.113 375.026 345.505C376.416 345.1 377.81 344.682 379.23 344.391C379.725 344.284 380.891 344.051 381.364 343.953C382.483 343.806 383.842 343.551 384.961 343.457C405.59 341.131 432.067 351.774 442.531 370.224C442.531 370.224 442.259 370.383 442.259 370.383C439.627 366.411 436.294 363.001 432.616 360.013C419.31 349.533 402.082 343.544 385.086 344.795C383.991 344.855 382.655 345.065 381.562 345.177C381.086 345.255 379.948 345.463 379.466 345.545C378.066 345.776 376.687 346.131 375.311 346.474C374.64 346.679 373.26 347.088 372.587 347.292C368.548 348.688 364.655 350.506 361.023 352.813C361.023 352.813 360.939 352.692 360.939 352.692Z" fill="#CE9729"/>
<path d="M361.252 342.222C363.432 338.598 369.265 336.377 373.383 336.669C374.044 336.706 374.707 336.856 375.317 337.092C374.007 337.011 372.748 337.173 371.499 337.42C367.902 338.171 363.898 339.575 361.252 342.222Z" fill="#CE9729"/>
<path d="M359.992 335.195C348.348 328.145 331.489 329.092 318.977 333.384C317.079 334.054 315.219 334.86 313.508 335.923C313.508 335.923 313.246 335.56 313.246 335.56C314.668 334.438 316.281 333.572 317.92 332.813C328.924 328.004 343.769 326.836 354.955 331.61C356.851 332.447 358.684 333.44 360.347 334.668L359.992 335.195Z" fill="#CE9729"/>
<path d="M362.014 334.321C367.129 329.816 376.691 329.22 383.13 330.571C384.45 330.866 385.785 331.265 386.947 331.962C385.922 331.643 384.874 331.468 383.813 331.352C378.566 330.836 373.215 331.236 368.078 332.376C366.028 332.847 364.026 333.488 362.113 334.462L362.014 334.321Z" fill="#CE9729"/>
<path d="M360.894 327.289C364.865 322.564 372.695 321.235 378.49 322.596C379.364 322.82 380.23 323.125 380.998 323.591C379.733 323.147 378.423 322.957 377.097 322.873C373.174 322.647 369.148 323.187 365.509 324.691C363.903 325.37 362.384 326.268 361.07 327.454L360.894 327.289Z" fill="#CE9729"/>
<path d="M359.024 326.392C352.608 323.086 342.05 322.348 334.928 323.303C333.766 323.474 332.615 323.728 331.5 324.131C332.548 323.573 333.695 323.201 334.854 322.922C341.461 321.471 349.713 321.933 356.012 324.457C357.114 324.925 358.191 325.477 359.153 326.191L359.024 326.392Z" fill="#CE9729"/>
<path d="M356.473 471.559C356.886 471.114 355.151 465.96 354.399 465.709C353.399 464.912 351.727 464.619 351.334 465.169C350.461 466.391 355.712 472.037 356.473 471.559Z" fill="#CE9729"/>
<path d="M362.334 471.65C361.921 471.205 363.656 466.051 364.408 465.8C365.408 465.003 367.08 464.71 367.473 465.26C368.346 466.482 363.095 472.128 362.334 471.65Z" fill="#CE9729"/>
<path d="M359.893 494.579C359.714 494.76 359.552 500.055 360.089 500.384C361.259 502.121 362.122 501.741 365.386 501.532C368.991 501.218 369.215 501.86 370.683 499.507C371.027 498.72 370.876 498.218 370.879 496.604C371.334 492.036 370.165 494.271 365.582 494.444C362.321 494.6 360.631 493.577 359.893 494.579Z" stroke="#CE9729" stroke-width="3" stroke-miterlimit="10"/>
<path d="M359.9 494.579C360.109 494.879 359.904 494.935 359.833 496.874C359.7 499.475 360.151 499.947 358.577 501.33C357.605 502.029 356.714 501.767 353.911 501.6C349.296 501.537 347.979 501.032 348.231 496.672C348.227 494.64 347.977 494.497 348.231 494.174C348.897 493.325 350.58 494.358 353.708 494.512C357.227 494.685 359.201 493.575 359.9 494.579Z" stroke="#CE9729" stroke-width="3" stroke-miterlimit="10"/>
<path d="M370.855 499.304C372.28 500.926 376.793 500.26 377.684 497.684C377.895 497.06 377.706 496.848 377.617 495.119C377.543 493.683 377.654 493.472 377.414 493.229C376.877 492.686 375.669 493.171 374.303 493.432C372.106 493.85 371.013 493.356 370.719 493.968C370.553 494.313 370.916 494.437 370.964 495.496C370.993 496.137 370.868 496.28 370.888 497.302C370.895 497.626 370.909 497.737 370.909 498.109C370.908 498.615 370.88 499.029 370.855 499.304Z" stroke="#CE9729" stroke-width="3" stroke-miterlimit="10"/>
<path d="M377.684 497.684C379.007 498.932 381.593 498.01 382.485 496.469C382.518 496.409 382.546 496.354 382.57 496.293C382.826 495.653 382.884 495.121 382.89 494.174C382.9 492.672 382.838 492.529 382.709 492.417C382.617 492.337 382.459 492.247 381.619 492.262C380.982 492.273 380.606 492.28 379.915 492.419C378.509 492.702 377.806 492.843 377.564 493.315C377.49 493.459 377.531 494.014 377.616 495.119C377.66 495.691 377.68 495.834 377.696 496.181C377.726 496.82 377.705 497.342 377.684 497.684Z" stroke="#CE9729" stroke-width="3" stroke-miterlimit="10"/>
<path d="M382.833 495.536C383.07 496.18 384.704 496.449 385.797 496.058C387.259 495.535 388.193 493.676 388.244 491.406C387.427 491.663 386.74 491.77 386.244 491.82C385.126 491.932 383.234 491.925 382.957 492.413C382.916 492.486 382.887 492.567 382.887 492.567C382.833 492.745 382.875 492.927 382.875 493.329C382.875 493.347 382.875 493.339 382.875 493.384C382.873 493.971 382.892 494.334 382.887 494.672C382.877 495.386 382.773 495.373 382.833 495.536Z" stroke="#CE9729" stroke-width="3" stroke-miterlimit="10"/>
<path d="M387.754 494.023C388.171 494.118 388.928 494.232 389.839 494.04C390.649 493.868 391.24 493.526 391.58 493.293C392.536 492.328 392.922 491.284 392.595 490.458C391.626 490.731 390.892 490.862 390.386 490.931C389.963 490.988 389.551 491.109 389.127 491.157C388.647 491.212 388.375 491.207 388.243 491.406C388.138 491.564 388.227 491.692 388.209 492.151C388.199 492.407 388.163 492.582 388.1 492.887C388.039 493.184 387.936 493.576 387.754 494.023Z" stroke="#CE9729" stroke-width="3" stroke-miterlimit="10"/>
<path d="M392.385 492.235C392.62 492.304 392.925 492.365 393.283 492.371C393.995 492.381 394.55 492.164 394.86 492.012C395.198 491.693 395.555 491.325 395.915 490.906C396.372 490.374 396.749 489.858 397.058 489.384C396.734 489.481 396.397 489.575 396.046 489.665C395.629 489.771 395.226 489.863 394.837 489.942C394.489 490.017 394.138 490.095 393.783 490.176C393.381 490.268 392.986 490.363 392.596 490.459C392.654 490.632 392.728 490.929 392.697 491.298C392.66 491.746 392.487 492.072 392.385 492.235Z" stroke="#CE9729" stroke-width="3" stroke-miterlimit="10"/>
<path d="M340.832 493.071C339.827 494.376 340.709 496.995 341.463 498.246C341.775 498.63 342.239 499.002 345.114 499.686C347.478 500.248 347.976 500.189 348.18 499.911C348.315 499.603 348.109 497.611 348.27 496.941C348.377 494.619 348.078 493.891 345.43 493.791C342.212 493.354 341.475 492.512 340.832 493.071Z" stroke="#CE9729" stroke-width="3" stroke-miterlimit="10"/>
<path d="M334.925 492.261C334.195 492.803 334.648 494.505 334.699 494.691C335.296 497.185 338.49 498.145 340.109 497.437C341.116 496.366 340.406 495.818 340.47 494.196C340.498 493.556 340.606 493.538 340.515 493.341C340.226 492.721 339.198 492.979 337.179 492.576C335.719 492.285 335.325 491.964 334.925 492.261Z" stroke="#CE9729" stroke-width="3" stroke-miterlimit="10"/>
<path d="M329.021 491.04C327.602 493.417 332.425 496.908 334.475 495.001C334.66 494.699 334.495 494.505 334.52 493.515C334.543 492.601 334.69 492.508 334.565 492.255C334.31 491.74 333.549 491.825 332.131 491.58C330.046 491.22 329.457 490.648 329.021 491.04Z" stroke="#CE9729" stroke-width="3" stroke-miterlimit="10"/>
<path d="M323.068 489.385C323.407 489.929 324.336 491.256 326.103 492.008C327.219 492.483 328.229 492.541 328.839 492.526C328.815 492.441 328.789 492.324 328.775 492.182C328.765 492.079 328.753 491.959 328.774 491.811C328.783 491.746 328.808 491.562 328.901 491.393C329.077 491.074 329.413 490.955 329.522 490.921C328.527 490.693 327.527 490.46 326.52 490.221C325.36 489.945 324.209 489.667 323.068 489.385Z" stroke="#CE9729" stroke-width="3" stroke-miterlimit="10"/>
<path d="M359.81 509.137C359.479 508.348 359.405 505.278 360.103 504.502C360.476 504.093 361.067 504.085 362.334 504.165C364.776 504.318 364.942 504.394 365.107 504.57C365.691 505.167 365.651 507.858 365.242 508.62C364.275 510.329 360.484 510.34 359.81 509.137Z" stroke="#CE9729" stroke-width="3" stroke-miterlimit="10"/>
<path d="M359.448 508.597C359.655 508.029 359.554 506.349 359.583 505.717C359.62 505.195 359.666 504.922 359.178 504.411C358.711 503.977 358.074 504.003 356.946 504.074C354.505 504.228 354.339 504.303 354.174 504.479C353.595 505.044 353.624 507.851 354.039 508.529C355.024 510.124 358.845 509.862 359.448 508.597Z" stroke="#CE9729" stroke-width="3" stroke-miterlimit="10"/>
<path d="M365.294 504.876C365.388 504.529 366.151 504.449 366.572 504.412C368.092 504.276 370.693 504.044 370.962 504.86C370.985 504.933 370.971 504.954 371.051 505.358C371.14 505.806 371.221 506.103 371.244 506.197C371.319 506.512 371.315 507.016 370.945 507.832C370.487 508.279 369.663 508.954 368.468 509.278C366.958 509.687 365.135 509.462 365.013 508.937C364.972 508.757 365.171 508.716 365.38 508.241C365.618 507.701 365.6 507.215 365.572 506.445C365.554 505.947 365.545 505.697 365.44 505.389C365.345 505.109 365.257 505.012 365.294 504.876Z" stroke="#CE9729" stroke-width="3" stroke-miterlimit="10"/>
<path d="M370.99 504.682C371.762 502.983 374.323 503.582 375.318 504.321C375.6 504.741 375.649 505.081 375.623 505.333C375.455 506.978 371.811 507.827 371.431 507.254C371.366 507.157 371.426 507.063 371.338 506.57C371.283 506.267 371.225 506.101 371.17 505.897C371.097 505.621 371.014 505.216 370.99 504.682Z" stroke="#CE9729" stroke-width="3" stroke-miterlimit="10"/>
<path d="M375.316 504.322C375.367 502.862 376.498 502.663 377.931 502.387C379.159 502.002 379.379 501.478 379.869 501.622C383.352 504.405 376.676 506.929 375.542 505.942C375.619 505.253 375.835 505.162 375.316 504.322Z" stroke="#CE9729" stroke-width="3" stroke-miterlimit="10"/>
<path d="M380.502 501.892C380.519 500.268 381.567 500.569 382.801 500.092C383.38 499.688 384.323 498.56 385.235 498.697C385.479 498.781 385.983 498.992 386.359 499.497C386.593 499.813 386.705 500.143 386.723 500.272C386.898 501.513 381.151 503.389 380.908 503.467C380.892 503.333 380.873 503.22 380.867 503.133C380.862 503.047 380.849 502.937 380.817 502.792C380.707 502.292 380.546 502.192 380.502 501.892Z" stroke="#CE9729" stroke-width="3" stroke-miterlimit="10"/>
<path d="M386.553 499.814C386.416 499.55 386.25 499.387 386.108 499.25C385.993 499.138 385.828 498.995 385.605 498.858C385.636 498.692 385.709 498.422 385.915 498.182C386.156 497.901 386.406 497.653 387.353 497.526C388.784 497.335 388.879 496.505 389.652 495.951C390.488 495.601 391.297 496.644 391.049 497.301C390.853 498.904 387.095 500.15 386.721 500.271C386.695 500.156 386.647 499.993 386.553 499.814Z" stroke="#CE9729" stroke-width="3" stroke-miterlimit="10"/>
<path d="M353.741 504.591C353.553 504.226 352.979 504.169 352.614 504.141C348.429 503.605 347.612 504.369 348.242 507.562C348.806 509.078 352.584 509.6 353.336 508.462C353.564 508.137 353.572 506.131 353.651 505.581C353.745 504.987 353.855 504.813 353.741 504.591Z" stroke="#CE9729" stroke-width="3" stroke-miterlimit="10"/>
<path d="M348.196 504.412C347.425 502.714 344.863 503.312 343.869 504.052C342.326 506.448 347.069 508.25 347.971 507.067C348.16 506.796 347.874 506.56 348.016 505.627C348.115 504.972 348.302 504.781 348.196 504.412Z" stroke="#CE9729" stroke-width="3" stroke-miterlimit="10"/>
<path d="M343.868 504.052C343.817 502.591 342.686 502.393 341.253 502.117C340.025 501.731 339.805 501.207 339.315 501.352C335.832 504.135 342.508 506.658 343.642 505.672C343.565 504.983 343.349 504.891 343.868 504.052Z" stroke="#CE9729" stroke-width="3" stroke-miterlimit="10"/>
<path d="M338.685 501.622C338.667 499.998 337.619 500.299 336.386 499.822C335.807 499.418 334.864 498.289 333.952 498.427C333.741 498.483 333.077 498.691 332.689 499.327C332.689 499.327 332.353 499.878 332.421 500.536C332.538 501.667 334.954 502.721 338.279 503.197C338.36 503.097 338.267 502.982 338.369 502.522C338.48 502.022 338.641 501.922 338.685 501.622Z" stroke="#CE9729" stroke-width="3" stroke-miterlimit="10"/>
<path d="M332.58 499.519C332.656 499.376 332.739 499.307 333.076 498.98C333.203 498.856 333.304 498.756 333.364 498.697C333.532 497.748 332.908 497.392 331.832 497.257C330.4 497.065 330.305 496.235 329.533 495.681C328.696 495.331 327.887 496.374 328.135 497.032C328.331 498.634 332.089 499.881 332.463 500.002C332.468 499.772 332.53 499.615 332.58 499.519Z" stroke="#CE9729" stroke-width="3" stroke-miterlimit="10"/>
<path d="M378.045 462.731C391.6 468.32 406.239 471.241 420.919 470.755C406.281 471.85 391.228 469.256 378.045 462.731Z" fill="#CE9729"/>
<path d="M342.884 462.732C329.7 469.256 314.648 471.85 300.01 470.756C314.69 471.241 329.329 468.32 342.884 462.732Z" fill="#CE9729"/>
<path d="M357.564 465.48C355.966 461.278 350.959 459.158 349.07 464.357C347.995 468.416 352.428 471.902 355.695 473.505C351.925 472.28 347.175 468.632 348.356 464.141C350.344 458.397 356.43 460.338 357.564 465.48Z" fill="#CE9729"/>
<path d="M361.023 465.482C362.158 460.336 368.243 458.4 370.232 464.141C371.413 468.633 366.667 472.278 362.894 473.506C366.157 471.906 370.594 468.414 369.518 464.357C367.627 459.156 362.619 461.282 361.023 465.482Z" fill="#CE9729"/>
<path d="M352.33 458.949C356.198 455.473 362.577 455.403 366.538 458.762C362.145 456.047 356.657 456.152 352.33 458.949Z" fill="#CE9729"/>
<path d="M349.807 453.96C352.38 447.746 360.394 445.556 365.86 449.413C367.61 450.611 368.972 452.34 369.717 454.283C368.778 452.426 367.346 450.86 365.625 449.767C360.211 446.265 352.843 448.322 349.807 453.96Z" fill="#CE9729"/>
<path d="M346.945 448.533C349.924 443.956 355.088 441.126 360.602 441.533C365.347 441.858 369.749 444.747 372.275 448.701C369.091 444.594 364.011 441.743 358.73 442.101C354.086 442.31 349.781 444.921 346.945 448.533Z" fill="#CE9729"/>
<path d="M342.146 458.429C343.87 456.422 343.702 453.472 342.552 447.831C339.773 416.695 301.114 374.117 270.942 404.561C255.679 421.611 263.829 446.272 280.072 455.796C293.473 463.159 308.861 462.488 333.693 460.725C337.9 460.469 340.49 460.357 342.146 458.429Z" fill="#FFE7B3"/>
<path d="M378.72 457.618C376.996 455.611 377.164 452.661 378.314 447.02C381.093 415.885 419.752 373.307 449.924 403.751C465.187 420.8 457.037 445.462 440.794 454.986C427.393 462.349 412.005 461.678 387.172 459.914C382.966 459.659 380.376 459.547 378.72 457.618Z" fill="#FFE7B3"/>
<path d="M258.962 446.6C258.312 444.337 256.751 442.541 255.059 440.934C254.435 440.327 253.96 439.564 253.539 438.832C251.158 434.49 250.004 429.634 249.015 424.83C247.954 420.007 247.897 415.028 248.189 410.127C250.658 379.841 265.289 350.211 288.284 330.212C299.093 320.895 312 314.007 325.772 310.202C331.524 308.549 337.425 306.965 343.379 306.251C345.036 306.035 346.712 305.964 348.382 306.076C352.778 306.175 357.175 306.922 361.459 307.743C361.459 307.743 361.08 307.748 361.08 307.748C364.185 307.103 367.339 306.781 370.495 306.69C371.21 306.641 372.158 306.666 372.864 306.669C374.438 306.655 376.041 306.611 377.61 306.775C390.921 308.289 403.606 313.148 415.358 319.387C420.199 321.998 424.967 324.79 429.389 328.085C430.07 328.578 430.706 329.124 431.344 329.696C451.743 343.47 467.687 371.603 471.979 396.944C474.012 409.447 473.529 422.858 468.045 434.462C467.167 436.227 466.154 438.058 465.209 439.766C464.529 440.915 463.753 442.002 463.026 443.12C463.026 443.12 463.086 442.977 463.086 442.977C462.885 444.08 463.103 445.233 463.596 446.254C463.657 446.379 463.728 446.525 463.79 446.689L463.884 446.928L463.954 447.169C464.522 449.334 464.171 451.621 463.782 453.773C462.921 457.367 461.372 460.776 459.638 464.021C458.453 466.195 457.127 468.295 455.645 470.291C450.767 475.34 445.475 480.056 439.85 484.259C430.901 491.251 421.387 497.272 412.673 504.507C407.444 508.884 402.238 513.874 397.289 518.578C392.894 522.813 388.367 526.899 383.804 530.954C381.475 532.977 379.195 535.046 376.7 536.884C375.207 537.82 373.588 538.79 371.957 539.468C371.108 539.879 369.988 540.245 369.107 540.562C367.475 541.034 365.807 541.445 364.112 541.609C360.52 542.026 356.813 541.633 353.347 540.652C346.919 538.862 341.106 535.296 335.785 531.392C330.123 527.202 324.93 522.5 319.744 517.832C316.971 514.878 314.147 511.962 311.199 509.175C305.282 503.635 299.18 498.272 292.833 493.234C290.862 491.681 288.835 490.126 286.799 488.654C284.771 487.182 282.563 485.797 280.546 484.314C279.023 483.279 277.09 481.883 275.549 480.871C274.687 480.29 273.789 479.674 272.997 478.974C266.63 473.095 258.708 464.605 258.489 455.495C258.458 454.443 258.65 453.313 258.879 452.293C259.347 450.383 259.551 448.482 258.962 446.6ZM260.203 446.226C260.84 448.256 260.841 450.519 260.531 452.582C260.406 453.522 260.354 454.493 260.429 455.435C260.959 463 267.224 469.986 272.414 475.12C273.054 475.751 273.938 476.586 274.58 477.165C276.08 478.431 277.823 479.522 279.393 480.702C281.037 481.895 282.647 483.145 284.272 484.35C286.758 486.08 289.243 488.005 291.584 489.931C298.665 495.761 305.382 502.008 311.917 508.432C314.822 511.28 317.756 514.101 320.595 517.022C325.66 521.366 331.209 526.069 336.836 529.922C342.117 533.548 347.755 536.742 353.958 538.401C359.204 539.825 364.842 539.834 369.962 537.988C370.614 537.764 371.362 537.43 372.004 537.174C373.198 536.618 374.474 535.923 375.608 535.24C376.645 534.524 377.653 533.733 378.649 532.937C384.048 528.578 389.301 524.018 394.473 519.39C399.499 514.758 404.928 509.977 410.098 505.518C414.049 502.089 417.941 498.592 421.9 495.167C429.758 488.289 438.832 482.988 446.623 476.051C447.794 475.07 449.328 473.604 450.446 472.564C451.524 471.595 453.397 469.607 454.053 469.028C457.569 464.295 460.314 458.948 462.033 453.309C462.62 451.537 463.137 449.684 462.992 447.821C462.957 447.565 462.929 447.275 462.841 447.031C462.323 445.69 462.017 444.197 462.35 442.752C463.467 441.146 464.436 439.308 465.374 437.595C466.255 435.887 466.923 433.939 467.541 432.123C473.218 415.972 470.678 398.2 464.938 382.425C458.249 364.012 445.24 343.915 428.907 332.762C428.906 332.762 428.796 332.689 428.796 332.689L428.623 332.538C426.413 330.59 423.901 328.985 421.415 327.39C408.512 319.499 394.407 312.939 379.477 310.131C377.939 309.856 375.959 309.624 374.44 309.322C374.44 309.322 373.878 309.244 373.878 309.244C369.704 308.72 365.404 308.857 361.289 309.701C356.194 308.688 351.168 307.998 346.131 308.975C344.925 309.153 343.446 309.348 342.236 309.566C337.027 310.496 331.836 312.038 326.759 313.549C313.522 317.429 301.1 324.01 290.487 332.814C267.72 351.892 252.86 380.758 249.973 410.254C249.614 415.008 249.574 419.848 250.509 424.532C251.384 429.203 252.429 433.979 254.69 438.187C255.063 438.842 255.456 439.503 255.986 440.018C257.795 441.743 259.497 443.759 260.203 446.226Z" fill="#FFE7B3"/>
<path d="M259.182 446.577C250.042 423.498 255.177 393.81 272.576 375.843C282.107 365.928 295.654 360.521 309.268 359.746C310.61 359.648 312.303 359.602 313.657 359.575C316.108 359.619 318.592 359.973 320.961 360.527C328.572 362.297 335.785 365.811 341.864 370.714C343.731 372.258 345.549 373.973 347.115 375.828C347.698 376.479 348.426 377.418 348.946 378.126C348.946 378.126 349.382 378.717 349.382 378.717L349.784 379.333L350.587 380.563L351.312 381.842C351.507 382.185 351.837 382.771 351.997 383.141C352.36 383.891 352.902 385.041 353.177 385.828C354.607 389.443 355.341 393.364 355.356 397.249C355.356 397.249 355.357 398.703 355.357 398.703C355.35 399.579 355.198 400.721 355.148 401.597C355.148 401.597 354.973 401.584 354.973 401.584C354.99 400.202 354.985 398.654 354.877 397.269C354.184 386.94 348.997 378.199 341.034 371.728C335.112 366.965 328.071 363.546 320.662 361.833C318.365 361.302 315.995 360.962 313.644 360.925C312.326 360.956 310.668 360.998 309.358 361.098C296.026 361.878 282.9 367.163 273.541 376.789C258.803 391.924 253.434 414.704 256.89 435.234C257.562 438.995 258.554 442.706 259.982 446.249L259.182 446.577Z" fill="#FFE7B3"/>
<path d="M283.307 484.351C291.845 483.565 303.176 488.684 307.684 496.071C314.272 504.853 324.584 517.922 331.601 526.878C331.601 526.878 330.917 527.418 330.917 527.418C323.702 518.331 313.598 505.765 306.689 496.662C303.107 491.032 296.452 487.624 290.081 486.146C287.894 485.675 285.641 485.453 283.463 485.699L283.307 484.351Z" fill="#FFE7B3"/>
<path d="M346.946 458.834C335.924 478.755 309.164 487.293 287.469 485.517C285.055 485.283 282.693 484.873 280.353 484.131C280.353 484.131 281.005 482.25 281.005 482.25C283.13 482.987 285.418 483.449 287.671 483.725C309.028 486.024 335.555 478.216 346.946 458.834Z" fill="#FFE7B3"/>
<path d="M346.703 458.695C347.262 457.586 347.426 456.254 347.537 455.011C347.644 453.724 347.65 452.423 347.615 451.124C347.539 448.525 347.293 445.926 346.96 443.342C346.527 440.117 346.006 436.9 345.168 433.76C344.846 432.582 343.958 429.306 343.621 428.081C340.846 418.161 338.081 407.763 331.15 399.839C329.686 398.186 328.181 396.337 326.521 394.881C314.955 384.335 297.245 379.712 282.689 386.561C280.36 387.63 278.142 388.934 276.037 390.406C274.035 392.115 271.587 394.412 269.75 396.614C259.839 407.826 256.611 424.06 261.547 438.19C263.346 443.726 266.634 449.306 270.342 453.444C274.664 457.375 280.005 460.123 285.546 461.947C301.925 467.252 321.475 466.339 338.297 463.437C341.478 462.781 344.948 461.62 346.703 458.695ZM347.192 458.973C345.359 462.061 341.778 463.368 338.436 464.084C321.466 467.209 301.786 468.325 285.157 463.139C279.404 461.314 273.909 458.545 269.377 454.502C265.216 449.955 262.041 444.526 260.031 438.702C255.95 427.08 257.028 413.756 263.133 403.022C266.148 397.621 270.319 392.937 275.047 389.015C278.313 386.722 281.938 384.842 285.728 383.557C300.166 378.695 316.499 383.788 327.429 393.902C329.122 395.403 330.63 397.324 332.117 399.032C339.072 407.155 341.808 417.746 344.501 427.845C344.813 429.074 345.683 432.345 345.985 433.542C346.8 436.731 347.291 439.994 347.691 443.251C348.124 447.43 349.002 455.282 347.192 458.973Z" fill="#FFE7B3"/>
<path d="M437.496 485.024C429.408 484.239 418.091 488.913 413.616 495.832C406.551 504.766 396.091 517.249 388.733 526.142C388.733 526.142 388.06 525.589 388.06 525.589C395.318 516.706 405.829 503.924 412.633 495.225C416.522 489.247 423.699 485.729 430.478 484.175C432.809 483.683 435.219 483.425 437.651 483.676L437.496 485.024Z" fill="#FFE7B3"/>
<path d="M374.012 458.159C380.117 469.092 391.002 476.601 402.724 480.496C412.932 483.869 423.99 485.264 434.625 483.46C436.113 483.161 437.583 482.797 438.984 482.296L439.646 484.174C438.095 484.683 436.523 485.026 434.948 485.298C412.76 488.328 384.808 478.805 374.012 458.159Z" fill="#FFE7B3"/>
<path d="M373.768 458.298C371.956 454.617 372.839 446.729 373.269 442.576C373.669 439.319 374.16 436.056 374.975 432.866C375.284 431.687 376.135 428.397 376.459 427.169C379.152 417.072 381.888 406.479 388.843 398.356C390.323 396.644 391.845 394.739 393.531 393.226C404.46 383.113 420.795 378.019 435.232 382.881C439.02 384.17 442.646 386.045 445.913 388.34C450.641 392.262 454.812 396.945 457.827 402.347C463.931 413.081 465.011 426.405 460.929 438.027C458.919 443.851 455.744 449.279 451.583 453.827C447.051 457.87 441.556 460.64 435.803 462.463C419.177 467.65 399.495 466.533 382.524 463.409C379.183 462.693 375.599 461.386 373.768 458.298ZM374.257 458.019C376.013 460.944 379.482 462.105 382.663 462.761C399.484 465.664 419.032 466.577 435.414 461.272C440.955 459.447 446.296 456.7 450.618 452.769C454.322 448.626 457.612 443.053 459.413 437.515C464.347 423.386 461.123 407.149 451.209 395.938C449.375 393.738 446.93 391.43 444.923 389.731C442.818 388.258 440.599 386.955 438.271 385.886C423.73 379.037 405.99 383.663 394.439 394.206C392.772 395.651 391.28 397.516 389.81 399.164C382.879 407.089 380.115 417.485 377.339 427.406C377.012 428.633 376.109 431.89 375.792 433.085C374.953 436.225 374.433 439.442 374 442.667C373.532 446.724 372.592 454.421 374.257 458.019Z" fill="#FFE7B3"/>
<path d="M317.943 487.727C318.067 487.682 318.221 487.512 318.245 487.347C318.267 487.213 318.253 487.219 318.249 487.152C318.225 487.075 318.22 487.066 318.199 487.041C318.173 487.021 318.175 487.039 318.185 487.076C318.265 487.379 318.498 487.642 318.764 487.814C318.764 487.814 319.832 488.61 319.832 488.61C321.267 489.668 322.706 490.726 324.077 491.868C326.591 494.015 329.011 496.296 331.693 498.219C335.415 500.862 339.527 503.002 343.806 504.544C360.107 510.43 379.522 507.338 392.413 495.467C393.259 494.793 394.077 494.093 394.889 493.351C396.891 491.511 398.96 489.699 401.273 488.248C401.716 487.953 402.021 487.742 402.378 487.427C402.378 487.427 402.626 487.565 402.626 487.565C401.137 487.838 398.892 488.473 397.39 488.851C388.671 491.014 379.847 493.055 370.909 494.053C369.13 494.272 366.63 494.399 364.833 494.541C363.625 494.581 361.324 494.645 360.09 494.681C358.314 494.643 356.445 494.616 354.669 494.524C347.47 494.137 340.295 492.975 333.272 491.395C328.999 490.428 324.52 489.381 320.312 488.175C320.312 488.175 319.055 487.814 319.055 487.814L318.74 487.723C318.449 487.59 318.233 487.819 317.943 487.727ZM317.345 486.645C317.73 486.726 318.116 487.087 318.503 487.15C318.503 487.15 318.838 487.224 318.838 487.224L320.188 487.524C321.807 487.891 324.023 488.419 325.582 488.751C338.189 491.586 351.163 493.169 364.092 492.831C376.161 492.481 388.185 490.666 399.916 487.84C400.853 487.628 401.784 487.389 402.702 487.104L402.778 487.302C402.855 487.55 402.71 487.729 402.583 487.883C402.446 488.044 401.866 488.599 401.689 488.762C401.689 488.762 400.521 489.896 400.521 489.896C399.742 490.643 398.966 491.39 398.143 492.087C396.605 493.48 394.877 495.314 393.432 496.532C391.184 498.73 388.715 500.768 386.09 502.501C369.66 513.416 348.118 512.345 332.417 500.613C329.913 498.767 327.528 496.615 325.341 494.428C323.449 492.576 321.514 490.778 319.418 489.159C319.418 489.159 318.35 488.372 318.35 488.372C318.076 488.105 317.705 488.062 317.369 487.869C317.301 487.828 317.231 487.761 317.147 487.647C317.102 487.572 317.065 487.517 317.037 487.383C317.03 487.354 317.026 487.324 317.023 487.294C317.02 487.283 317.014 487.207 317.032 487.107C317.061 486.914 317.218 486.717 317.345 486.645Z" fill="#FFE7B3"/>
<path d="M359.284 367.649C338.526 341.538 301.608 350.352 279.366 369.74C276.127 372.557 273.175 375.673 270.681 379.184C272.088 376.314 274.119 373.616 276.267 371.198C278.443 368.762 280.863 366.533 283.433 364.516C300.262 351.542 325.115 344.435 344.925 354.672C350.725 357.692 355.688 362.229 359.495 367.488C359.495 367.488 359.284 367.649 359.284 367.649Z" fill="#FFE7B3"/>
<path d="M360.969 352.238C356.131 349.196 350.849 346.879 345.302 345.561C343.744 345.159 342.021 344.876 340.431 344.602C339.334 344.49 338.002 344.28 336.907 344.22C319.909 342.969 302.683 348.957 289.376 359.438C285.699 362.426 282.365 365.836 279.733 369.808C279.733 369.808 279.461 369.649 279.461 369.649C289.916 351.207 316.404 340.553 337.031 342.882C338.15 342.975 339.512 343.23 340.628 343.378C342.247 343.699 343.996 344.054 345.574 344.53C346.416 344.727 347.516 345.119 348.338 345.401C348.338 345.401 349.707 345.871 349.707 345.871L351.042 346.434C354.603 347.92 357.975 349.831 361.053 352.117L360.969 352.238Z" fill="#FFE7B3"/>
<path d="M463.68 440.606C471.192 419.756 467.937 400.329 454.443 382.834C452.174 379.902 449.855 376.935 447.348 374.205C443.577 370.134 438.895 366.962 433.803 364.773C417.065 357.706 395.398 360.032 381.59 372.196C376.086 377.118 372.061 383.609 369.895 390.653C368.779 394.198 368.129 397.88 367.862 401.593C367.862 401.593 367.686 401.588 367.686 401.588C367.616 395.467 368.881 389.31 371.47 383.749C380.284 364.417 403.469 356.758 423.4 360.444C432.701 362.121 441.677 366.493 448.07 373.538C451.796 377.778 455.283 382.207 458.403 386.91C469.408 403.538 471.141 422.222 464.522 440.909C464.522 440.909 463.68 440.606 463.68 440.606Z" fill="#FFE7B3"/>
<path d="M363.342 367.488C380.437 343.923 411.595 346.696 433.961 360.899C439.006 364.106 443.675 367.954 447.564 372.499C449.29 374.563 450.961 376.82 452.155 379.184C449.722 375.632 446.784 372.477 443.567 369.635C427.811 355.997 405.001 347.03 384.295 353.183C376.067 355.674 368.881 360.935 363.553 367.649C363.553 367.649 363.342 367.488 363.342 367.488Z" fill="#FFE7B3"/>
<path d="M361.781 352.117C366.004 348.972 370.835 346.538 375.867 344.93C377.258 344.525 378.652 344.107 380.072 343.816C380.567 343.709 381.733 343.475 382.206 343.378C383.325 343.231 384.684 342.976 385.802 342.882C406.432 340.556 432.909 351.199 443.373 369.649C443.373 369.649 443.101 369.808 443.101 369.808C440.469 365.836 437.135 362.426 433.458 359.438C420.152 348.957 402.924 342.969 385.928 344.22C384.833 344.279 383.497 344.49 382.403 344.602C381.928 344.68 380.789 344.888 380.308 344.97C378.908 345.201 377.529 345.556 376.152 345.899C375.481 346.104 374.102 346.512 373.429 346.716C369.389 348.112 365.497 349.931 361.865 352.238C361.865 352.238 361.781 352.117 361.781 352.117Z" fill="#FFE7B3"/>
<path d="M362.094 341.647C364.274 338.022 370.107 335.801 374.225 336.094C374.886 336.131 375.549 336.28 376.159 336.516C374.849 336.435 373.59 336.598 372.341 336.845C368.744 337.595 364.74 338.999 362.094 341.647Z" fill="#FFE7B3"/>
<path d="M360.834 334.619C349.19 327.57 332.33 328.517 319.819 332.809C317.921 333.478 316.061 334.284 314.35 335.348C314.35 335.348 314.088 334.985 314.088 334.985C315.509 333.862 317.123 332.997 318.762 332.237C329.765 327.429 344.61 326.26 355.797 331.035C357.693 331.871 359.526 332.864 361.189 334.093L360.834 334.619Z" fill="#FFE7B3"/>
<path d="M362.855 333.746C367.971 329.241 377.533 328.645 383.971 329.996C385.292 330.291 386.626 330.689 387.789 331.386C386.763 331.067 385.715 330.893 384.654 330.776C379.408 330.261 374.057 330.661 368.919 331.801C366.87 332.272 364.867 332.913 362.955 333.887L362.855 333.746Z" fill="#FFE7B3"/>
<path d="M361.736 326.713C365.706 321.989 373.537 320.66 379.332 322.021C380.206 322.245 381.072 322.55 381.84 323.016C380.574 322.571 379.265 322.381 377.939 322.298C374.015 322.071 369.99 322.611 366.351 324.116C364.744 324.794 363.226 325.693 361.912 326.878L361.736 326.713Z" fill="#FFE7B3"/>
<path d="M359.866 325.816C353.45 322.511 342.892 321.773 335.77 322.728C334.608 322.899 333.457 323.152 332.342 323.556C333.39 322.998 334.537 322.625 335.695 322.346C342.303 320.896 350.555 321.358 356.853 323.882C357.956 324.35 359.033 324.901 359.995 325.616L359.866 325.816Z" fill="#FFE7B3"/>
<path d="M357.315 470.985C357.728 470.539 355.993 465.386 355.241 465.134C354.241 464.338 352.569 464.044 352.176 464.594C351.303 465.817 356.553 471.462 357.315 470.985Z" fill="#FFE7B3"/>
<path d="M363.176 471.075C362.763 470.629 364.498 465.475 365.249 465.224C366.25 464.427 367.922 464.134 368.315 464.684C369.188 465.907 363.937 471.552 363.176 471.075Z" fill="#FFE7B3"/>
<path d="M360.735 494.003C360.556 494.184 360.394 499.479 360.931 499.809C362.101 501.545 362.964 501.165 366.228 500.956C369.832 500.642 370.057 501.284 371.524 498.931C371.868 498.145 371.717 497.642 371.721 496.028C372.176 491.461 371.007 493.695 366.424 493.868C363.162 494.024 361.473 493.002 360.735 494.003Z" stroke="#FFE7B3" stroke-width="3" stroke-miterlimit="10"/>
<path d="M360.742 494.004C360.95 494.303 360.746 494.359 360.674 496.299C360.542 498.899 360.993 499.371 359.418 500.754C358.447 501.453 357.555 501.191 354.753 501.024C350.138 500.961 348.821 500.456 349.072 496.096C349.068 494.065 348.819 493.922 349.073 493.599C349.739 492.749 351.422 493.782 354.55 493.936C358.069 494.109 360.043 492.999 360.742 494.004Z" stroke="#FFE7B3" stroke-width="3" stroke-miterlimit="10"/>
<path d="M371.697 498.729C373.122 500.35 377.635 499.684 378.526 497.109C378.736 496.485 378.548 496.272 378.459 494.543C378.384 493.107 378.496 492.896 378.256 492.653C377.719 492.111 376.511 492.596 375.145 492.856C372.948 493.274 371.855 492.781 371.561 493.392C371.395 493.737 371.757 493.861 371.806 494.92C371.835 495.561 371.71 495.704 371.73 496.726C371.736 497.051 371.751 497.161 371.751 497.534C371.75 498.039 371.721 498.453 371.697 498.729Z" stroke="#FFE7B3" stroke-width="3" stroke-miterlimit="10"/>
<path d="M378.525 497.109C379.849 498.356 382.435 497.434 383.326 495.894C383.36 495.833 383.388 495.778 383.412 495.718C383.668 495.077 383.726 494.546 383.732 493.598C383.742 492.097 383.68 491.954 383.551 491.842C383.459 491.762 383.301 491.672 382.461 491.686C381.824 491.698 381.448 491.704 380.757 491.843C379.351 492.126 378.648 492.268 378.406 492.739C378.332 492.884 378.373 493.439 378.458 494.543C378.502 495.116 378.521 495.258 378.538 495.605C378.567 496.245 378.547 496.767 378.525 497.109Z" stroke="#FFE7B3" stroke-width="3" stroke-miterlimit="10"/>
<path d="M383.675 494.961C383.912 495.605 385.545 495.874 386.639 495.483C388.101 494.96 389.034 493.101 389.085 490.831C388.269 491.088 387.581 491.195 387.086 491.245C385.968 491.357 384.076 491.349 383.799 491.838C383.758 491.911 383.728 491.992 383.728 491.992C383.675 492.17 383.717 492.352 383.717 492.754C383.717 492.772 383.717 492.764 383.717 492.809C383.715 493.396 383.733 493.759 383.729 494.096C383.719 494.811 383.615 494.798 383.675 494.961Z" stroke="#FFE7B3" stroke-width="3" stroke-miterlimit="10"/>
<path d="M388.596 493.448C389.013 493.543 389.77 493.657 390.681 493.464C391.491 493.293 392.082 492.951 392.422 492.718C393.378 491.753 393.764 490.709 393.437 489.883C392.468 490.156 391.734 490.287 391.227 490.355C390.805 490.413 390.392 490.534 389.969 490.582C389.489 490.637 389.217 490.632 389.085 490.831C388.98 490.989 389.069 491.117 389.051 491.576C389.041 491.832 389.005 492.007 388.942 492.312C388.881 492.609 388.778 493.001 388.596 493.448Z" stroke="#FFE7B3" stroke-width="3" stroke-miterlimit="10"/>
<path d="M393.227 491.66C393.461 491.728 393.767 491.79 394.125 491.795C394.837 491.806 395.392 491.588 395.701 491.437C396.04 491.117 396.397 490.75 396.757 490.331C397.214 489.799 397.59 489.282 397.9 488.808C397.576 488.905 397.238 488.999 396.887 489.089C396.471 489.195 396.067 489.287 395.679 489.366C395.331 489.441 394.979 489.519 394.624 489.6C394.223 489.693 393.827 489.787 393.438 489.883C393.496 490.056 393.57 490.353 393.539 490.722C393.502 491.17 393.328 491.496 393.227 491.66Z" stroke="#FFE7B3" stroke-width="3" stroke-miterlimit="10"/>
<path d="M341.674 492.496C340.669 493.801 341.551 496.42 342.304 497.671C342.617 498.055 343.081 498.427 345.956 499.111C348.32 499.673 348.818 499.614 349.022 499.336C349.157 499.028 348.951 497.036 349.112 496.366C349.219 494.044 348.92 493.315 346.272 493.216C343.054 492.779 342.317 491.937 341.674 492.496Z" stroke="#FFE7B3" stroke-width="3" stroke-miterlimit="10"/>
<path d="M335.767 491.686C335.037 492.228 335.49 493.93 335.541 494.116C336.138 496.61 339.332 497.57 340.951 496.861C341.958 495.791 341.248 495.243 341.311 493.621C341.34 492.981 341.448 492.963 341.357 492.766C341.068 492.146 340.039 492.404 338.021 492.001C336.561 491.71 336.167 491.389 335.767 491.686Z" stroke="#FFE7B3" stroke-width="3" stroke-miterlimit="10"/>
<path d="M329.862 490.465C328.444 492.841 333.266 496.332 335.317 494.425C335.502 494.124 335.337 493.93 335.362 492.94C335.385 492.025 335.532 491.933 335.407 491.68C335.152 491.164 334.391 491.25 332.973 491.005C330.888 490.645 330.298 490.073 329.862 490.465Z" stroke="#FFE7B3" stroke-width="3" stroke-miterlimit="10"/>
<path d="M323.91 488.809C324.249 489.353 325.178 490.68 326.945 491.432C328.061 491.908 329.071 491.965 329.681 491.95C329.657 491.865 329.63 491.748 329.616 491.606C329.606 491.503 329.595 491.384 329.616 491.235C329.625 491.17 329.65 490.986 329.743 490.817C329.918 490.498 330.255 490.379 330.364 490.346C329.369 490.118 328.369 489.884 327.362 489.645C326.202 489.37 325.051 489.091 323.91 488.809Z" stroke="#FFE7B3" stroke-width="3" stroke-miterlimit="10"/>
<path d="M360.652 508.562C360.321 507.772 360.247 504.703 360.945 503.926C361.318 503.517 361.909 503.509 363.176 503.589C365.617 503.743 365.784 503.818 365.949 503.994C366.533 504.591 366.493 507.282 366.084 508.044C365.117 509.753 361.326 509.764 360.652 508.562Z" stroke="#FFE7B3" stroke-width="3" stroke-miterlimit="10"/>
<path d="M360.29 508.022C360.497 507.454 360.395 505.774 360.425 505.141C360.462 504.62 360.507 504.347 360.02 503.836C359.552 503.402 358.916 503.428 357.788 503.499C355.347 503.652 355.181 503.728 355.016 503.904C354.436 504.468 354.466 507.275 354.88 507.954C355.866 509.549 359.687 509.287 360.29 508.022Z" stroke="#FFE7B3" stroke-width="3" stroke-miterlimit="10"/>
<path d="M366.136 504.301C366.23 503.954 366.992 503.874 367.414 503.837C368.934 503.701 371.535 503.469 371.803 504.285C371.827 504.358 371.813 504.379 371.893 504.783C371.982 505.23 372.063 505.528 372.085 505.622C372.16 505.937 372.157 506.441 371.786 507.257C371.329 507.704 370.504 508.378 369.31 508.702C367.8 509.112 365.976 508.886 365.855 508.362C365.813 508.182 366.012 508.141 366.222 507.665C366.46 507.126 366.442 506.64 366.414 505.87C366.396 505.372 366.386 505.122 366.282 504.814C366.187 504.534 366.098 504.437 366.136 504.301Z" stroke="#FFE7B3" stroke-width="3" stroke-miterlimit="10"/>
<path d="M371.832 504.106C372.603 502.408 375.165 503.006 376.16 503.746C376.441 504.166 376.49 504.506 376.465 504.758C376.297 506.403 372.653 507.252 372.273 506.679C372.208 506.581 372.268 506.488 372.179 505.994C372.125 505.692 372.067 505.526 372.012 505.321C371.939 505.046 371.856 504.641 371.832 504.106Z" stroke="#FFE7B3" stroke-width="3" stroke-miterlimit="10"/>
<path d="M376.158 503.747C376.209 502.286 377.34 502.088 378.773 501.812C380.001 501.426 380.221 500.902 380.711 501.046C384.194 503.83 377.518 506.353 376.383 505.367C376.461 504.678 376.677 504.586 376.158 503.747Z" stroke="#FFE7B3" stroke-width="3" stroke-miterlimit="10"/>
<path d="M381.344 501.317C381.361 499.692 382.409 499.994 383.643 499.517C384.222 499.112 385.165 497.984 386.077 498.121C386.321 498.205 386.825 498.417 387.201 498.922C387.435 499.237 387.547 499.568 387.565 499.696C387.74 500.937 381.993 502.813 381.749 502.892C381.734 502.758 381.714 502.645 381.709 502.558C381.704 502.471 381.691 502.361 381.659 502.217C381.548 501.716 381.388 501.616 381.344 501.317Z" stroke="#FFE7B3" stroke-width="3" stroke-miterlimit="10"/>
<path d="M387.395 499.238C387.258 498.975 387.091 498.811 386.95 498.674C386.835 498.563 386.669 498.42 386.447 498.282C386.478 498.116 386.551 497.847 386.757 497.606C386.997 497.326 387.248 497.078 388.194 496.951C389.626 496.76 389.721 495.93 390.493 495.376C391.33 495.026 392.139 496.068 391.891 496.726C391.695 498.329 387.937 499.575 387.563 499.696C387.537 499.581 387.489 499.418 387.395 499.238Z" stroke="#FFE7B3" stroke-width="3" stroke-miterlimit="10"/>
<path d="M354.583 504.017C354.395 503.652 353.821 503.594 353.456 503.567C349.271 503.031 348.454 503.795 349.083 506.987C349.648 508.504 353.426 509.025 354.177 507.887C354.405 507.563 354.414 505.556 354.493 505.007C354.587 504.412 354.697 504.238 354.583 504.017Z" stroke="#FFE7B3" stroke-width="3" stroke-miterlimit="10"/>
<path d="M349.038 503.836C348.267 502.138 345.705 502.736 344.71 503.476C343.168 505.872 347.911 507.674 348.813 506.491C349.001 506.22 348.716 505.985 348.858 505.051C348.957 504.397 349.144 504.205 349.038 503.836Z" stroke="#FFE7B3" stroke-width="3" stroke-miterlimit="10"/>
<path d="M344.71 503.477C344.659 502.016 343.528 501.818 342.095 501.542C340.867 501.156 340.647 500.632 340.157 500.776C336.674 503.56 343.35 506.083 344.484 505.097C344.407 504.408 344.191 504.316 344.71 503.477Z" stroke="#FFE7B3" stroke-width="3" stroke-miterlimit="10"/>
<path d="M339.527 501.046C339.509 499.422 338.461 499.724 337.228 499.247C336.649 498.842 335.706 497.714 334.793 497.851C334.583 497.908 333.919 498.116 333.531 498.751C333.531 498.751 333.195 499.302 333.263 499.96C333.38 501.091 335.795 502.145 339.121 502.622C339.202 502.521 339.109 502.407 339.211 501.947C339.322 501.446 339.483 501.346 339.527 501.046Z" stroke="#FFE7B3" stroke-width="3" stroke-miterlimit="10"/>
<path d="M333.422 498.943C333.498 498.8 333.581 498.731 333.918 498.404C334.045 498.281 334.146 498.18 334.206 498.121C334.374 497.172 333.749 496.816 332.673 496.681C331.242 496.489 331.147 495.66 330.374 495.106C329.538 494.756 328.729 495.798 328.977 496.456C329.173 498.059 332.931 499.305 333.305 499.426C333.309 499.196 333.371 499.039 333.422 498.943Z" stroke="#FFE7B3" stroke-width="3" stroke-miterlimit="10"/>
<path d="M378.887 462.156C392.442 467.745 407.08 470.665 421.761 470.18C407.123 471.275 392.07 468.681 378.887 462.156Z" fill="#FFE7B3"/>
<path d="M343.726 462.156C330.542 468.68 315.49 471.274 300.852 470.18C315.532 470.665 330.17 467.745 343.726 462.156Z" fill="#FFE7B3"/>
<path d="M358.406 464.905C356.808 460.703 351.8 458.583 349.912 463.782C348.837 467.841 353.27 471.327 356.537 472.93C352.767 471.704 348.016 468.056 349.198 463.566C351.186 457.822 357.272 459.763 358.406 464.905Z" fill="#FFE7B3"/>
<path d="M361.865 464.906C363 459.761 369.085 457.824 371.074 463.566C372.254 468.057 367.508 471.702 363.736 472.931C366.998 471.331 371.436 467.838 370.36 463.782C368.469 458.581 363.461 460.707 361.865 464.906Z" fill="#FFE7B3"/>
<path d="M353.172 458.373C357.04 454.897 363.419 454.827 367.38 458.187C362.987 455.472 357.499 455.577 353.172 458.373Z" fill="#FFE7B3"/>
<path d="M350.648 453.385C353.222 447.171 361.235 444.98 366.702 448.838C368.451 450.036 369.814 451.765 370.559 453.707C369.619 451.851 368.188 450.284 366.467 449.192C361.053 445.69 353.685 447.747 350.648 453.385Z" fill="#FFE7B3"/>
<path d="M347.787 447.958C350.766 443.381 355.93 440.551 361.444 440.958C366.189 441.282 370.591 444.172 373.117 448.126C369.933 444.018 364.853 441.167 359.572 441.526C354.928 441.735 350.623 444.346 347.787 447.958Z" fill="#FFE7B3"/>
<path d="M341.646 459.269C343.37 457.261 343.202 454.311 342.052 448.67C339.273 417.535 300.614 374.957 270.442 405.401C255.179 422.45 263.329 447.112 279.572 456.636C292.973 463.999 308.361 463.328 333.193 461.565C337.4 461.309 339.99 461.197 341.646 459.269Z" fill="#DEA82A"/>
<path d="M378.22 458.459C376.496 456.452 376.664 453.502 377.814 447.861C380.593 416.725 419.252 374.147 449.424 404.591C464.687 421.641 456.537 446.302 440.294 455.826C426.893 463.189 411.505 462.518 386.672 460.755C382.466 460.499 379.876 460.387 378.22 458.459Z" fill="#DEA82A"/>
<path d="M258.462 447.439C257.812 445.177 256.251 443.381 254.559 441.774C253.935 441.167 253.46 440.404 253.039 439.672C250.658 435.329 249.504 430.473 248.515 425.67C247.454 420.846 247.397 415.868 247.689 410.966C250.158 380.681 264.789 351.05 287.784 331.052C298.593 321.735 311.5 314.847 325.272 311.042C331.024 309.389 336.925 307.805 342.879 307.091C344.536 306.875 346.212 306.804 347.882 306.916C352.278 307.015 356.675 307.762 360.959 308.583C360.959 308.583 360.58 308.588 360.58 308.588C363.685 307.943 366.839 307.62 369.995 307.53C370.71 307.481 371.658 307.506 372.364 307.509C373.938 307.495 375.541 307.451 377.11 307.615C390.421 309.128 403.106 313.988 414.858 320.227C419.699 322.838 424.467 325.63 428.889 328.925C429.57 329.418 430.206 329.964 430.844 330.536C451.243 344.309 467.186 372.443 471.479 397.784C473.512 410.287 473.029 423.698 467.545 435.302C466.035 438.273 464.448 441.241 462.526 443.96C462.526 443.96 462.586 443.817 462.586 443.817C462.385 444.92 462.603 446.073 463.096 447.094C463.157 447.219 463.228 447.365 463.29 447.529L463.384 447.768L463.454 448.009C464.022 450.174 463.671 452.461 463.282 454.613C462.421 458.206 460.872 461.616 459.138 464.861C457.953 467.035 456.627 469.135 455.145 471.131C450.267 476.18 444.975 480.896 439.35 485.099C430.401 492.091 420.887 498.112 412.172 505.347C406.944 509.724 401.738 514.714 396.789 519.418C392.394 523.653 387.867 527.739 383.304 531.794C380.975 533.817 378.695 535.886 376.2 537.724C374.707 538.66 373.088 539.63 371.457 540.308C370.608 540.719 369.488 541.085 368.607 541.402C366.975 541.874 365.307 542.284 363.612 542.449C360.02 542.866 356.313 542.473 352.847 541.492C346.419 539.702 340.606 536.136 335.285 532.231C329.623 528.041 324.43 523.34 319.244 518.672C316.471 515.717 313.647 512.802 310.699 510.015C304.782 504.474 298.68 499.112 292.333 494.074C290.362 492.521 288.335 490.965 286.299 489.494C284.271 488.022 282.063 486.637 280.046 485.154C278.523 484.119 276.59 482.723 275.049 481.711C274.187 481.13 273.289 480.514 272.497 479.814C266.131 473.934 258.208 465.445 257.989 456.334C257.958 455.283 258.15 454.152 258.379 453.132C258.847 451.223 259.051 449.321 258.462 447.439ZM259.703 447.066C260.34 449.096 260.341 451.359 260.031 453.421C259.906 454.362 259.854 455.333 259.929 456.275C260.459 463.84 266.724 470.826 271.914 475.959C272.554 476.591 273.438 477.426 274.08 478.005C275.58 479.271 277.323 480.362 278.893 481.542C280.537 482.735 282.147 483.985 283.772 485.19C286.258 486.92 288.743 488.845 291.084 490.771C298.165 496.6 304.882 502.848 311.417 509.271C314.322 512.12 317.256 514.941 320.095 517.862C325.16 522.206 330.709 526.909 336.336 530.762C341.617 534.388 347.255 537.582 353.458 539.241C358.704 540.665 364.342 540.674 369.462 538.827C370.114 538.604 370.862 538.269 371.504 538.014C372.698 537.458 373.974 536.763 375.108 536.08C376.145 535.364 377.153 534.573 378.149 533.777C383.548 529.418 388.801 524.858 393.973 520.23C398.999 515.598 404.428 510.817 409.598 506.358C413.549 502.928 417.441 499.431 421.4 496.007C429.258 489.129 438.332 483.828 446.123 476.891C447.294 475.91 448.828 474.444 449.946 473.404C451.024 472.434 452.897 470.447 453.553 469.868C457.069 465.135 459.814 459.788 461.533 454.149C462.12 452.377 462.637 450.524 462.492 448.66C462.457 448.405 462.429 448.115 462.341 447.871C461.823 446.53 461.517 445.037 461.85 443.592C462.967 441.986 463.936 440.148 464.874 438.435C465.755 436.727 466.423 434.779 467.041 432.963C472.718 416.811 470.178 399.04 464.438 383.265C457.749 364.852 444.74 344.755 428.407 333.602C428.406 333.602 428.296 333.529 428.296 333.529L428.123 333.378C425.913 331.43 423.401 329.825 420.915 328.23C408.012 320.338 393.907 313.779 378.977 310.971C377.439 310.696 375.459 310.464 373.94 310.161C373.94 310.161 373.378 310.084 373.378 310.084C369.204 309.56 364.904 309.697 360.789 310.541C355.694 309.527 350.668 308.838 345.631 309.815C344.425 309.992 342.946 310.188 341.736 310.406C336.527 311.336 331.336 312.878 326.259 314.388C313.022 318.269 300.6 324.85 289.987 333.654C267.22 352.732 252.36 381.598 249.473 411.094C249.114 415.848 249.074 420.688 250.009 425.372C250.884 430.043 251.929 434.819 254.19 439.027C254.563 439.682 254.956 440.343 255.486 440.858C257.295 442.583 258.997 444.599 259.703 447.066Z" fill="#DEA82A"/>
<path d="M258.682 447.416C249.542 424.338 254.677 394.65 272.076 376.683C281.607 366.768 295.154 361.36 308.768 360.586C310.11 360.488 311.803 360.442 313.157 360.415C315.608 360.459 318.092 360.813 320.461 361.367C328.072 363.137 335.285 366.651 341.364 371.553C343.231 373.098 345.049 374.813 346.615 376.668C347.198 377.319 347.926 378.258 348.446 378.966C348.446 378.966 348.882 379.557 348.882 379.557L349.284 380.172L350.087 381.403L350.812 382.682C351.007 383.025 351.337 383.611 351.497 383.98C351.86 384.731 352.402 385.881 352.677 386.668C354.107 390.283 354.841 394.204 354.856 398.089C354.856 398.089 354.857 399.543 354.857 399.543C354.85 400.419 354.698 401.561 354.648 402.437C354.648 402.437 354.473 402.423 354.473 402.423C354.49 401.042 354.485 399.494 354.377 398.109C353.684 387.78 348.497 379.039 340.534 372.568C334.612 367.805 327.571 364.386 320.162 362.673C317.865 362.142 315.495 361.802 313.144 361.765C311.826 361.796 310.168 361.838 308.858 361.938C295.526 362.718 282.4 368.002 273.041 377.629C258.303 392.764 252.934 415.544 256.39 436.074C257.062 439.835 258.054 443.546 259.482 447.089L258.682 447.416Z" fill="#DEA82A"/>
<path d="M282.807 485.191C291.345 484.405 302.676 489.524 307.184 496.911C313.772 505.693 324.084 518.762 331.101 527.718C331.101 527.718 330.417 528.257 330.417 528.257C323.202 519.171 313.098 506.605 306.189 497.502C302.607 491.872 295.952 488.464 289.581 486.986C287.394 486.515 285.141 486.293 282.963 486.539L282.807 485.191Z" fill="#DEA82A"/>
<path d="M346.446 459.674C335.424 479.594 308.663 488.133 286.969 486.357C284.555 486.123 282.193 485.712 279.853 484.971C279.853 484.971 280.505 483.09 280.505 483.09C282.63 483.827 284.918 484.289 287.171 484.564C308.528 486.863 335.055 479.056 346.446 459.674Z" fill="#DEA82A"/>
<path d="M346.203 459.535C346.762 458.426 346.926 457.094 347.037 455.851C347.144 454.564 347.15 453.263 347.115 451.964C347.039 449.365 346.793 446.766 346.46 444.182C346.027 440.957 345.506 437.74 344.668 434.6C344.346 433.422 343.458 430.146 343.121 428.921C340.346 419.001 337.581 408.603 330.65 400.679C329.186 399.026 327.681 397.177 326.021 395.721C314.455 385.175 296.745 380.551 282.189 387.401C279.86 388.47 277.642 389.773 275.537 391.246C273.535 392.955 271.087 395.252 269.25 397.454C259.339 408.665 256.111 424.9 261.047 439.03C262.846 444.566 266.134 450.146 269.842 454.284C274.164 458.215 279.505 460.963 285.046 462.787C301.425 468.092 320.975 467.179 337.797 464.276C340.978 463.621 344.448 462.46 346.203 459.535ZM346.692 459.813C344.859 462.9 341.278 464.207 337.936 464.924C320.966 468.048 301.286 469.165 284.657 463.979C278.904 462.154 273.409 459.385 268.877 455.342C264.716 450.795 261.541 445.366 259.531 439.542C255.45 427.92 256.528 414.596 262.633 403.862C265.648 398.461 269.819 393.777 274.547 389.855C277.813 387.562 281.438 385.681 285.228 384.396C299.666 379.535 315.999 384.628 326.929 394.741C328.622 396.243 330.13 398.164 331.617 399.872C338.572 407.995 341.308 418.586 344.001 428.684C344.313 429.914 345.183 433.185 345.485 434.382C346.3 437.571 346.791 440.834 347.191 444.091C347.624 448.27 348.502 456.122 346.692 459.813Z" fill="#DEA82A"/>
<path d="M436.996 485.864C428.907 485.079 417.591 489.753 413.116 496.672C406.051 505.606 395.591 518.088 388.233 526.982C388.233 526.982 387.56 526.429 387.56 526.429C394.818 517.546 405.329 504.764 412.133 496.064C416.022 490.087 423.199 486.568 429.978 485.015C432.309 484.522 434.719 484.265 437.151 484.516L436.996 485.864Z" fill="#DEA82A"/>
<path d="M373.512 458.999C379.616 469.931 390.502 477.441 402.224 481.336C412.432 484.709 423.49 486.104 434.125 484.3C435.613 484.001 437.083 483.637 438.484 483.136L439.146 485.013C437.595 485.522 436.023 485.865 434.448 486.138C412.26 489.168 384.308 479.645 373.512 458.999Z" fill="#DEA82A"/>
<path d="M373.268 459.138C371.456 455.457 372.339 447.569 372.769 443.416C373.169 440.16 373.66 436.896 374.475 433.707C374.784 432.527 375.635 429.237 375.959 428.01C378.652 417.912 381.388 407.319 388.343 399.197C389.837 397.496 391.336 395.569 393.031 394.067C403.96 383.953 420.295 378.859 434.732 383.722C438.52 385.01 442.146 386.886 445.413 389.18C450.141 393.102 454.312 397.786 457.327 403.187C463.431 413.921 464.511 427.245 460.429 438.867C458.419 444.691 455.244 450.12 451.083 454.667C446.551 458.71 441.056 461.48 435.303 463.304C418.677 468.49 398.995 467.374 382.024 464.249C378.683 463.533 375.099 462.227 373.268 459.138ZM373.757 458.86C375.513 461.784 378.982 462.945 382.163 463.601C398.984 466.504 418.532 467.417 434.914 462.113C440.455 460.288 445.796 457.54 450.118 453.609C453.822 449.466 457.112 443.894 458.913 438.355C463.847 424.226 460.623 407.99 450.709 396.779C448.875 394.579 446.43 392.27 444.423 390.571C442.318 389.099 440.099 387.795 437.771 386.726C423.213 379.878 405.506 384.498 393.939 395.046C392.272 396.491 390.78 398.356 389.31 400.004C382.379 407.929 379.615 418.325 376.839 428.246C376.512 429.474 375.609 432.73 375.292 433.925C374.453 437.065 373.933 440.282 373.5 443.507C373.032 447.564 372.092 455.261 373.757 458.86Z" fill="#DEA82A"/>
<path d="M317.443 488.566C317.567 488.521 317.721 488.351 317.745 488.187C317.767 488.053 317.753 488.058 317.749 487.992C317.725 487.914 317.72 487.906 317.699 487.881C317.673 487.861 317.675 487.879 317.685 487.916C317.765 488.219 317.998 488.482 318.264 488.653C318.264 488.653 319.332 489.45 319.332 489.45C320.767 490.508 322.206 491.566 323.577 492.708C326.091 494.855 328.511 497.136 331.193 499.059C334.915 501.702 339.026 503.842 343.306 505.384C359.607 511.27 379.022 508.178 391.913 496.307C392.759 495.633 393.577 494.933 394.389 494.191C396.391 492.351 398.46 490.539 400.773 489.088C401.216 488.793 401.521 488.582 401.878 488.267C401.878 488.267 402.126 488.405 402.126 488.405C400.637 488.678 398.392 489.313 396.89 489.691C388.171 491.854 379.347 493.895 370.409 494.892C368.63 495.112 366.13 495.239 364.333 495.381C363.125 495.421 360.824 495.485 359.59 495.521C357.814 495.483 355.945 495.456 354.169 495.364C346.97 494.977 339.795 493.815 332.772 492.234C328.499 491.268 324.02 490.221 319.812 489.015C319.812 489.015 318.555 488.654 318.555 488.654L318.24 488.563C317.949 488.43 317.733 488.659 317.443 488.566ZM316.845 487.484C317.23 487.566 317.616 487.927 318.003 487.99C318.003 487.99 318.338 488.064 318.338 488.064L319.688 488.364C321.307 488.731 323.523 489.259 325.082 489.591C337.689 492.426 350.663 494.009 363.592 493.671C375.661 493.321 387.685 491.506 399.416 488.68C400.353 488.468 401.284 488.229 402.202 487.944L402.278 488.142C402.355 488.39 402.21 488.569 402.083 488.723C401.946 488.884 401.366 489.439 401.189 489.602C401.189 489.602 400.021 490.736 400.021 490.736C399.242 491.483 398.466 492.229 397.643 492.927C396.105 494.32 394.377 496.154 392.932 497.372C390.684 499.57 388.215 501.608 385.59 503.341C369.16 514.256 347.618 513.185 331.917 501.453C329.413 499.607 327.028 497.455 324.841 495.268C322.949 493.416 321.014 491.618 318.918 489.999C318.918 489.999 317.85 489.212 317.85 489.212C317.576 488.945 317.205 488.902 316.869 488.709C316.801 488.668 316.731 488.601 316.646 488.487C316.602 488.412 316.565 488.357 316.537 488.223C316.53 488.194 316.526 488.164 316.523 488.134C316.52 488.123 316.514 488.046 316.532 487.946C316.561 487.754 316.718 487.557 316.845 487.484Z" fill="#DEA82A"/>
<path d="M358.784 368.489C338.026 342.378 301.109 351.192 278.867 370.58C275.627 373.397 272.676 376.513 270.182 380.024C271.588 377.154 273.619 374.456 275.767 372.038C277.943 369.602 280.363 367.372 282.933 365.356C299.762 352.382 324.615 345.275 344.425 355.512C350.226 358.532 355.188 363.069 358.995 368.328C358.995 368.328 358.784 368.489 358.784 368.489Z" fill="#DEA82A"/>
<path d="M360.469 353.078C355.631 350.036 350.349 347.718 344.802 346.401C343.244 345.999 341.521 345.716 339.931 345.442C338.834 345.33 337.502 345.12 336.407 345.06C319.409 343.809 302.183 349.797 288.876 360.278C285.199 363.266 281.865 366.676 279.233 370.648C279.233 370.648 278.961 370.489 278.961 370.489C289.416 352.047 315.904 341.393 336.531 343.722C337.65 343.815 339.012 344.07 340.128 344.217C341.747 344.539 343.497 344.894 345.074 345.37C345.916 345.566 347.016 345.958 347.838 346.241C347.838 346.241 349.207 346.711 349.207 346.711L350.542 347.274C354.103 348.76 357.475 350.671 360.553 352.957L360.469 353.078Z" fill="#DEA82A"/>
<path d="M463.18 441.446C470.692 420.596 467.437 401.168 453.943 383.674C451.674 380.742 449.355 377.774 446.848 375.044C443.077 370.974 438.395 367.802 433.303 365.612C416.565 358.545 394.898 360.872 381.09 373.036C375.586 377.958 371.561 384.449 369.395 391.492C368.279 395.038 367.629 398.72 367.362 402.433C367.362 402.433 367.186 402.428 367.186 402.428C367.116 396.307 368.381 390.15 370.97 384.589C379.784 365.257 402.969 357.598 422.9 361.284C432.201 362.961 441.177 367.333 447.57 374.378C451.296 378.617 454.783 383.047 457.903 387.75C468.908 404.378 470.641 423.062 464.022 441.749C464.022 441.749 463.18 441.446 463.18 441.446Z" fill="#DEA82A"/>
<path d="M362.84 368.327C379.935 344.763 411.093 347.536 433.459 361.739C438.504 364.945 443.173 368.794 447.062 373.339C448.788 375.403 450.459 377.659 451.653 380.024C449.22 376.472 446.282 373.317 443.065 370.475C427.309 356.837 404.499 347.869 383.793 354.023C375.565 356.514 368.379 361.775 363.051 368.489C363.051 368.489 362.84 368.327 362.84 368.327Z" fill="#DEA82A"/>
<path d="M361.281 352.957C365.504 349.811 370.335 347.378 375.367 345.77C376.758 345.364 378.152 344.947 379.572 344.656C380.067 344.549 381.233 344.315 381.706 344.217C382.825 344.07 384.184 343.816 385.303 343.722C405.932 341.396 432.409 352.039 442.873 370.489C442.873 370.489 442.601 370.648 442.601 370.648C439.969 366.676 436.635 363.266 432.958 360.278C419.652 349.797 402.424 343.809 385.428 345.059C384.333 345.119 382.997 345.33 381.903 345.442C381.428 345.52 380.289 345.727 379.808 345.81C378.408 346.041 377.029 346.396 375.652 346.739C374.981 346.943 373.602 347.352 372.929 347.556C368.889 348.952 364.997 350.77 361.365 353.078C361.365 353.078 361.281 352.957 361.281 352.957Z" fill="#DEA82A"/>
<path d="M361.594 342.487C363.774 338.862 369.607 336.641 373.725 336.934C374.386 336.971 375.049 337.12 375.659 337.356C374.349 337.275 373.09 337.437 371.841 337.684C368.244 338.435 364.24 339.839 361.594 342.487Z" fill="#DEA82A"/>
<path d="M360.334 335.459C348.69 328.41 331.83 329.357 319.319 333.649C317.421 334.318 315.561 335.124 313.85 336.187C313.85 336.187 313.588 335.825 313.588 335.825C315.009 334.702 316.623 333.837 318.262 333.077C329.265 328.268 344.11 327.1 355.297 331.875C357.193 332.711 359.026 333.704 360.689 334.933L360.334 335.459Z" fill="#DEA82A"/>
<path d="M362.356 334.586C367.471 330.08 377.033 329.484 383.472 330.835C384.792 331.131 386.127 331.529 387.289 332.226C386.264 331.907 385.215 331.732 384.155 331.616C378.908 331.1 373.557 331.5 368.419 332.641C366.37 333.112 364.368 333.752 362.455 334.727L362.356 334.586Z" fill="#DEA82A"/>
<path d="M361.236 327.553C365.206 322.829 373.037 321.5 378.832 322.86C379.706 323.085 380.572 323.39 381.34 323.855C380.074 323.411 378.765 323.221 377.439 323.138C373.515 322.911 369.49 323.451 365.851 324.955C364.244 325.634 362.726 326.533 361.412 327.718L361.236 327.553Z" fill="#DEA82A"/>
<path d="M359.366 326.656C352.95 323.35 342.392 322.613 335.27 323.568C334.108 323.738 332.957 323.992 331.842 324.396C332.89 323.838 334.037 323.465 335.195 323.186C341.803 321.736 350.055 322.198 356.353 324.722C357.456 325.19 358.533 325.741 359.495 326.455L359.366 326.656Z" fill="#DEA82A"/>
<path d="M356.815 471.825C357.227 471.379 355.493 466.225 354.741 465.974C353.741 465.177 352.069 464.884 351.676 465.434C350.803 466.657 356.053 472.302 356.815 471.825Z" fill="#DEA82A"/>
<path d="M362.676 471.914C362.263 471.469 363.998 466.315 364.749 466.064C365.75 465.267 367.422 464.974 367.815 465.524C368.688 466.746 363.437 472.392 362.676 471.914Z" fill="#DEA82A"/>
<path d="M360.235 494.843C360.056 495.024 359.894 500.319 360.431 500.649C361.601 502.385 362.464 502.005 365.728 501.796C369.332 501.482 369.557 502.124 371.024 499.771C371.368 498.985 371.217 498.482 371.22 496.868C371.676 492.3 370.507 494.535 365.924 494.708C362.662 494.864 360.973 493.842 360.235 494.843Z" stroke="#DEA82A" stroke-width="3" stroke-miterlimit="10"/>
<path d="M360.242 494.843C360.45 495.143 360.246 495.199 360.174 497.139C360.042 499.739 360.493 500.211 358.918 501.594C357.947 502.293 357.055 502.031 354.253 501.864C349.638 501.801 348.321 501.296 348.572 496.936C348.568 494.904 348.319 494.762 348.573 494.438C349.239 493.589 350.922 494.622 354.05 494.776C357.569 494.949 359.543 493.839 360.242 494.843Z" stroke="#DEA82A" stroke-width="3" stroke-miterlimit="10"/>
<path d="M371.197 499.569C372.622 501.19 377.135 500.524 378.026 497.949C378.236 497.325 378.048 497.112 377.959 495.383C377.884 493.947 377.996 493.736 377.756 493.493C377.219 492.95 376.011 493.436 374.645 493.696C372.448 494.114 371.355 493.621 371.061 494.232C370.895 494.577 371.258 494.701 371.306 495.76C371.335 496.401 371.21 496.544 371.23 497.566C371.236 497.89 371.251 498.001 371.251 498.373C371.25 498.879 371.221 499.293 371.197 499.569Z" stroke="#DEA82A" stroke-width="3" stroke-miterlimit="10"/>
<path d="M378.025 497.948C379.349 499.196 381.934 498.274 382.826 496.734C382.86 496.673 382.888 496.618 382.912 496.557C383.168 495.917 383.226 495.385 383.232 494.438C383.242 492.937 383.18 492.793 383.051 492.682C382.959 492.602 382.801 492.512 381.961 492.526C381.324 492.537 380.948 492.544 380.257 492.683C378.851 492.966 378.148 493.108 377.906 493.579C377.832 493.723 377.873 494.279 377.958 495.383C378.002 495.956 378.021 496.098 378.038 496.445C378.067 497.085 378.047 497.606 378.025 497.948Z" stroke="#DEA82A" stroke-width="3" stroke-miterlimit="10"/>
<path d="M383.175 495.801C383.412 496.445 385.045 496.714 386.139 496.323C387.601 495.8 388.534 493.941 388.585 491.671C387.769 491.928 387.081 492.035 386.586 492.085C385.468 492.196 383.576 492.189 383.299 492.678C383.258 492.751 383.228 492.832 383.228 492.832C383.175 493.009 383.217 493.192 383.217 493.594C383.217 493.612 383.217 493.603 383.217 493.649C383.215 494.235 383.233 494.599 383.229 494.936C383.219 495.651 383.115 495.637 383.175 495.801Z" stroke="#DEA82A" stroke-width="3" stroke-miterlimit="10"/>
<path d="M388.096 494.288C388.513 494.383 389.27 494.497 390.181 494.304C390.991 494.133 391.582 493.791 391.922 493.558C392.878 492.592 393.264 491.549 392.937 490.723C391.968 490.996 391.234 491.126 390.727 491.195C390.305 491.252 389.892 491.373 389.469 491.422C388.989 491.477 388.717 491.472 388.585 491.671C388.48 491.829 388.569 491.957 388.551 492.416C388.541 492.672 388.505 492.847 388.442 493.151C388.381 493.449 388.278 493.841 388.096 494.288Z" stroke="#DEA82A" stroke-width="3" stroke-miterlimit="10"/>
<path d="M392.727 492.499C392.961 492.568 393.267 492.629 393.625 492.635C394.337 492.645 394.892 492.428 395.201 492.276C395.54 491.957 395.897 491.59 396.257 491.17C396.714 490.639 397.09 490.122 397.4 489.648C397.076 489.745 396.738 489.839 396.387 489.929C395.971 490.035 395.567 490.127 395.179 490.206C394.831 490.281 394.479 490.359 394.124 490.44C393.723 490.532 393.327 490.627 392.938 490.723C392.996 490.896 393.07 491.193 393.039 491.562C393.001 492.01 392.828 492.336 392.727 492.499Z" stroke="#DEA82A" stroke-width="3" stroke-miterlimit="10"/>
<path d="M341.174 493.336C340.169 494.641 341.051 497.26 341.804 498.511C342.117 498.894 342.581 499.267 345.456 499.951C347.82 500.513 348.318 500.454 348.522 500.176C348.657 499.868 348.451 497.876 348.612 497.206C348.719 494.883 348.42 494.155 345.772 494.056C342.554 493.619 341.817 492.777 341.174 493.336Z" stroke="#DEA82A" stroke-width="3" stroke-miterlimit="10"/>
<path d="M335.267 492.526C334.537 493.068 334.99 494.77 335.041 494.956C335.638 497.45 338.832 498.41 340.451 497.701C341.458 496.631 340.748 496.083 340.811 494.461C340.84 493.821 340.948 493.803 340.857 493.606C340.568 492.986 339.539 493.244 337.521 492.841C336.061 492.549 335.667 492.228 335.267 492.526Z" stroke="#DEA82A" stroke-width="3" stroke-miterlimit="10"/>
<path d="M329.362 491.305C327.944 493.681 332.766 497.172 334.817 495.265C335.002 494.964 334.837 494.77 334.862 493.78C334.885 492.865 335.032 492.773 334.907 492.52C334.652 492.004 333.891 492.09 332.473 491.845C330.388 491.484 329.798 490.913 329.362 491.305Z" stroke="#DEA82A" stroke-width="3" stroke-miterlimit="10"/>
<path d="M323.41 489.649C323.749 490.193 324.678 491.52 326.445 492.272C327.561 492.747 328.571 492.805 329.181 492.79C329.157 492.705 329.13 492.588 329.116 492.446C329.106 492.343 329.095 492.224 329.116 492.075C329.125 492.01 329.15 491.826 329.243 491.657C329.418 491.338 329.755 491.219 329.864 491.185C328.869 490.957 327.869 490.724 326.862 490.485C325.702 490.21 324.551 489.931 323.41 489.649Z" stroke="#DEA82A" stroke-width="3" stroke-miterlimit="10"/>
<path d="M360.152 509.402C359.821 508.612 359.747 505.543 360.445 504.766C360.818 504.357 361.409 504.349 362.676 504.429C365.117 504.582 365.284 504.658 365.449 504.834C366.033 505.431 365.993 508.122 365.584 508.884C364.617 510.593 360.826 510.604 360.152 509.402Z" stroke="#DEA82A" stroke-width="3" stroke-miterlimit="10"/>
<path d="M359.79 508.861C359.997 508.294 359.896 506.614 359.925 505.981C359.962 505.46 360.007 505.187 359.52 504.676C359.052 504.241 358.416 504.268 357.288 504.339C354.847 504.492 354.681 504.568 354.516 504.744C353.936 505.308 353.966 508.115 354.38 508.794C355.366 510.389 359.187 510.127 359.79 508.861Z" stroke="#DEA82A" stroke-width="3" stroke-miterlimit="10"/>
<path d="M365.636 505.14C365.73 504.793 366.492 504.714 366.914 504.676C368.434 504.541 371.035 504.309 371.303 505.125C371.327 505.197 371.313 505.219 371.393 505.623C371.482 506.07 371.563 506.368 371.585 506.461C371.66 506.777 371.657 507.281 371.286 508.097C370.829 508.544 370.004 509.218 368.81 509.542C367.3 509.952 365.476 509.726 365.355 509.202C365.313 509.022 365.512 508.98 365.722 508.505C365.96 507.966 365.942 507.48 365.914 506.71C365.896 506.211 365.886 505.962 365.782 505.654C365.687 505.374 365.598 505.277 365.636 505.14Z" stroke="#DEA82A" stroke-width="3" stroke-miterlimit="10"/>
<path d="M371.332 504.946C372.103 503.248 374.665 503.846 375.66 504.586C375.941 505.006 375.99 505.346 375.965 505.598C375.797 507.243 372.153 508.092 371.773 507.519C371.708 507.421 371.768 507.328 371.679 506.834C371.625 506.532 371.567 506.365 371.512 506.161C371.439 505.886 371.356 505.481 371.332 504.946Z" stroke="#DEA82A" stroke-width="3" stroke-miterlimit="10"/>
<path d="M375.658 504.586C375.709 503.126 376.84 502.928 378.273 502.651C379.501 502.266 379.721 501.742 380.211 501.886C383.694 504.67 377.018 507.193 375.883 506.206C375.961 505.517 376.177 505.426 375.658 504.586Z" stroke="#DEA82A" stroke-width="3" stroke-miterlimit="10"/>
<path d="M380.844 502.156C380.861 500.532 381.909 500.833 383.143 500.356C383.722 499.952 384.665 498.824 385.577 498.961C385.821 499.045 386.325 499.256 386.701 499.762C386.935 500.077 387.047 500.408 387.065 500.536C387.24 501.777 381.493 503.653 381.249 503.731C381.234 503.598 381.214 503.485 381.209 503.398C381.204 503.311 381.191 503.201 381.159 503.056C381.048 502.556 380.888 502.456 380.844 502.156Z" stroke="#DEA82A" stroke-width="3" stroke-miterlimit="10"/>
<path d="M386.895 500.078C386.758 499.815 386.591 499.651 386.45 499.514C386.335 499.403 386.169 499.26 385.947 499.122C385.978 498.956 386.051 498.686 386.257 498.446C386.497 498.165 386.748 497.918 387.694 497.791C389.126 497.599 389.221 496.769 389.993 496.216C390.83 495.865 391.639 496.908 391.391 497.566C391.195 499.168 387.437 500.415 387.063 500.536C387.037 500.42 386.989 500.257 386.895 500.078Z" stroke="#DEA82A" stroke-width="3" stroke-miterlimit="10"/>
<path d="M354.083 504.857C353.895 504.492 353.321 504.434 352.956 504.407C348.771 503.87 347.954 504.634 348.583 507.827C349.148 509.343 352.926 509.865 353.677 508.727C353.905 508.403 353.914 506.396 353.993 505.847C354.087 505.252 354.197 505.078 354.083 504.857Z" stroke="#DEA82A" stroke-width="3" stroke-miterlimit="10"/>
<path d="M348.538 504.676C347.767 502.978 345.205 503.576 344.21 504.316C342.668 506.712 347.411 508.514 348.313 507.331C348.501 507.06 348.216 506.825 348.358 505.891C348.457 505.236 348.644 505.045 348.538 504.676Z" stroke="#DEA82A" stroke-width="3" stroke-miterlimit="10"/>
<path d="M344.21 504.316C344.159 502.856 343.028 502.658 341.595 502.381C340.367 501.996 340.147 501.472 339.657 501.616C336.174 504.4 342.85 506.923 343.984 505.936C343.907 505.247 343.691 505.156 344.21 504.316Z" stroke="#DEA82A" stroke-width="3" stroke-miterlimit="10"/>
<path d="M339.027 501.886C339.009 500.262 337.961 500.563 336.728 500.086C336.149 499.682 335.206 498.554 334.293 498.691C334.083 498.748 333.419 498.956 333.031 499.591C333.031 499.591 332.695 500.142 332.763 500.8C332.88 501.931 335.295 502.985 338.621 503.461C338.702 503.361 338.609 503.247 338.711 502.786C338.822 502.286 338.983 502.186 339.027 501.886Z" stroke="#DEA82A" stroke-width="3" stroke-miterlimit="10"/>
<path d="M332.922 499.783C332.998 499.64 333.081 499.571 333.418 499.244C333.545 499.12 333.646 499.02 333.706 498.961C333.874 498.012 333.249 497.656 332.173 497.521C330.742 497.329 330.647 496.499 329.874 495.946C329.038 495.595 328.229 496.638 328.477 497.296C328.673 498.898 332.431 500.145 332.805 500.266C332.809 500.036 332.871 499.879 332.922 499.783Z" stroke="#DEA82A" stroke-width="3" stroke-miterlimit="10"/>
<path d="M378.387 462.996C391.942 468.585 406.58 471.505 421.261 471.02C406.623 472.114 391.57 469.52 378.387 462.996Z" fill="#DEA82A"/>
<path d="M343.226 462.996C330.042 469.52 314.99 472.114 300.352 471.02C315.032 471.505 329.67 468.585 343.226 462.996Z" fill="#DEA82A"/>
<path d="M357.906 465.745C356.308 461.543 351.3 459.423 349.412 464.622C348.337 468.681 352.77 472.167 356.037 473.77C352.267 472.544 347.516 468.896 348.698 464.406C350.686 458.662 356.772 460.603 357.906 465.745Z" fill="#DEA82A"/>
<path d="M361.365 465.746C362.5 460.601 368.585 458.664 370.573 464.406C371.754 468.897 367.008 472.542 363.236 473.771C366.498 472.171 370.936 468.678 369.86 464.622C367.969 459.42 362.961 461.546 361.365 465.746Z" fill="#DEA82A"/>
<path d="M352.672 459.213C356.54 455.737 362.919 455.667 366.88 459.026C362.487 456.311 356.999 456.417 352.672 459.213Z" fill="#DEA82A"/>
<path d="M350.148 454.224C352.722 448.01 360.735 445.82 366.202 449.677C367.951 450.876 369.314 452.605 370.059 454.547C369.119 452.691 367.688 451.124 365.967 450.032C360.553 446.53 353.185 448.587 350.148 454.224Z" fill="#DEA82A"/>
<path d="M347.287 448.798C350.266 444.221 355.43 441.391 360.944 441.798C365.689 442.122 370.091 445.012 372.617 448.966C369.433 444.858 364.353 442.007 359.072 442.366C354.428 442.575 350.123 445.186 347.287 448.798Z" fill="#DEA82A"/>
</g>
<defs>
<filter id="filter0_d_314_759" x="0" y="0.318848" width="396" height="401" filterUnits="userSpaceOnUse" color-interpolation-filters="sRGB">
<feFlood flood-opacity="0" result="BackgroundImageFix"/>
<feColorMatrix in="SourceAlpha" type="matrix" values="0 0 0 0 0 0 0 0 0 0 0 0 0 0 0 0 0 0 127 0" result="hardAlpha"/>
<feOffset dx="1" dy="6"/>
<feColorMatrix type="matrix" values="0 0 0 0 0 0 0 0 0 0 0 0 0 0 0 0 0 0 0.15 0"/>
<feBlend mode="normal" in2="BackgroundImageFix" result="effect1_dropShadow_314_759"/>
<feBlend mode="normal" in="SourceGraphic" in2="effect1_dropShadow_314_759" result="shape"/>
</filter>
<filter id="filter1_d_314_759" x="161.639" y="226.819" width="398" height="401" filterUnits="userSpaceOnUse" color-interpolation-filters="sRGB">
<feFlood flood-opacity="0" result="BackgroundImageFix"/>
<feColorMatrix in="SourceAlpha" type="matrix" values="0 0 0 0 0 0 0 0 0 0 0 0 0 0 0 0 0 0 127 0" result="hardAlpha"/>
<feOffset dx="1" dy="6"/>
<feColorMatrix type="matrix" values="0 0 0 0 0 0 0 0 0 0 0 0 0 0 0 0 0 0 0.15 0"/>
<feBlend mode="normal" in2="BackgroundImageFix" result="effect1_dropShadow_314_759"/>
<feBlend mode="normal" in="SourceGraphic" in2="effect1_dropShadow_314_759" result="shape"/>
</filter>
<clipPath id="clip0_314_759">
<rect width="395" height="395" fill="white" transform="translate(0 0.318848)"/>
</clipPath>
<clipPath id="clip1_314_759">
<rect width="397" height="401" fill="white" transform="translate(161.619 226.569)"/>
</clipPath>
</defs>
</svg>
