<svg width="392" height="447" viewBox="0 0 392 447" fill="none" xmlns="http://www.w3.org/2000/svg">
<g clip-path="url(#clip0_314_463)">
<path d="M331.73 299.699C336.111 309.192 344.261 318.657 354.12 324.706C357.52 326.801 360.852 328.31 364.016 329.271C371.624 331.578 378.199 330.681 382.264 326.867L382.297 326.832C382.78 326.379 383.215 325.895 383.621 325.35C383.75 325.197 387.66 322.319 387.766 322.13C387.915 321.945 384.749 323.612 384.894 323.291C384.94 323.199 384.987 323.106 385.031 323C385.138 322.811 385.215 322.615 385.303 322.404C385.383 322.221 385.448 322.028 385.513 321.836C385.634 321.534 385.73 321.239 385.822 320.93C385.832 320.914 385.839 320.885 385.846 320.856C385.972 320.458 386.066 320.04 386.158 319.609C386.249 319.178 386.334 318.72 386.393 318.269C387.053 313.456 385.976 307.939 383.593 302.396C379.357 292.528 370.954 282.56 360.712 276.272C357.299 274.181 353.966 272.672 350.815 271.708C348.857 271.11 346.963 270.73 345.173 270.558C344.656 270.513 344.156 270.479 343.659 270.458C342.916 270.439 342.182 270.459 341.48 270.499C340.202 270.59 338.993 270.803 337.869 271.145C337.573 271.228 337.294 271.32 337.004 271.428C336.728 271.533 336.451 271.638 336.178 271.756C335.904 271.875 335.647 272.003 335.39 272.131C335.145 272.256 334.904 272.394 334.675 272.529C334.626 272.554 334.577 272.579 334.544 272.614C334.313 272.736 334.1 272.881 333.904 273.036C333.666 273.187 333.433 273.364 333.217 273.551C332.997 273.725 332.781 273.912 332.567 274.111C330.39 276.161 328.939 279.04 328.438 282.709C327.744 287.845 329.002 293.785 331.73 299.699Z" fill="#FFAD4A" stroke="#323954" stroke-width="0.95809" stroke-linecap="round" stroke-linejoin="round"/>
<path d="M341.479 270.499C342.181 270.459 342.914 270.439 343.657 270.458C342.898 270.429 342.178 270.446 341.479 270.499Z" fill="#FFAD4A" stroke="#323954" stroke-width="0.95809" stroke-linecap="round" stroke-linejoin="round"/>
<path d="M332.569 274.111C332.782 273.912 332.999 273.725 333.218 273.551C333.434 273.364 333.667 273.187 333.905 273.036C334.102 272.881 334.314 272.736 334.546 272.614C334.579 272.579 334.628 272.554 334.676 272.529C334.902 272.381 335.143 272.243 335.391 272.131C335.645 271.99 335.903 271.862 336.179 271.757C336.45 271.625 336.726 271.52 337.006 271.428C337.279 271.31 337.572 271.215 337.87 271.146C338.994 270.803 340.203 270.59 341.481 270.499C342.183 270.459 342.917 270.439 343.66 270.458C344.157 270.479 344.658 270.513 345.174 270.558C346.965 270.73 348.859 271.11 350.817 271.708C353.968 272.672 357.3 274.181 360.713 276.272C370.956 282.56 379.359 292.528 383.595 302.396C385.977 307.939 387.054 313.456 386.395 318.269C386.336 318.721 386.25 319.178 386.159 319.609C386.068 320.04 385.973 320.458 385.847 320.857C385.84 320.885 385.833 320.914 385.823 320.93C385.731 321.239 385.635 321.534 385.514 321.836C385.449 322.028 385.385 322.221 385.304 322.404C385.217 322.616 385.139 322.811 385.032 323C384.989 323.106 384.942 323.199 384.895 323.292C384.751 323.612 384.574 323.913 384.385 324.216C384.271 324.434 383.751 325.197 383.623 325.35C383.216 325.895 382.781 326.379 382.299 326.832L387.2 322.504C389.381 320.468 390.828 317.576 391.33 313.906C393.157 300.526 381.661 281.723 365.648 271.909C362.248 269.815 358.915 268.305 355.751 267.345C348.144 265.038 341.568 265.935 337.516 269.745L332.569 274.111Z" fill="#FFAD4A" stroke="#323954" stroke-width="0.95809" stroke-linecap="round" stroke-linejoin="round"/>
<path d="M365.418 304.016C366.318 305.965 367.991 307.909 370.016 309.151C370.714 309.581 371.399 309.891 372.048 310.088C373.611 310.562 374.961 310.378 375.796 309.595L375.803 309.588C375.902 309.495 375.991 309.395 376.074 309.283C376.101 309.252 376.126 309.215 376.148 309.176C376.178 309.138 376.208 309.095 376.231 309.05C376.27 308.988 376.306 308.926 376.336 308.861C376.345 308.842 376.355 308.822 376.364 308.801C376.386 308.762 376.402 308.722 376.42 308.678C376.436 308.641 376.45 308.601 376.463 308.562C376.488 308.5 376.507 308.439 376.526 308.376C376.528 308.372 376.53 308.366 376.531 308.361C376.557 308.279 376.577 308.193 376.595 308.104C376.614 308.016 376.632 307.922 376.644 307.829C376.779 306.841 376.558 305.708 376.069 304.57C375.199 302.543 373.473 300.496 371.37 299.205C370.669 298.775 369.984 298.465 369.337 298.267C368.935 298.145 368.546 298.067 368.179 298.031C368.073 298.022 367.97 298.015 367.868 298.011C367.715 298.007 367.564 298.011 367.42 298.019C367.158 298.038 366.91 298.081 366.679 298.152C366.618 298.169 366.561 298.188 366.501 298.21C366.444 298.232 366.388 298.253 366.331 298.277C366.275 298.302 366.222 298.328 366.17 298.354C366.119 298.38 366.07 298.408 366.023 298.436C366.013 298.441 366.003 298.446 365.996 298.453C365.948 298.479 365.905 298.508 365.864 298.54C365.816 298.571 365.768 298.607 365.723 298.646C365.678 298.682 365.634 298.72 365.59 298.761C365.143 299.182 364.845 299.773 364.742 300.527C364.6 301.581 364.858 302.801 365.418 304.016Z" fill="#323954"/>
<path d="M338.824 286.876C339.724 288.826 341.398 290.769 343.422 292.012C344.12 292.442 344.805 292.752 345.455 292.949C347.017 293.423 348.367 293.239 349.202 292.455L349.209 292.448C349.308 292.355 349.397 292.256 349.481 292.144C349.507 292.112 349.532 292.076 349.554 292.037C349.585 291.999 349.614 291.956 349.637 291.911C349.676 291.849 349.712 291.787 349.742 291.721C349.752 291.702 349.761 291.683 349.77 291.661C349.792 291.622 349.808 291.582 349.826 291.539C349.843 291.501 349.856 291.462 349.869 291.422C349.894 291.36 349.914 291.3 349.933 291.236C349.935 291.233 349.936 291.227 349.937 291.221C349.963 291.139 349.983 291.053 350.002 290.965C350.02 290.876 350.038 290.782 350.05 290.69C350.185 289.701 349.964 288.568 349.475 287.43C348.605 285.403 346.879 283.357 344.776 282.065C344.075 281.636 343.391 281.326 342.744 281.128C342.342 281.005 341.953 280.927 341.585 280.892C341.479 280.883 341.376 280.876 341.274 280.871C341.121 280.867 340.971 280.871 340.826 280.88C340.564 280.898 340.316 280.942 340.085 281.012C340.024 281.029 339.967 281.048 339.907 281.07C339.851 281.092 339.794 281.114 339.738 281.138C339.682 281.162 339.629 281.188 339.576 281.215C339.526 281.24 339.476 281.269 339.429 281.297C339.419 281.302 339.409 281.307 339.402 281.314C339.355 281.339 339.311 281.369 339.271 281.401C339.222 281.432 339.174 281.468 339.13 281.506C339.084 281.542 339.04 281.58 338.996 281.621C338.549 282.042 338.251 282.634 338.148 283.387C338.006 284.442 338.264 285.662 338.824 286.876Z" fill="#323954"/>
<path d="M361.397 316.58C362.111 316.798 362.77 316.95 363.375 317.053C366.723 317.622 368.389 316.654 368.495 316.585C369.084 316.226 368.967 315.198 368.228 314.293C367.966 313.973 367.661 313.71 367.352 313.524C367.154 313.402 366.953 313.31 366.76 313.251C366.399 313.141 366.064 313.15 365.812 313.304C365.742 313.347 364.56 313.986 362.137 313.564C361.681 313.485 361.181 313.368 360.636 313.202C359.293 312.794 357.678 312.09 355.777 310.926C352.87 309.14 350.853 307.231 349.494 305.623C347.714 303.517 347.062 301.929 347.016 301.815C346.676 300.957 345.843 300.178 345.056 299.939C344.956 299.908 344.857 299.887 344.759 299.875C343.903 299.77 343.499 300.448 343.867 301.41C343.932 301.584 344.927 304.115 347.661 307.282C349.433 309.333 351.935 311.652 355.387 313.768C357.707 315.192 359.707 316.066 361.397 316.58Z" fill="#323954"/>
<path d="M254.329 323.695C254.488 324.193 254.658 324.68 254.862 325.133C254.93 325.315 255.009 325.496 255.1 325.677C255.168 325.859 255.259 326.029 255.361 326.199C255.406 326.301 255.463 326.414 255.531 326.516C255.633 326.697 255.735 326.878 255.86 327.06C256.007 327.298 256.166 327.536 256.336 327.751C256.529 328.011 256.722 328.249 256.926 328.476C257.13 328.703 257.334 328.907 257.549 329.099C257.674 329.224 257.81 329.337 257.946 329.439C258.048 329.53 258.15 329.609 258.253 329.688C258.377 329.779 258.502 329.87 258.627 329.949C258.751 330.04 258.876 330.119 259.001 330.187C262.641 332.43 267.71 332.034 273.039 328.963C274.853 327.909 276.713 326.55 278.55 324.862C288.846 315.423 294.709 299.595 291.624 289.522C290.638 286.281 288.858 284.026 286.544 282.78C286.272 282.621 285.989 282.486 285.705 282.372C285.467 282.27 285.229 282.18 284.991 282.1C284.98 282.1 284.968 282.1 284.945 282.089C284.707 282.01 284.458 281.942 284.197 281.885C284.174 281.874 284.152 281.874 284.118 281.862C283.88 281.806 283.63 281.76 283.381 281.726C283.358 281.726 283.335 281.715 283.313 281.715C283.063 281.67 282.802 281.647 282.542 281.624C279.639 281.409 276.339 282.282 272.926 284.242C271.1 285.295 269.252 286.666 267.415 288.343C257.119 297.782 251.256 313.61 254.329 323.695Z" fill="#FFAD4A" stroke="#323954" stroke-width="0.95809" stroke-linecap="round" stroke-linejoin="round"/>
<path d="M279.931 296.353L274.006 314.183L279.363 314.472L285.284 296.641C285.637 295.588 285.722 294.2 284.913 293.502C284.613 293.24 284.209 293.097 283.749 293.072C283.289 293.038 282.797 293.147 282.345 293.365C282.208 293.429 282.077 293.503 281.951 293.584C280.928 294.241 280.244 295.416 279.931 296.353Z" fill="#323954"/>
<path d="M264.456 310.478C264.193 310.687 263.901 311.06 263.624 311.658C263.439 312.051 263.276 312.514 263.143 313C263.013 313.483 262.93 313.949 262.898 314.354C262.816 315.445 263.149 315.86 263.489 315.882L269.197 316.26L271.988 316.446L277.695 316.824C277.846 316.837 278.031 316.776 278.237 316.613C278.502 316.402 278.791 316.025 279.071 315.429C279.251 315.039 279.419 314.573 279.548 314.091C279.677 313.608 279.765 313.139 279.793 312.736C279.875 311.645 279.542 311.231 279.201 311.209L273.495 310.828L270.705 310.641L264.996 310.26C264.848 310.252 264.661 310.315 264.456 310.478Z" fill="#323954"/>
<path d="M249.98 321.249C250.933 324.376 254.85 327.796 257.05 329.065L259.091 330.255C259.057 330.232 259.034 330.21 259 330.187C258.876 330.119 258.751 330.04 258.626 329.949C258.501 329.87 258.377 329.779 258.252 329.688C258.15 329.609 258.048 329.53 257.946 329.439C257.81 329.337 257.674 329.224 257.549 329.099C257.333 328.907 257.129 328.703 256.925 328.476C256.721 328.249 256.517 328 256.336 327.751C256.165 327.535 256.007 327.298 255.859 327.06C255.735 326.878 255.633 326.697 255.53 326.516C255.462 326.414 255.406 326.301 255.36 326.199C255.258 326.029 255.168 325.859 255.1 325.677C255.009 325.496 254.929 325.315 254.861 325.133C254.657 324.68 254.487 324.193 254.328 323.695C251.256 313.61 257.118 297.782 267.414 288.343C269.251 286.666 271.099 285.295 272.925 284.242C276.338 282.282 279.638 281.409 282.541 281.624C282.802 281.647 283.063 281.67 283.312 281.715C283.335 281.715 283.357 281.726 283.38 281.726C283.63 281.76 283.879 281.806 284.117 281.862C284.151 281.874 284.174 281.874 284.197 281.885C284.457 281.942 284.707 282.01 284.945 282.089C284.968 282.1 284.979 282.1 284.99 282.1C285.24 282.18 285.467 282.27 285.705 282.372C285.988 282.485 286.272 282.621 286.544 282.78C286.623 282.814 286.702 282.859 286.782 282.905L282.422 280.459C278.794 278.352 273.804 278.782 268.566 281.796C266.751 282.85 264.903 284.21 263.066 285.898C252.759 295.336 246.907 311.165 249.98 321.249Z" fill="#FFAD4A" stroke="#323954" stroke-width="0.95809" stroke-linecap="round" stroke-linejoin="round"/>
<path d="M267.862 392.889C267.889 393.248 267.929 393.595 267.982 393.941C268.049 394.447 268.129 394.939 268.222 395.432C268.289 395.818 268.368 396.204 268.462 396.577C268.595 397.255 268.768 397.908 268.968 398.547C269.115 399.026 269.274 399.492 269.448 399.958C269.448 399.985 269.448 399.998 269.461 400.011C269.634 400.477 269.821 400.93 270.02 401.382C270.207 401.808 270.393 402.221 270.607 402.62C270.62 402.66 270.633 402.687 270.66 402.714C270.873 403.14 271.113 403.552 271.366 403.952C271.566 404.284 271.766 404.604 272.006 404.91C272.046 405.003 272.126 405.11 272.205 405.203C272.432 405.523 272.672 405.829 272.925 406.122C272.952 406.161 272.991 406.215 273.045 406.255C273.271 406.534 273.511 406.801 273.778 407.067C273.857 407.16 273.937 407.24 274.031 407.32C274.204 407.493 274.39 407.666 274.577 407.826C274.79 408.025 274.99 408.198 275.216 408.371C275.323 408.478 275.443 408.558 275.563 408.638C275.789 408.824 276.029 408.997 276.282 409.157C276.442 409.277 276.602 409.383 276.762 409.463C277.055 409.663 277.361 409.836 277.681 410.009C284.063 413.403 292.296 412.179 300.503 407.453C309.07 402.501 317.61 393.741 324.018 382.399C336.569 360.194 336.169 336.564 323.112 329.615C317.463 326.593 310.376 327.205 303.128 330.667C302.182 331.132 301.236 331.625 300.29 332.171C291.724 337.11 283.17 345.883 276.762 357.225C269.687 369.739 266.743 382.705 267.862 392.889Z" fill="#C9C0B8" stroke="#323954" stroke-miterlimit="10"/>
<path d="M270.812 406.111L276.976 409.609C276.896 409.556 276.829 409.516 276.763 409.463C276.603 409.383 276.443 409.277 276.283 409.157C276.03 408.997 275.79 408.824 275.563 408.638C275.444 408.558 275.324 408.478 275.217 408.371C275.004 408.212 274.791 408.025 274.578 407.825C274.391 407.666 274.205 407.493 274.031 407.32C273.938 407.24 273.858 407.16 273.778 407.067C273.512 406.8 273.272 406.534 273.045 406.255C272.992 406.215 272.952 406.161 272.925 406.121C272.659 405.829 272.419 405.522 272.206 405.203C272.126 405.11 272.046 405.003 272.006 404.91C271.766 404.604 271.567 404.284 271.367 403.952C271.114 403.552 270.874 403.14 270.661 402.714C270.634 402.687 270.621 402.66 270.607 402.62C270.394 402.221 270.208 401.808 270.021 401.382C269.808 400.943 269.635 400.49 269.462 400.011C269.448 399.998 269.448 399.984 269.448 399.958C269.275 399.505 269.115 399.026 268.969 398.547C268.769 397.908 268.596 397.255 268.462 396.576C268.369 396.204 268.289 395.818 268.223 395.432C268.129 394.939 268.049 394.446 267.983 393.941C267.929 393.594 267.876 393.248 267.863 392.889C266.744 382.705 269.688 369.738 276.763 357.225C283.171 345.883 291.724 337.11 300.291 332.171C301.237 331.625 302.183 331.132 303.129 330.666C310.376 327.205 317.464 326.593 323.113 329.615L323.633 329.894L317.269 326.29C317.096 326.183 316.936 326.09 316.763 325.997C310.381 322.602 302.148 323.827 293.941 328.553C285.361 333.505 276.821 342.278 270.412 353.607C258.022 375.519 258.262 398.816 270.812 406.111Z" fill="#C9C0B8" stroke="#323954" stroke-miterlimit="10"/>
<path d="M300.297 354.245C300.303 354.324 300.312 354.401 300.324 354.477C300.339 354.589 300.356 354.697 300.377 354.806C300.391 354.892 300.409 354.977 300.43 355.059C300.459 355.209 300.497 355.353 300.542 355.494C300.574 355.6 300.609 355.703 300.647 355.806C300.647 355.812 300.647 355.815 300.65 355.818C300.689 355.92 300.73 356.02 300.774 356.12C300.815 356.214 300.856 356.306 300.903 356.394C300.906 356.403 300.909 356.408 300.915 356.414C300.962 356.508 301.015 356.6 301.071 356.688C301.115 356.761 301.159 356.832 301.212 356.899C301.221 356.92 301.239 356.943 301.256 356.964C301.306 357.035 301.359 357.102 301.415 357.167C301.421 357.176 301.43 357.187 301.442 357.196C301.492 357.258 301.545 357.317 301.604 357.376C301.621 357.396 301.639 357.414 301.66 357.431C301.698 357.47 301.739 357.508 301.78 357.543C301.827 357.587 301.871 357.626 301.921 357.664C301.945 357.687 301.971 357.705 301.998 357.723C302.048 357.764 302.101 357.802 302.157 357.837C302.192 357.864 302.227 357.887 302.263 357.905C302.327 357.949 302.395 357.987 302.466 358.025C303.875 358.775 305.693 358.505 307.505 357.461C309.397 356.367 311.283 354.433 312.698 351.928C315.47 347.025 315.381 341.807 312.498 340.272C311.251 339.605 309.686 339.74 308.085 340.504C307.876 340.607 307.667 340.716 307.458 340.836C305.567 341.927 303.678 343.864 302.263 346.369C300.7 349.132 300.05 351.996 300.297 354.245Z" fill="#323954"/>
<path d="M280.141 390.671C280.147 390.75 280.156 390.827 280.168 390.903C280.183 391.015 280.2 391.124 280.221 391.232C280.235 391.318 280.253 391.403 280.274 391.485C280.303 391.635 280.341 391.779 280.386 391.92C280.418 392.026 280.453 392.129 280.491 392.232C280.491 392.238 280.491 392.241 280.494 392.244C280.533 392.347 280.574 392.447 280.618 392.547C280.659 392.641 280.7 392.732 280.747 392.82C280.75 392.829 280.753 392.835 280.759 392.841C280.806 392.935 280.859 393.026 280.915 393.114C280.959 393.187 281.003 393.258 281.056 393.326C281.065 393.346 281.083 393.37 281.1 393.39C281.15 393.461 281.203 393.528 281.259 393.593C281.265 393.602 281.274 393.614 281.286 393.622C281.336 393.684 281.389 393.743 281.448 393.802C281.465 393.822 281.483 393.84 281.504 393.858C281.542 393.896 281.583 393.934 281.624 393.969C281.671 394.013 281.715 394.052 281.765 394.09C281.789 394.113 281.815 394.131 281.842 394.149C281.892 394.19 281.945 394.228 282.001 394.263C282.036 394.29 282.071 394.313 282.107 394.331C282.171 394.375 282.239 394.413 282.31 394.451C283.719 395.201 285.537 394.931 287.349 393.887C289.241 392.793 291.127 390.859 292.542 388.354C295.314 383.451 295.225 378.233 292.342 376.698C291.095 376.031 289.53 376.166 287.929 376.93C287.72 377.033 287.511 377.142 287.302 377.263C285.411 378.353 283.522 380.291 282.107 382.795C280.544 385.559 279.894 388.422 280.141 390.671Z" fill="#323954"/>
<path d="M301.346 390.35C302.45 389.713 303.876 388.733 305.486 387.254C307.839 385.09 310.585 381.858 313.295 377.067C315.881 372.489 317.246 368.59 317.938 365.494C319.078 360.398 318.398 357.477 318.351 357.285C318.128 356.404 317.343 356.179 316.479 356.678C316.325 356.767 316.168 356.879 316.012 357.014C315.645 357.328 315.332 357.727 315.088 358.157C314.647 358.936 314.439 359.831 314.611 360.507C314.64 360.637 315.077 362.693 314.239 366.381C313.693 368.785 312.605 371.882 310.51 375.59C308.231 379.621 305.98 382.213 304.142 383.862C303.033 384.856 302.075 385.507 301.352 385.924C300.504 386.414 299.979 386.581 299.914 386.602C299.764 386.647 299.613 386.715 299.464 386.8C298.597 387.301 297.803 388.43 297.585 389.558C297.336 390.883 297.945 391.729 298.974 391.441C299.075 391.411 299.957 391.152 301.346 390.35Z" fill="#323954"/>
<path d="M308.856 261.026C308.947 261.317 309.047 261.599 309.158 261.87C309.228 262.051 309.309 262.221 309.389 262.382C309.399 262.402 309.409 262.432 309.419 262.452C309.52 262.653 309.631 262.844 309.741 263.025C309.791 263.115 309.852 263.216 309.922 263.306C309.982 263.397 310.053 263.497 310.113 263.578C310.244 263.758 310.375 263.929 310.525 264.08C310.767 264.351 311.028 264.602 311.309 264.813C311.43 264.914 311.561 265.004 311.692 265.094C311.712 265.104 311.732 265.114 311.762 265.135C314.094 266.611 317.362 266.37 320.8 264.391C321.966 263.718 323.142 262.854 324.319 261.779C327.536 258.836 330.069 254.908 331.597 250.92C333.186 246.751 333.678 242.502 332.673 239.207C332.039 237.138 330.893 235.701 329.416 234.908C329.084 234.717 328.732 234.566 328.36 234.466C328.219 234.416 328.068 234.375 327.928 234.345C327.908 234.335 327.877 234.325 327.857 234.325C327.706 234.285 327.566 234.265 327.415 234.245C327.405 234.235 327.385 234.235 327.365 234.235C327.194 234.205 327.023 234.185 326.852 234.175C326.671 234.164 326.49 234.154 326.309 234.154C326.068 234.154 325.826 234.164 325.575 234.195C325.042 234.235 324.479 234.335 323.906 234.496C323.705 234.546 323.514 234.606 323.303 234.677C322.469 234.948 321.604 235.34 320.729 235.842C319.563 236.515 318.387 237.389 317.211 238.464C313.672 241.699 310.958 246.129 309.51 250.518C308.263 254.296 307.952 258.053 308.856 261.026Z" fill="#C9C0B8" stroke="#323954" stroke-miterlimit="10"/>
<path d="M325.473 243.737L321.477 255.592L325.089 255.784L329.079 243.94C329.266 243.392 329.31 242.849 329.196 242.436C328.99 241.718 328.385 241.577 328.045 241.564C327.605 241.538 327.199 241.667 326.843 241.893C326.195 242.303 325.71 243.033 325.473 243.737Z" fill="#323954"/>
<path d="M304.521 258.792C305.124 260.791 309.187 263.648 310.595 264.462L311.69 265.094C311.56 265.004 311.429 264.914 311.308 264.813C311.027 264.602 310.766 264.351 310.524 264.08C310.373 263.929 310.243 263.758 310.112 263.578C310.052 263.497 309.981 263.397 309.921 263.306C309.851 263.216 309.79 263.115 309.74 263.025C309.619 262.844 309.519 262.653 309.418 262.452C309.408 262.432 309.398 262.402 309.388 262.382C309.308 262.221 309.227 262.051 309.157 261.87C309.046 261.599 308.946 261.317 308.855 261.026C307.951 258.053 308.262 254.296 309.509 250.519C310.957 246.129 313.671 241.699 317.21 238.464C318.386 237.389 319.562 236.515 320.728 235.842C321.603 235.34 322.468 234.948 323.302 234.677C323.513 234.607 323.704 234.546 323.905 234.496C324.478 234.335 325.041 234.235 325.574 234.195C325.825 234.165 326.067 234.155 326.308 234.155C326.489 234.155 326.67 234.165 326.851 234.175C327.022 234.185 327.193 234.205 327.364 234.235C327.384 234.235 327.404 234.235 327.414 234.245C327.565 234.265 327.705 234.285 327.856 234.325C327.876 234.325 327.906 234.335 327.927 234.345C328.067 234.376 328.218 234.416 328.359 234.466C328.731 234.566 329.083 234.717 329.414 234.908C329.465 234.928 329.525 234.958 329.575 234.988L325.241 232.754C322.919 231.408 319.732 231.69 316.394 233.608C315.228 234.281 314.042 235.155 312.876 236.23C306.301 242.257 302.551 252.363 304.521 258.792Z" fill="#C9C0B8" stroke="#323954" stroke-miterlimit="10"/>
<path d="M314.992 256.38L318.633 256.621L320.416 256.742L324.057 256.983C324.162 256.999 324.278 256.951 324.4 256.854C324.47 256.798 324.54 256.726 324.61 256.637C324.942 256.219 325.146 255.584 325.239 255.239C325.566 254.009 325.35 253.423 325.018 253.407L321.371 253.158L319.594 253.045L315.953 252.796C315.849 252.788 315.732 252.836 315.61 252.933C315.318 253.166 314.998 253.688 314.771 254.54C314.445 255.777 314.654 256.364 314.992 256.38Z" fill="#323954"/>
<path d="M383.836 388.082C383.678 388.581 383.507 389.068 383.303 389.521C383.235 389.702 383.156 389.883 383.065 390.065C382.997 390.246 382.907 390.416 382.804 390.586C382.759 390.688 382.702 390.801 382.634 390.903C382.532 391.084 382.43 391.266 382.306 391.447C382.158 391.685 381.999 391.923 381.829 392.138C381.637 392.399 381.444 392.637 381.24 392.863C381.035 393.09 380.831 393.294 380.616 393.487C380.491 393.611 380.355 393.724 380.219 393.826C380.117 393.917 380.015 393.996 379.913 394.076C379.788 394.166 379.663 394.257 379.539 394.336C379.414 394.427 379.289 394.506 379.165 394.574C375.525 396.818 370.456 396.421 365.126 393.351C363.312 392.297 361.452 390.937 359.615 389.249C349.319 379.811 343.457 363.982 346.541 353.909C347.528 350.669 349.308 348.414 351.621 347.167C351.893 347.009 352.177 346.873 352.46 346.76C352.698 346.658 352.936 346.567 353.175 346.488C353.186 346.488 353.197 346.488 353.22 346.476C353.458 346.397 353.708 346.329 353.968 346.272C353.991 346.261 354.014 346.261 354.048 346.25C354.286 346.193 354.535 346.148 354.785 346.114C354.807 346.114 354.83 346.102 354.853 346.102C355.102 346.057 355.363 346.034 355.624 346.012C358.527 345.796 361.827 346.669 365.24 348.629C367.065 349.683 368.914 351.054 370.751 352.731C381.047 362.169 386.909 377.998 383.836 388.082Z" fill="#FFAD4A" stroke="#323954" stroke-width="0.95809" stroke-linecap="round" stroke-linejoin="round"/>
<path d="M358.855 362.097L362.451 377.536L357.483 377.152L353.89 361.712C353.675 360.8 353.742 359.643 354.56 359.159C354.864 358.977 355.251 358.906 355.678 358.939C356.106 358.964 356.548 359.112 356.941 359.345C357.061 359.414 357.174 359.49 357.282 359.571C358.156 360.234 358.663 361.285 358.855 362.097Z" fill="#323954"/>
<path d="M378.233 372.869C378.605 373.06 379.026 373.413 379.437 373.992C379.709 374.372 379.956 374.824 380.164 375.3C380.365 375.774 380.503 376.234 380.567 376.637C380.733 377.721 380.294 378.157 379.825 378.202L371.978 378.959L368.14 379.33L360.294 380.087C360.086 380.11 359.828 380.062 359.537 379.912C359.162 379.719 358.745 379.362 358.33 378.785C358.063 378.408 357.81 377.953 357.609 377.48C357.407 377.006 357.264 376.544 357.205 376.143C357.04 375.059 357.479 374.623 357.947 374.579L365.793 373.819L369.629 373.447L377.478 372.686C377.681 372.668 377.942 372.719 378.233 372.869Z" fill="#323954"/>
<path d="M388.184 385.637C387.232 388.764 383.315 392.184 381.115 393.453L379.074 394.642C379.108 394.62 379.131 394.597 379.165 394.574C379.289 394.506 379.414 394.427 379.539 394.336C379.663 394.257 379.788 394.166 379.913 394.076C380.015 393.996 380.117 393.917 380.219 393.826C380.355 393.725 380.491 393.611 380.616 393.487C380.831 393.294 381.036 393.09 381.24 392.863C381.444 392.637 381.648 392.388 381.829 392.138C381.999 391.923 382.158 391.685 382.306 391.447C382.43 391.266 382.532 391.084 382.634 390.903C382.702 390.801 382.759 390.688 382.804 390.586C382.907 390.416 382.997 390.246 383.065 390.065C383.156 389.883 383.235 389.702 383.303 389.521C383.507 389.068 383.678 388.581 383.836 388.082C386.909 377.998 381.047 362.169 370.751 352.731C368.914 351.054 367.065 349.683 365.24 348.629C361.827 346.669 358.527 345.797 355.624 346.012C355.363 346.034 355.102 346.057 354.853 346.102C354.83 346.102 354.807 346.114 354.785 346.114C354.535 346.148 354.286 346.193 354.048 346.25C354.014 346.261 353.991 346.261 353.968 346.272C353.708 346.329 353.458 346.397 353.22 346.476C353.197 346.488 353.186 346.488 353.175 346.488C352.925 346.567 352.698 346.658 352.46 346.76C352.177 346.873 351.893 347.009 351.621 347.168C351.542 347.201 351.462 347.247 351.383 347.292L355.742 344.847C359.371 342.739 364.36 343.17 369.599 346.184C371.413 347.237 373.262 348.597 375.099 350.285C385.406 359.724 391.257 375.552 388.184 385.637Z" fill="#FFAD4A" stroke="#323954" stroke-width="0.95809" stroke-linecap="round" stroke-linejoin="round"/>
<path d="M1.12789 114.235L76.2721 427.12C76.9623 429.979 77.4425 432.888 78.0327 435.766C78.4528 437.835 79.4531 439.325 80.8436 440.134L91.1769 445.722C91.0569 445.642 90.9369 445.572 90.8368 445.482C90.4267 445.192 90.0566 444.832 89.7365 444.392C89.6664 444.302 89.5964 444.202 89.5364 444.092C89.5297 444.092 89.5264 444.086 89.5264 444.072C89.3664 443.852 89.2163 443.583 89.0963 443.313C89.0862 443.283 89.0762 443.263 89.0662 443.233C88.9462 443.003 88.8662 442.773 88.7761 442.513C88.6661 442.163 88.5561 441.793 88.4861 441.394C88.4361 441.184 88.416 440.974 88.396 440.754L88.406 440.744C88.356 440.624 88.346 440.484 88.336 440.354C88.316 440.194 88.296 440.034 88.306 439.854C88.296 439.764 88.296 439.664 88.296 439.574C88.286 439.444 88.276 439.315 88.276 439.185L11.5913 119.923C9.90074 112.876 11.6413 105.329 16.6028 100.042C17.8333 98.7225 19.1937 97.6031 20.6141 96.7834L145.925 24.437C146.145 24.3071 146.385 24.1871 146.605 24.0672C146.865 23.9372 147.135 23.8073 147.395 23.7073C149.066 23.0077 150.606 22.8677 151.926 23.1876C152.237 23.2575 152.537 23.3775 152.827 23.5074C152.907 23.5474 152.987 23.5874 153.067 23.6274L142.794 18.0499C140.913 16.9704 138.312 17.1204 135.441 18.7696L10.1608 91.1061C8.73032 91.9257 7.37991 93.0452 6.13952 94.3645C1.1779 99.6421 -0.562654 107.199 1.12789 114.235Z" fill="#FFAD4A" stroke="#323954" stroke-linecap="round" stroke-linejoin="round"/>
<path d="M10.7762 110.815C10.3187 112.783 10.374 114.835 10.8459 116.799L88.2768 439.182C88.2727 439.312 88.2829 439.445 88.293 439.577C88.295 439.665 88.295 439.767 88.3113 439.856C88.301 440.029 88.3214 440.192 88.3417 440.355C88.3518 440.487 88.362 440.62 88.4027 440.742L88.4007 440.756C88.4129 440.976 88.4413 441.184 88.484 441.394C88.5573 441.797 88.6652 442.161 88.7751 442.512C88.8688 442.772 88.9524 443.002 89.0643 443.237C89.0745 443.267 89.0868 443.283 89.097 443.314C89.2334 443.581 89.3719 443.833 89.5267 444.074C89.5254 444.083 89.5294 444.089 89.5389 444.09C89.596 444.2 89.6693 444.298 89.7427 444.395C90.0584 444.833 90.4292 445.192 90.8387 445.483C90.9426 445.571 91.0628 445.646 91.1831 445.721L91.3032 445.797C93.1839 446.895 95.7823 446.743 98.6541 445.088L223.944 372.739C229.641 369.452 234.265 361.459 234.242 354.911L156.287 30.343C156.271 26.9953 155.049 24.6533 153.071 23.6285C152.989 23.5878 152.908 23.5471 152.826 23.5063C152.539 23.3779 152.235 23.2618 151.926 23.1884C150.603 22.8683 149.069 23.0125 147.397 23.7043C147.134 23.8122 146.869 23.9343 146.602 24.0706C146.382 24.1846 146.146 24.3108 145.924 24.439L20.6193 96.7856C15.9932 99.4549 12.0731 105.237 10.7762 110.815Z" fill="#FFAD4A" stroke="#323954" stroke-linecap="round" stroke-linejoin="round"/>
<path d="M232.175 356.113C232.185 361.341 228.484 367.748 223.943 370.376L98.6421 442.723C94.5508 445.082 91.1198 443.593 90.4595 439.464C90.2594 438.175 90.0794 436.876 89.7793 435.596L12.9945 115.915C12.3844 113.366 12.4944 110.677 13.4147 108.218C14.8251 104.49 17.526 100.941 20.617 99.1523L145.917 26.8059C150.469 24.1871 154.2 26.3161 154.21 31.5337L232.175 356.113Z" fill="#323954" stroke="#323954" stroke-miterlimit="10"/>
<path d="M71.8541 74.936C71.8381 74.9375 71.8205 74.9445 71.8042 74.9468C71.6683 74.9666 71.5226 75.0142 71.3684 75.1032C71.1984 75.2015 71.0365 75.3353 70.8893 75.4928C70.4474 75.9659 70.1386 76.6544 70.1406 77.2407C70.1409 77.3136 70.1505 77.378 70.1599 77.4426C70.1632 77.4641 70.162 77.4897 70.1661 77.5101C70.1783 77.5706 70.1987 77.6226 70.219 77.6746C70.2262 77.6932 70.2298 77.7159 70.2381 77.7332C70.2609 77.7818 70.291 77.8214 70.321 77.8612C70.3321 77.876 70.3396 77.8946 70.3515 77.908C70.3865 77.9473 70.4279 77.977 70.4701 78.0055C70.6963 78.1577 71.0178 78.1524 71.3777 77.9446C72.0675 77.5464 72.6174 76.5938 72.6148 75.8121C72.613 75.2258 72.301 74.8963 71.8541 74.936ZM86.1547 65.6326C86.1461 65.6277 86.136 65.6246 86.1272 65.6197C86.0804 65.5944 86.0325 65.5704 85.9823 65.5515C85.9675 65.5461 85.9512 65.543 85.936 65.5381C85.8896 65.5226 85.8431 65.5073 85.7941 65.4975C85.7853 65.4957 85.776 65.4957 85.767 65.4942C85.7105 65.4841 85.6536 65.4758 85.5938 65.4728C85.5863 65.4725 85.578 65.4736 85.5703 65.4733C85.231 65.4618 84.8446 65.5659 84.434 65.8029C84.1822 65.9483 83.9393 66.133 83.7106 66.347C83.6343 66.4181 83.56 66.4929 83.4873 66.5702C82.8522 67.2477 82.3564 68.1475 82.1341 69.0335C82.1223 69.0806 82.1109 69.1274 82.1008 69.1742C82.0388 69.4579 82.0045 69.739 82.0053 70.0093C82.0059 70.1936 82.0228 70.3641 82.0531 70.5213C82.0544 70.5275 82.0547 70.5347 82.056 70.5409C82.0697 70.6082 82.0873 70.671 82.106 70.7328C82.1099 70.7457 82.1125 70.7605 82.1166 70.7731C82.1322 70.8212 82.1519 70.8652 82.1702 70.9099C82.1801 70.934 82.1884 70.9601 82.1993 70.9833C82.2275 71.0436 82.2593 71.0994 82.2933 71.1527C82.2958 71.1571 82.2982 71.1623 82.301 71.1664C82.3236 71.201 82.3492 71.2313 82.374 71.2628C82.3914 71.2848 82.4069 71.3091 82.4253 71.3295C82.4434 71.3497 82.4636 71.366 82.4828 71.3849C82.51 71.4117 82.5364 71.4399 82.5656 71.4637C82.5879 71.4821 82.6125 71.4963 82.6358 71.5125C83.0846 71.8271 83.7322 71.817 84.4517 71.4015C85.7946 70.6263 86.876 68.7423 86.8711 67.2C86.8687 66.4291 86.5953 65.8862 86.1547 65.6326Z" fill="white" stroke="#323954" stroke-linecap="round" stroke-linejoin="round"/>
<path d="M20.6281 101.529C19.775 102.022 18.9615 102.691 18.2215 103.48C15.2287 106.668 14.2135 111.239 15.2345 115.49L92.4086 436.802C92.4211 440.731 95.2184 442.312 98.631 440.342L223.931 367.998C227.344 366.028 230.121 361.228 230.108 357.299L152.151 32.7255C152.138 28.7959 149.341 27.2149 145.929 29.1852L121.847 43.0889C118.507 50.5626 113.008 57.0502 107.14 60.4385L59.4735 87.9591C53.5957 91.3527 48.0846 91.2222 44.7095 87.6254L20.6281 101.529Z" fill="white" stroke="#323954" stroke-linecap="round" stroke-linejoin="round"/>
<path d="M16.1934 153.781L31.6761 218.613L33.0743 217.8L17.5916 152.968L16.1934 153.781Z" fill="#FFAD4A" stroke="#323954" stroke-linecap="round" stroke-linejoin="round"/>
<path d="M11.3262 150.95L26.8088 215.782L31.6754 218.613L16.1926 153.781L11.3262 150.95Z" fill="#FFAD4A" stroke="#323954" stroke-linecap="round" stroke-linejoin="round"/>
<path d="M11.3262 150.95L16.1926 153.781L17.5908 152.967L12.7223 150.15L11.3262 150.95Z" fill="#FFAD4A" stroke="#323954" stroke-linecap="round" stroke-linejoin="round"/>
<path d="M34.084 228.885L37.8904 244.272L39.2885 243.458L35.4822 228.072L34.084 228.885Z" fill="#FFAD4A" stroke="#323954" stroke-linecap="round" stroke-linejoin="round"/>
<path d="M29.2168 226.054L33.0231 241.441L37.8896 244.272L34.0832 228.885L29.2168 226.054Z" fill="#FFAD4A" stroke="#323954" stroke-linecap="round" stroke-linejoin="round"/>
<path d="M29.2168 226.054L34.0832 228.885L35.4815 228.072L30.613 225.255L29.2168 226.054Z" fill="#FFAD4A" stroke="#323954" stroke-linecap="round" stroke-linejoin="round"/>
<path d="M69.4585 209.068L77.0433 240.631C78.579 247.042 85.9035 250.105 91.5521 246.709L115.856 232.098C119.501 229.903 121.304 225.607 120.316 221.47L112.731 189.907C111.189 183.496 103.864 180.434 98.2155 183.829L73.9119 198.44C70.2664 200.635 68.4636 204.932 69.4585 209.068Z" fill="#FFAD4A"/>
<path d="M53.9253 156.076L61.5101 187.639C63.0458 194.05 70.3702 197.112 76.0188 193.717L100.322 179.106C103.968 176.911 105.771 172.614 104.783 168.478L97.1977 136.915C95.6553 130.503 88.3309 127.441 82.6823 130.837L58.3787 145.448C54.7332 147.643 52.9304 151.939 53.9253 156.076Z" fill="#C9C0B8"/>
<path d="M98.9311 132.488L106.516 164.052C108.052 170.463 115.376 173.525 121.025 170.129L145.328 155.519C148.974 153.324 150.777 149.027 149.788 144.891L142.204 113.328C140.661 106.916 133.337 103.854 127.688 107.25L103.385 121.861C99.739 124.055 97.9363 128.352 98.9311 132.488Z" fill="#FFAD4A"/>
<path d="M79.9808 308.892V310.916C79.9808 311.368 80.0024 311.798 80.0239 312.207L80.0886 312.982C80.1532 313.649 80.2393 314.295 80.3687 314.898C80.4332 315.199 80.4979 315.5 80.584 315.78C80.6486 316.081 80.7349 316.361 80.821 316.641C80.9502 317.072 81.101 317.459 81.2518 317.825C81.3811 318.083 81.4887 318.32 81.575 318.535C82.4581 320.257 83.6644 321.592 85.1077 322.496L85.3447 322.646C88.6836 324.584 93.2934 324.325 98.3771 321.398L107.446 316.168L144.131 294.988L178.489 275.164L197.273 264.316L215.195 253.984L233.979 243.157L251.815 232.869L272.667 220.837C282.748 215.025 290.977 200.798 290.934 189.217V187.194C290.934 181.426 288.866 177.358 285.548 175.442C285.527 175.42 285.484 175.42 285.462 175.399C285.462 175.399 285.441 175.399 285.419 175.377C285.118 175.205 284.794 175.055 284.471 174.925H284.45C284.385 174.904 284.342 174.882 284.278 174.861C284.105 174.775 283.933 174.732 283.761 174.689C283.717 174.667 283.696 174.667 283.653 174.667C283.567 174.624 283.481 174.603 283.394 174.581C283.351 174.538 283.287 174.517 283.244 174.517C282.942 174.452 282.64 174.387 282.339 174.366C282.296 174.344 282.274 174.344 282.231 174.344C282.016 174.301 281.8 174.28 281.563 174.28C281.499 174.258 281.412 174.258 281.326 174.258C280.939 174.237 280.551 174.215 280.142 174.258C279.991 174.237 279.84 174.258 279.689 174.28H279.603C279.323 174.301 279.065 174.344 278.763 174.387C278.44 174.43 278.117 174.495 277.794 174.581C277.557 174.624 277.32 174.689 277.083 174.753C276.889 174.796 276.717 174.861 276.523 174.925C276.243 175.011 275.963 175.098 275.683 175.227C275.359 175.334 275.036 175.464 274.713 175.614C274.002 175.915 273.27 176.282 272.538 176.712L253.969 187.431L253.323 187.797L217.371 208.525L216.724 208.912L180.643 229.726L179.997 230.092L146.285 249.55L145.638 249.916L109.579 270.708L108.911 271.096L98.2478 277.252C88.1666 283.063 79.9378 297.312 79.9808 308.892Z" fill="white" stroke="#323954" stroke-linecap="round" stroke-linejoin="round"/>
<path d="M72.1273 304.418V306.442C72.1487 312.189 74.1952 316.257 77.491 318.172L85.109 322.496C83.6658 321.592 82.4595 320.257 81.5764 318.535C81.4901 318.32 81.3825 318.083 81.2532 317.825C81.1024 317.459 80.9516 317.072 80.8224 316.641C80.7362 316.361 80.65 316.082 80.5854 315.78C80.4993 315.5 80.4346 315.199 80.3701 314.898C80.2407 314.295 80.1546 313.649 80.09 312.982L80.0253 312.207C80.0038 311.798 79.9822 311.368 79.9822 310.916V308.892C79.9392 297.312 88.168 283.063 98.2492 277.252L108.912 271.096L109.58 270.708L145.64 249.916L146.286 249.55L179.998 230.092L180.644 229.726L216.726 208.912L217.372 208.525L253.324 187.797L253.97 187.431L272.539 176.712C273.271 176.282 274.004 175.916 274.715 175.614C275.038 175.464 275.361 175.334 275.684 175.227C275.964 175.098 276.244 175.012 276.524 174.925C276.718 174.861 276.89 174.796 277.084 174.753C277.321 174.689 277.558 174.624 277.795 174.581C278.118 174.495 278.441 174.43 278.764 174.387C279.044 174.323 279.324 174.28 279.605 174.28H279.691C279.841 174.258 279.992 174.237 280.143 174.258C280.552 174.215 280.962 174.215 281.328 174.258C281.414 174.258 281.5 174.258 281.565 174.28C281.78 174.258 282.017 174.28 282.232 174.344C282.276 174.344 282.297 174.344 282.34 174.366C282.642 174.387 282.943 174.452 283.245 174.517C283.288 174.517 283.353 174.538 283.396 174.581C283.482 174.603 283.568 174.624 283.654 174.667C283.697 174.667 283.719 174.667 283.762 174.689C283.934 174.732 284.107 174.775 284.279 174.861C284.343 174.882 284.387 174.904 284.451 174.925H284.473C284.796 175.055 285.119 175.205 285.421 175.377L277.716 170.99C274.377 169.052 269.768 169.311 264.684 172.238L90.3942 272.778C80.3129 278.589 72.0842 292.838 72.1273 304.418Z" fill="white" stroke="#323954" stroke-linecap="round" stroke-linejoin="round"/>
<path d="M114.343 273.473L109.684 287.09L99.1955 294.897L106.811 299.013L105.058 312.046L114.421 300.966L123.831 301.215L121.995 290.254L129.563 277.378L119.064 281.679L114.343 273.473Z" fill="#FFAD4A"/>
<path d="M258.726 190.179L254.067 203.797L243.578 211.603L251.194 215.719L249.44 228.752L258.804 217.672L268.214 217.922L266.378 206.96L273.946 194.084L263.447 198.386L258.726 190.179Z" fill="#FFAD4A"/>
<path d="M222.128 211.292L217.456 224.918L206.981 232.716L214.597 236.832L212.829 249.873L222.206 238.785L231.602 239.043L229.78 228.073L237.348 215.198L226.849 219.499L222.128 211.292Z" fill="#FFAD4A"/>
<path d="M185.408 232.477L180.749 246.094L170.26 253.901L177.876 258.017L176.122 271.049L185.486 259.969L194.895 260.219L193.06 249.257L200.641 236.374L190.142 240.675L185.408 232.477Z" fill="#FFAD4A"/>
<path d="M151.052 252.297L146.393 265.914L135.904 273.72L143.52 277.836L141.767 290.869L151.13 279.789L160.54 280.039L158.704 269.077L166.272 256.202L155.787 260.495L151.052 252.297Z" fill="#FFAD4A"/>
<path d="M137.574 196.237C137.602 208.631 146.391 213.619 157.181 207.395L174.675 197.307L167.027 221.915L189.304 188.873L286.324 132.891C297.114 126.666 305.847 111.576 305.806 99.1821C305.778 86.788 296.989 81.7858 286.199 88.0107L157.056 162.514C146.265 168.739 137.533 183.843 137.574 196.237Z" fill="#FFAD4A" stroke="#323954" stroke-linecap="round" stroke-linejoin="round"/>
<path d="M286.274 94.2464C282.252 96.5666 279.014 102.162 279.027 106.77C279.035 109.675 280.329 111.491 282.287 111.852C278.909 115.557 276.55 120.839 276.563 125.375L276.574 129.269C279.288 130.093 282.684 129.553 286.368 127.427C290.044 125.307 293.423 121.939 296.124 117.991L296.113 114.097C296.1 109.571 293.718 107.024 290.34 107.207C292.289 104.581 293.56 101.295 293.552 98.3902C293.538 93.7826 290.278 91.9365 286.274 94.2464Z" fill="#C9C0B8"/>
<path d="M302.949 100.647C302.979 111.229 295.536 124.109 286.321 129.426C277.105 134.742 269.614 130.477 269.584 119.895C269.554 109.324 276.996 96.4335 286.212 91.117C295.428 85.8005 302.919 90.0763 302.949 100.647ZM276.574 129.269C279.288 130.093 282.684 129.553 286.369 127.427C290.044 125.307 293.423 121.939 296.124 117.991L296.113 114.097C296.1 109.571 293.718 107.024 290.34 107.207C292.289 104.581 293.56 101.295 293.552 98.3902C293.538 93.7826 290.278 91.9364 286.274 94.2464C282.252 96.5666 279.014 102.162 279.027 106.77C279.035 109.675 280.329 111.491 282.287 111.852C278.909 115.557 276.55 120.839 276.563 125.375L276.574 129.269Z" fill="white"/>
<path d="M152.338 185.858C151.735 186.206 151.248 187.048 151.25 187.742L151.252 188.578C151.254 189.271 151.744 189.56 152.348 189.212L263.549 125.06C264.153 124.712 264.648 123.854 264.646 123.161L264.644 122.325C264.642 121.632 264.143 121.358 263.539 121.706L152.338 185.858Z" fill="white"/>
<path d="M152.315 177.325C151.711 177.674 151.225 178.526 151.227 179.22L151.229 180.055C151.231 180.749 151.721 181.028 152.325 180.679L263.525 116.528C264.129 116.18 264.625 115.332 264.623 114.639L264.62 113.803C264.618 113.11 264.12 112.826 263.516 113.174L152.315 177.325Z" fill="white"/>
<path d="M179.213 178.891C178.609 179.24 178.113 180.097 178.115 180.791L178.118 181.626C178.12 182.32 178.618 182.593 179.222 182.245L263.575 133.582C264.179 133.234 264.674 132.387 264.672 131.693L264.67 130.857C264.668 130.164 264.169 129.88 263.565 130.229L179.213 178.891Z" fill="white"/>
<path d="M41.4434 406.368C41.4851 418.762 50.2596 423.778 61.0504 417.539L190.193 343.035C200.997 336.811 209.716 321.707 209.688 309.313C209.647 296.919 200.872 291.917 190.068 298.141L93.0475 354.123L102.809 328.307L78.4326 362.558L60.9253 372.645C50.1345 378.884 41.4156 393.974 41.4434 406.368Z" fill="#FFAD4A" stroke="#323954" stroke-linecap="round" stroke-linejoin="round"/>
<path d="M189.052 305.311C185.039 307.626 181.792 313.237 181.805 317.844C181.813 320.749 183.108 322.566 185.074 322.912C181.687 326.632 179.337 331.909 179.35 336.435L179.361 340.339C182.066 341.167 185.462 340.628 189.147 338.502C192.822 336.382 196.201 333.013 198.902 329.066L198.891 325.161C198.878 320.646 196.496 318.099 193.118 318.271C195.067 315.656 196.347 312.365 196.338 309.46C196.325 304.852 193.056 303.001 189.052 305.311Z" fill="#C9C0B8"/>
<path d="M205.726 311.722C205.756 322.303 198.314 335.184 189.098 340.5C179.882 345.817 172.391 341.551 172.361 330.97C172.331 320.389 179.774 307.508 188.989 302.192C198.205 296.875 205.696 301.141 205.726 311.722ZM179.36 340.339C182.066 341.167 185.461 340.628 189.146 338.502C192.821 336.382 196.2 333.013 198.901 329.066L198.89 325.162C198.877 320.646 196.496 318.099 193.117 318.271C195.066 315.656 196.346 312.365 196.338 309.46C196.325 304.852 193.056 303.001 189.052 305.311C185.039 307.626 181.791 313.237 181.804 317.844C181.812 320.75 183.107 322.566 185.073 322.912C181.687 326.632 179.336 331.909 179.349 336.435L179.36 340.339Z" fill="white"/>
<path d="M81.9919 389.966C81.3882 390.314 80.8926 391.172 80.8945 391.855L80.8969 392.691C80.8989 393.384 81.3977 393.668 82.0014 393.32L166.363 344.652C166.967 344.303 167.454 343.451 167.452 342.758L167.449 341.922C167.447 341.239 166.957 340.95 166.354 341.298L81.9919 389.966Z" fill="white"/>
<path d="M55.1033 388.395C54.4996 388.744 54.004 389.601 54.006 390.294L54.0084 391.13C54.0103 391.823 54.5091 392.097 55.1128 391.749L166.314 327.598C166.917 327.249 167.404 326.407 167.402 325.714L167.4 324.878C167.398 324.185 166.908 323.896 166.304 324.244L55.1033 388.395Z" fill="white"/>
<path d="M55.1267 396.927C54.5229 397.276 54.0273 398.123 54.0293 398.816L54.0317 399.652C54.0336 400.346 54.5324 400.63 55.1362 400.281L166.337 336.13C166.941 335.782 167.427 334.929 167.425 334.236L167.423 333.4C167.421 332.707 166.931 332.428 166.328 332.776L55.1267 396.927Z" fill="white"/>
<path d="M159.473 127.812V129.133C159.473 129.428 159.487 129.71 159.501 129.977L159.543 130.483C159.585 130.919 159.642 131.34 159.726 131.734C159.768 131.931 159.811 132.128 159.867 132.31C159.909 132.507 159.965 132.69 160.022 132.873C160.106 133.154 160.205 133.407 160.303 133.646C160.387 133.814 160.458 133.969 160.514 134.11C161.091 135.234 161.879 136.106 162.821 136.696L162.976 136.795C165.157 138.06 168.168 137.891 171.488 135.979L177.411 132.563L201.371 118.73L223.811 105.783L236.079 98.6977L247.784 91.9499L260.052 84.8787L271.702 78.159L285.32 70.3006C291.905 66.505 297.279 57.2126 297.251 49.6494V48.328C297.251 44.5604 295.9 41.9035 293.734 40.6524C293.72 40.6383 293.691 40.6383 293.677 40.6242C293.677 40.6242 293.663 40.6242 293.649 40.6101C293.452 40.4977 293.241 40.3993 293.03 40.315H293.016C292.974 40.3009 292.946 40.2868 292.904 40.2728C292.791 40.2166 292.679 40.1884 292.566 40.1603C292.538 40.1463 292.524 40.1463 292.496 40.1463C292.439 40.1181 292.383 40.1041 292.327 40.09C292.299 40.0619 292.256 40.0479 292.228 40.0479C292.031 40.0057 291.834 39.9635 291.637 39.9495C291.609 39.9354 291.595 39.9354 291.567 39.9354C291.426 39.9072 291.286 39.8932 291.131 39.8932C291.089 39.8792 291.032 39.8792 290.976 39.8792C290.723 39.8651 290.47 39.851 290.202 39.8792C290.104 39.8651 290.005 39.8792 289.907 39.8932H289.851C289.668 39.9073 289.499 39.9354 289.302 39.9635C289.091 39.9916 288.88 40.0338 288.669 40.09C288.514 40.1182 288.359 40.1603 288.204 40.2025C288.078 40.2306 287.965 40.2728 287.839 40.315C287.656 40.3712 287.473 40.4274 287.29 40.5117C287.079 40.5821 286.868 40.6664 286.657 40.7648C286.193 40.9616 285.714 41.2006 285.236 41.4817L273.108 48.4827L272.686 48.7216L249.205 62.2594L248.783 62.5125L225.217 76.1065L224.795 76.3456L202.777 89.0539L202.355 89.2929L178.804 102.873L178.368 103.126L171.403 107.147C164.819 110.942 159.445 120.249 159.473 127.812Z" fill="white" stroke="#323954" stroke-linecap="round" stroke-linejoin="round"/>
<path d="M153.066 123.97V125.292C153.08 129.045 154.417 131.702 156.57 132.953L162.821 136.696C161.878 136.106 161.09 135.234 160.513 134.11C160.457 133.969 160.387 133.814 160.302 133.646C160.204 133.407 160.105 133.154 160.021 132.873C159.965 132.69 159.908 132.507 159.866 132.31C159.81 132.128 159.768 131.931 159.725 131.734C159.641 131.34 159.585 130.919 159.543 130.483L159.5 129.977C159.486 129.71 159.472 129.428 159.472 129.133V127.812C159.444 120.249 164.818 110.942 171.403 107.147L178.367 103.126L178.803 102.873L202.355 89.2929L202.777 89.054L224.795 76.3456L225.217 76.1065L248.782 62.5125L249.204 62.2595L272.686 48.7216L273.108 48.4827L285.235 41.4818C285.714 41.2007 286.192 40.9616 286.656 40.7648C286.867 40.6665 287.078 40.5821 287.289 40.5118C287.472 40.4274 287.655 40.3712 287.838 40.315C287.965 40.2728 288.077 40.2307 288.204 40.2025C288.359 40.1603 288.513 40.1182 288.668 40.09C288.879 40.0338 289.09 39.9916 289.301 39.9636C289.484 39.9214 289.667 39.8932 289.85 39.8932H289.906C290.005 39.8792 290.103 39.8651 290.202 39.8792C290.469 39.8511 290.736 39.8511 290.975 39.8792C291.032 39.8792 291.088 39.8792 291.13 39.8932C291.271 39.8792 291.426 39.8932 291.566 39.9354C291.594 39.9354 291.609 39.9354 291.637 39.9495C291.834 39.9636 292.031 40.0057 292.228 40.0479C292.256 40.0479 292.298 40.0619 292.326 40.09C292.382 40.1041 292.439 40.1182 292.495 40.1463C292.523 40.1463 292.537 40.1463 292.565 40.1603C292.678 40.1884 292.79 40.2166 292.903 40.2728C292.945 40.2869 292.973 40.3009 293.015 40.315H293.029C293.24 40.3993 293.452 40.4978 293.648 40.6102L287.341 36.8249C285.16 35.5597 282.15 35.7284 278.829 37.6403L164.997 103.305C158.413 107.101 153.038 116.407 153.066 123.97Z" fill="white" stroke="#323954" stroke-linecap="round" stroke-linejoin="round"/>
<path d="M181.915 104.679L178.872 113.572L172.021 118.671L176.996 121.359L175.85 129.871L181.966 122.635L188.111 122.798L186.912 115.638L191.855 107.229L184.998 110.038L181.915 104.679Z" fill="#FFAD4A"/>
<path d="M277.313 52.1885C276.884 51.4437 275.778 51.5504 275.5 52.3635L273.271 58.878C273.206 59.0691 273.084 59.2359 272.922 59.3565L267.578 63.3337C266.992 63.7702 267.057 64.668 267.7 65.0156L270.687 66.6298C271.052 66.8275 271.258 67.2309 271.202 67.6429L270.606 72.074C270.473 73.0649 271.715 73.6165 272.361 72.8528L275.954 68.6004C276.15 68.3685 276.441 68.2382 276.745 68.2463L281.197 68.3645C281.826 68.3813 282.314 67.8201 282.21 67.1997L281.271 61.5958C281.232 61.3642 281.276 61.1264 281.395 60.9239L284.652 55.3841C285.137 54.5587 284.296 53.5891 283.41 53.9521L280.107 55.3055C279.643 55.4954 279.11 55.313 278.861 54.8788L277.313 52.1885Z" fill="#C9C0B8"/>
<path d="M252.311 64.0671L249.259 72.9661L242.418 78.0596L247.392 80.7478L246.238 89.265L252.362 82.0231L258.499 82.1915L257.309 75.0268L262.252 66.6177L255.395 69.4267L252.311 64.0671Z" fill="#FFAD4A"/>
<path d="M228.329 77.9028L225.286 86.7966L218.436 91.8953L223.41 94.5835L222.264 103.095L228.38 95.8588L234.525 96.022L233.326 88.8625L238.278 80.4482L231.421 83.2573L228.329 77.9028Z" fill="#FFAD4A"/>
<path d="M205.89 90.8476L202.847 99.7413L195.996 104.84L200.97 107.528L199.825 116.04L205.94 108.804L212.086 108.967L210.887 101.807L215.83 93.3981L208.982 96.202L205.89 90.8476Z" fill="#FFAD4A"/>
<path d="M306.264 147.944C305.742 148.51 306.027 149.429 306.779 149.598L328.186 154.425C328.937 154.595 329.589 153.888 329.36 153.153L322.841 132.215C322.612 131.48 321.674 131.268 321.151 131.833L306.264 147.944Z" fill="#FFAD4A"/>
<path d="M260.306 160.871C260.82 161.444 261.761 161.246 262 160.514L263.052 157.301C263.291 156.569 262.649 155.853 261.896 156.011L258.585 156.708C257.831 156.866 257.532 157.781 258.046 158.354L260.306 160.871Z" fill="#FFAD4A"/>
<path d="M26.7287 321.859C26.0959 321.421 25.2262 321.832 25.163 322.599L23.1032 347.582C23.0399 348.349 23.8307 348.897 24.5267 348.568L47.209 337.859C47.9054 337.531 47.9844 336.571 47.3512 336.133L26.7287 321.859Z" fill="#FFAD4A"/>
<path d="M204.45 49.3774C205.142 49.7137 205.939 49.1746 205.885 48.4069L203.954 21.3018C203.899 20.5341 203.034 20.1134 202.397 20.5443L179.87 35.7673C179.232 36.1985 179.3 37.1588 179.993 37.4953L204.45 49.3774Z" fill="#FFAD4A"/>
<path d="M241.374 386.655C240.989 385.989 240.027 385.989 239.642 386.655L229.66 403.932C229.275 404.599 229.756 405.432 230.526 405.432H250.491C251.261 405.432 251.742 404.599 251.357 403.932L241.374 386.655Z" fill="#FFAD4A"/>
<path d="M352.241 182.621C352.236 183.39 353.065 183.878 353.735 183.498L371.352 173.507C372.022 173.127 372.029 172.164 371.365 171.774L353.897 161.525C353.233 161.135 352.396 161.61 352.391 162.38L352.241 182.621Z" fill="#FFAD4A"/>
<path d="M323.534 123.052C323.78 123.781 324.722 123.972 325.232 123.395L330.889 116.99C331.399 116.413 331.092 115.501 330.337 115.348L321.958 113.655C321.203 113.503 320.566 114.224 320.812 114.954L323.534 123.052Z" fill="#C9C0B8"/>
<path d="M292.883 148.324C292.971 147.559 292.197 146.987 291.491 147.293L288.354 148.656C287.647 148.963 287.538 149.919 288.157 150.377L290.907 152.411C291.526 152.869 292.408 152.485 292.495 151.72L292.883 148.324Z" fill="#C9C0B8"/>
<path d="M341.224 210.715C340.473 210.548 339.823 211.258 340.054 211.992L344.62 226.477C344.852 227.21 345.791 227.419 346.311 226.852L356.582 215.658C357.102 215.091 356.813 214.173 356.061 214.006L341.224 210.715Z" fill="#C9C0B8"/>
<path d="M373.069 227.881C372.94 228.64 373.681 229.253 374.403 228.985L389.824 223.258C390.546 222.99 390.707 222.041 390.113 221.55L377.439 211.069C376.846 210.579 375.944 210.914 375.815 211.673L373.069 227.881Z" fill="#C9C0B8"/>
<path d="M172.025 13.9755C171.496 14.5349 171.771 15.4574 172.52 15.6356L189.56 19.6897C190.309 19.8679 190.97 19.1685 190.75 18.4308L185.743 1.65853C185.523 0.92115 184.588 0.698282 184.059 1.25726L172.025 13.9755Z" fill="#C9C0B8"/>
<path d="M223.354 15.4553C223.908 15.9904 224.832 15.7265 225.02 14.9801L228.014 3.05172C228.201 2.30509 227.51 1.63557 226.77 1.84656L214.934 5.2198C214.194 5.43088 213.96 6.36466 214.513 6.90015L223.354 15.4553Z" fill="#C9C0B8"/>
<path d="M227.038 47.7375C226.859 48.4861 227.557 49.1482 228.295 48.9292L233.359 47.4267C234.097 47.2077 234.321 46.2714 233.762 45.742L229.928 42.1113C229.369 41.5822 228.447 41.8561 228.268 42.6044L227.038 47.7375Z" fill="#C9C0B8"/>
<path d="M20.5977 303.358C20.3885 304.099 21.0597 304.788 21.8059 304.599L37.0594 300.731C37.8059 300.542 38.0672 299.615 37.5298 299.064L26.5503 287.798C26.0132 287.247 25.081 287.484 24.8719 288.224L20.5977 303.358Z" fill="#C9C0B8"/>
<path d="M13.2578 313.838C12.8729 313.172 11.9111 313.172 11.5261 313.838L5.85125 323.66C5.46605 324.326 5.94716 325.16 6.71711 325.16H18.0669C18.8368 325.16 19.3179 324.326 18.9327 323.66L13.2578 313.838Z" fill="#C9C0B8"/>
<path d="M212.245 406.272C212.188 407.04 212.984 407.582 213.677 407.247L217.724 405.296C218.418 404.961 218.489 404.001 217.852 403.568L214.137 401.042C213.501 400.609 212.635 401.027 212.578 401.795L212.245 406.272Z" fill="#C9C0B8"/>
<path d="M226.48 414.511C226.043 413.878 225.085 413.955 224.754 414.65L222.444 419.506C222.113 420.201 222.659 420.994 223.426 420.932L228.79 420.503C229.558 420.442 229.971 419.573 229.534 418.939L226.48 414.511Z" fill="#C9C0B8"/>
</g>
<defs>
<clipPath id="clip0_314_463">
<rect width="392" height="447" fill="white"/>
</clipPath>
</defs>
</svg>
